<svg id="Layer_1" data-name="Layer 1" xmlns="http://www.w3.org/2000/svg" xmlns:xlink="http://www.w3.org/1999/xlink" viewBox="0 0 2156.35 715.77"><defs><style>.cls-1{fill:none;}.cls-2{fill:#2c163e;}.cls-3{fill:#371c4d;}.cls-17,.cls-4{fill:#f9c300;}.cls-5,.cls-7,.cls-9{fill:#fff;}.cls-6{clip-path:url(#clip-path);}.cls-7{font-size:41.78px;}.cls-7,.cls-9{font-family:Quicksand-Bold, Quicksand Bold;font-weight:700;}.cls-8{fill:#00ed00;letter-spacing:0em;}.cls-9{font-size:25.44px;}.cls-10{letter-spacing:0em;}.cls-11{letter-spacing:0em;}.cls-12{letter-spacing:-0.03em;}.cls-13{letter-spacing:-0.08em;}.cls-14{letter-spacing:0em;}.cls-15{letter-spacing:-0.04em;}.cls-16{letter-spacing:-0.03em;}.cls-17{font-size:213.49px;font-family:ChunkFive-Roman, ChunkFive Roman;}</style><clipPath id="clip-path" transform="translate(185.6 150.41)"><rect class="cls-1" x="-0.45" y="0.01" width="1920.33" height="451.96"/></clipPath></defs><title>banner-2019</title><rect class="cls-2" x="185.19" y="150.41" width="1920.41" height="452"/><path class="cls-3" d="M1303.94,185.29l-39.28,23c-6.4,3.55-16.49,3.5-22.76-.17-4.55-2.66-5.8-6.49-3.85-9.83l77.77-45.49c10.2-6,10.2-15.65,0-21.62s-26.75-6-37,0l-38.15,22.32c-6.32,2.35-14.78,1.93-20.3-1.3-4.5-2.63-5.75-6.4-3.91-9.71l40.84-23.9c10.2-6,10.2-15.64,0-21.61s-26.74-6-36.95,0l-65.78,38.48c-12.94,6.93-33,6.79-45.5-.54h0c-12.62-7.38-12.79-19.24-.66-26.8L1174,69.79c10.21-6,10.21-15.65,0-21.61s-26.74-6-36.94,0l-167.55,98c-11.9,5.94-29.73,5.7-41-.88-11.53-6.75-11.73-17.56-.74-24.51l34-19.88c14.21-8.31,14.21-21.78,0-30.09s-37.23-8.31-51.44,0L781.74,146c-7.4,4-18.91,3.92-26.09-.29h0c-7.19-4.2-7.32-10.93-.5-15.26l8.34-4.88c7.38-4.32,7.38-11.31,0-15.62s-19.32-4.32-26.7,0L540.1,225c-7.37,4.32-7.37,11.31,0,15.62h0c7.38,4.32,19.33,4.32,26.71,0l25.88-15.14c7.41-4,18.91-3.91,26.1.29s7.31,10.93.49,15.27L476.44,324.61c-14.2,8.31-14.2,21.79,0,30.1h0c14.21,8.3,37.24,8.3,51.44,0l117-68.43c11.87-6.42,30.35-6.31,41.89.44,11.25,6.58,11.67,17,1.5,24l-15.31,8.95c-10.2,6-10.2,15.65,0,21.62s26.75,6,37,0l114.46-67c12.92-7.09,33.2-7,45.82.39s12.76,19,.92,26.61l-34.25,20c-10.2,6-10.2,15.64,0,21.61,7.84,4.59,19.4,5.61,29,3.15l-25,14.61c-6.38,3.73-6.38,9.79,0,13.52s16.73,3.73,23.11,0l65.21-38.15c10.25-5.58,26.24-5.49,36.22.35h0c7.79,4.56,9.46,11.24,5.32,16.81l-108.38,63.4c-6.38,3.73-6.38,9.78,0,13.51s16.72,3.74,23.1,0l168.76-98.71c-9.89,6-9.82,15.5.28,21.41s26.75,6,37,0l249.49-146c10.2-6,10.2-15.64,0-21.61S1314.14,179.32,1303.94,185.29Z" transform="translate(185.6 150.41)"/><path class="cls-3" d="M1445.2,124.27c-10.2-6-26.75-6-37,0l-42,24.6c-10.21,6-10.21,15.64,0,21.61h0c10.2,6,26.74,6,37,0l42-24.59C1455.4,139.92,1455.4,130.24,1445.2,124.27Z" transform="translate(185.6 150.41)"/><path class="cls-3" d="M502.46,202.56c-7-4.11-18.41-4.11-25.43,0L380.54,259c-7,4.11-7,10.77,0,14.88S399,278,406,273.88l96.48-56.44C509.48,213.33,509.48,206.67,502.46,202.56Z" transform="translate(185.6 150.41)"/><path class="cls-3" d="M1242.89,321.32l-96.48,56.43c-7,4.11-7,10.77,0,14.88s18.41,4.11,25.43,0l96.49-56.44c7-4.1,7-10.77,0-14.87S1249.92,317.21,1242.89,321.32Z" transform="translate(185.6 150.41)"/><path class="cls-4" d="M140,384.06H126.24V376c0-2.11-2.92-3.82-6.52-3.82s-6.52,1.71-6.52,3.82v8.05H99.43c-3.6,0-6.52,1.7-6.52,3.81s2.92,3.82,6.52,3.82H113.2v8.05c0,2.11,2.92,3.81,6.52,3.81s6.52-1.7,6.52-3.81v-8.05H140c3.61,0,6.53-1.71,6.53-3.82S143.61,384.06,140,384.06Z" transform="translate(185.6 150.41)"/><path class="cls-5" d="M408.87,234.69H397.54v-6.63c0-1.73-2.4-3.14-5.36-3.14s-5.37,1.41-5.37,3.14v6.63H375.48c-3,0-5.36,1.4-5.36,3.14s2.4,3.14,5.36,3.14h11.33v6.62c0,1.74,2.4,3.14,5.37,3.14s5.36-1.4,5.36-3.14V241h11.33c3,0,5.37-1.41,5.37-3.14S411.83,234.69,408.87,234.69Z" transform="translate(185.6 150.41)"/><path class="cls-4" d="M1754.21,67.91h-13.76v-8c0-2.11-2.92-3.82-6.52-3.82s-6.53,1.71-6.53,3.82v8h-13.76c-3.6,0-6.52,1.7-6.52,3.81s2.92,3.82,6.52,3.82h13.76v8c0,2.11,2.92,3.81,6.53,3.81s6.52-1.7,6.52-3.81v-8h13.76c3.6,0,6.52-1.71,6.52-3.82S1757.81,67.91,1754.21,67.91Z" transform="translate(185.6 150.41)"/><ellipse class="cls-5" cx="1623.62" cy="538.29" rx="13.4" ry="7.84"/><path class="cls-5" d="M1433.13,284.8c0,2.71-3.76,4.91-8.4,4.91s-8.4-2.2-8.4-4.91,3.76-4.91,8.4-4.91S1433.13,282.09,1433.13,284.8Z" transform="translate(185.6 150.41)"/><path class="cls-5" d="M1273.59,411.53c0,2.72-3.76,4.92-8.4,4.92s-8.4-2.2-8.4-4.92,3.76-4.91,8.4-4.91S1273.59,408.82,1273.59,411.53Z" transform="translate(185.6 150.41)"/><path class="cls-5" d="M474.19,411.39c0,2.72-3.76,4.92-8.4,4.92s-8.4-2.2-8.4-4.92,3.76-4.91,8.4-4.91S474.19,408.68,474.19,411.39Z" transform="translate(185.6 150.41)"/><ellipse class="cls-4" cx="1678.3" cy="349.89" rx="8.4" ry="4.91"/><path class="cls-4" d="M1375.36,129.19c0,2.72-3.77,4.92-8.4,4.92s-8.4-2.2-8.4-4.92,3.76-4.91,8.4-4.91S1375.36,126.48,1375.36,129.19Z" transform="translate(185.6 150.41)"/><path class="cls-4" d="M238.2,175c0,2.71-3.76,4.91-8.4,4.91s-8.4-2.2-8.4-4.91,3.76-4.92,8.4-4.92S238.2,172.24,238.2,175Z" transform="translate(185.6 150.41)"/><path class="cls-5" d="M1769.13,152.29c0,2.71-3.76,4.91-8.4,4.91s-8.4-2.2-8.4-4.91,3.77-4.91,8.4-4.91S1769.13,149.58,1769.13,152.29Z" transform="translate(185.6 150.41)"/><path class="cls-4" d="M368.35,326.2c0,2.71-3.76,4.91-8.4,4.91s-8.4-2.2-8.4-4.91,3.76-4.91,8.4-4.91S368.35,323.49,368.35,326.2Z" transform="translate(185.6 150.41)"/><path class="cls-4" d="M1591.71,43.7c0,2.71-3.76,4.91-8.4,4.91s-8.4-2.2-8.4-4.91,3.76-4.91,8.4-4.91S1591.71,41,1591.71,43.7Z" transform="translate(185.6 150.41)"/><path class="cls-4" d="M449.9,43.7c0,2.71-3.76,4.91-8.4,4.91s-8.4-2.2-8.4-4.91,3.76-4.91,8.4-4.91S449.9,41,449.9,43.7Z" transform="translate(185.6 150.41)"/><path class="cls-4" d="M922.46,411.53c0,2.72-3.76,4.92-8.4,4.92s-8.4-2.2-8.4-4.92,3.77-4.91,8.4-4.91S922.46,408.82,922.46,411.53Z" transform="translate(185.6 150.41)"/><ellipse class="cls-5" cx="389.45" cy="427.37" rx="13.4" ry="7.84"/><ellipse class="cls-4" cx="1167.56" cy="194.11" rx="13.4" ry="7.84"/><polygon class="cls-4" points="1831.61 376.41 1789.81 374.77 1812.69 358.31 1831.61 376.41"/><polygon class="cls-4" points="603.35 274.11 561.69 276.7 579.4 258.18 603.35 274.11"/><polygon class="cls-5" points="877.44 568.48 835.78 571.07 853.49 552.55 877.44 568.48"/><polygon class="cls-5" points="1500.85 213.13 1459.19 215.71 1476.9 197.19 1500.85 213.13"/><path class="cls-5" d="M1533.42,127.6l-13.54-7.92c-3.63-2.12-3.63-5.57,0-7.69h0a14.39,14.39,0,0,1,13.15,0l13.54,7.92c3.63,2.13,3.63,5.57,0,7.69h0A14.39,14.39,0,0,1,1533.42,127.6Z" transform="translate(185.6 150.41)"/><path class="cls-4" d="M1113.42,407.57h-19.15c-5.14,0-9.3-2.43-9.3-5.43h0c0-3,4.16-5.44,9.3-5.44h19.15c5.13,0,9.29,2.43,9.29,5.44h0C1122.71,405.14,1118.55,407.57,1113.42,407.57Z" transform="translate(185.6 150.41)"/><path class="cls-5" d="M611.48,43.58,597.94,51.5a14.31,14.31,0,0,1-13.14,0h0c-3.63-2.12-3.63-5.56,0-7.68l13.54-7.93a14.37,14.37,0,0,1,13.14,0h0C615.11,38,615.11,41.46,611.48,43.58Z" transform="translate(185.6 150.41)"/><path class="cls-5" d="M302.82,404.51l-13.54-7.93c-3.63-2.12-3.63-5.56,0-7.68h0a14.31,14.31,0,0,1,13.14,0L316,396.82c3.63,2.12,3.63,5.56,0,7.69h0A14.37,14.37,0,0,1,302.82,404.51Z" transform="translate(185.6 150.41)"/><g class="cls-6"><polygon class="cls-5" points="483.75 150.43 185.15 150.43 185.15 394.68 263.18 350.99 261.59 322.18 393.47 226.05 412.54 189.26 483.75 150.43"/><polygon class="cls-4" points="2105.48 311.04 2105.48 602.39 1766.36 602.39 1801.96 545.65 1897.58 456.72 1897.58 427.45 2105.48 311.04"/><path class="cls-4" d="M1964.82,147.73l-261.52,153c-7.91,4.62-20.73,4.62-28.63,0h0c-7.91-4.63-7.91-12.13,0-16.75l261.52-153c7.91-4.63,20.73-4.63,28.63,0h0C1972.73,135.6,1972.73,143.1,1964.82,147.73Z" transform="translate(185.6 150.41)"/><path class="cls-4" d="M1645.72,334.39l-41.4,24.22c-7.91,4.62-20.73,4.62-28.63,0h0c-7.91-4.63-7.91-12.13,0-16.75l41.4-24.22c7.91-4.62,20.73-4.62,28.63,0h0C1653.63,322.27,1653.63,329.76,1645.72,334.39Z" transform="translate(185.6 150.41)"/><path class="cls-4" d="M1857.06,269.68l-261.53,153c-7.9,4.62-20.72,4.62-28.63,0h0c-7.91-4.63-7.91-12.13,0-16.75l261.52-153c7.91-4.62,20.73-4.62,28.64,0h0C1865,257.56,1865,265.06,1857.06,269.68Z" transform="translate(185.6 150.41)"/><path class="cls-2" d="M1761.44,292.21,1492.77,449.37c-5.94,3.47-15.55,3.47-21.49,0h0c-5.93-3.47-5.93-9.09,0-12.56L1740,279.64c5.94-3.47,15.56-3.47,21.49,0h0C1767.37,283.11,1767.37,288.74,1761.44,292.21Z" transform="translate(185.6 150.41)"/><path class="cls-2" d="M1667.88,405.59,1399.21,562.75c-5.94,3.48-15.56,3.48-21.49,0h0c-5.93-3.47-5.93-9.09,0-12.56L1646.39,393c5.94-3.47,15.56-3.47,21.49,0h0C1673.81,396.49,1673.81,402.12,1667.88,405.59Z" transform="translate(185.6 150.41)"/><path class="cls-2" d="M422.87-60.43,194.67,73.06c-5.86,3.43-15.37,3.43-21.23,0h0c-5.86-3.43-5.86-9,0-12.41L401.65-72.84c5.86-3.43,15.36-3.43,21.22,0h0C428.73-69.42,428.73-63.86,422.87-60.43Z" transform="translate(185.6 150.41)"/><path class="cls-2" d="M281.08,69.51,50.55,204.37c-5.22,3-13.68,3-18.89,0h0c-5.22-3.06-5.22-8,0-11.06L262.19,58.46c5.22-3.05,13.68-3.05,18.89,0h0C286.3,61.51,286.3,66.46,281.08,69.51Z" transform="translate(185.6 150.41)"/><path class="cls-5" d="M252.16,64.18-24.52,226c-5.86,3.43-15.37,3.43-21.23,0h0c-5.86-3.43-5.86-9,0-12.42L230.94,51.76c5.86-3.43,15.36-3.43,21.22,0h0C258,55.19,258,60.75,252.16,64.18Z" transform="translate(185.6 150.41)"/><path class="cls-5" d="M593.38-135.43,316.7,26.42c-5.86,3.43-15.36,3.43-21.23,0h0c-5.86-3.42-5.86-9,0-12.41L572.16-147.84c5.86-3.43,15.36-3.43,21.22,0h0C599.24-144.41,599.24-138.86,593.38-135.43Z" transform="translate(185.6 150.41)"/><path class="cls-5" d="M116.7,190.35-160,352.21c-5.86,3.42-15.36,3.42-21.22,0h0c-5.86-3.43-5.86-9,0-12.42L95.48,177.94c5.86-3.43,15.36-3.43,21.22,0h0C122.56,181.37,122.56,186.93,116.7,190.35Z" transform="translate(185.6 150.41)"/></g><text class="cls-7" transform="translate(799.81 267.19) scale(1.71 1)">GEEK<tspan class="cls-8" x="90.74" y="0">4</tspan><tspan x="112.17" y="0">GEEK</tspan></text><g id="Produtos_Geeks" data-name="Produtos Geeks"><text class="cls-9" transform="translate(656.82 504.7) scale(1.71 1)">P<tspan class="cls-10" x="13.54" y="0">R</tspan><tspan class="cls-11" x="27.3" y="0">ODU</tspan><tspan class="cls-12" x="78.24" y="0">T</tspan><tspan x="90.2" y="0">OS GEEK </tspan><tspan class="cls-13" x="186.32" y="0">P</tspan><tspan x="197.72" y="0">A</tspan><tspan class="cls-14" x="213.29" y="0">R</tspan><tspan x="227.11" y="0">A</tspan><tspan class="cls-15" x="242.68" y="0"> </tspan><tspan class="cls-16" x="247.03" y="0">T</tspan><tspan x="258.99" y="0">ODO O B</tspan><tspan class="cls-14" x="353.1" y="0">R</tspan><tspan x="366.91" y="0">ASIL!</tspan></text></g><text class="cls-17" transform="translate(693.32 453.39) scale(1.71 1)">2019</text></svg>