<?xml version="1.0" encoding="utf-8"?>
<!-- Generator: Adobe Illustrator 22.0.0, SVG Export Plug-In . SVG Version: 6.00 Build 0)  -->
<svg version="1.1" xmlns="http://www.w3.org/2000/svg" xmlns:xlink="http://www.w3.org/1999/xlink" x="0px" y="0px"
	 viewBox="0 0 500 500" style="enable-background:new 0 0 500 500;" xml:space="preserve">
<style type="text/css">
	.st0{display:none;}
	.st1{display:inline;fill:#E0EDBD;}
	.st2{fill-rule:evenodd;clip-rule:evenodd;fill:#31B8B0;}
	.st3{fill-rule:evenodd;clip-rule:evenodd;fill:#24CAEF;}
	.st4{fill-rule:evenodd;clip-rule:evenodd;fill:#81D6D6;}
	.st5{fill-rule:evenodd;clip-rule:evenodd;fill:#FFFFFF;}
	.st6{fill-rule:evenodd;clip-rule:evenodd;fill:#FFE000;}
	.st7{fill-rule:evenodd;clip-rule:evenodd;fill:#92DED1;}
	.st8{fill-rule:evenodd;clip-rule:evenodd;fill:#FFA286;}
	.st9{fill-rule:evenodd;clip-rule:evenodd;fill:#23837D;}
	.st10{fill-rule:evenodd;clip-rule:evenodd;fill:#C2C2C2;}
	.st11{fill-rule:evenodd;clip-rule:evenodd;fill:#1C9EBB;}
	.st12{fill-rule:evenodd;clip-rule:evenodd;}
	.st13{fill-rule:evenodd;clip-rule:evenodd;fill:#7AED0A;}
</style>
<g id="BACKGROUND_1" class="st0">
	<rect class="st1" width="500" height="500"/>
</g>
<g id="OBJECTS">
	<g>
		<g>
			<g>
				<path class="st2" d="M176.4,357.6c1,0.7,1.6,1.5,2.3,2.1c0.6,0.5,1,1.2,1.8,1.4c0.3,0.1,0.5,0.4,0.8,0.7
					c0.7,0.7,1.4,1.5,2.1,2.2c0.5,0.5,1.1,0.9,1.6,1.3c0.8,0.6,1.5,1.3,2.3,2c0.8,0.8,1.6,1.6,2.4,2.3c0.8,0.1,1.2-0.3,1.2-0.9
					c0.2-1.3,0.7-2.6,0.8-4c0.1-1.6,0.5-3.1,0.8-4.7c0.1-0.5,0.1-1.1,0.2-1.6c0-1.2,0.1-2.3,0.4-3.5c0.4-1.6,0.5-3.2,0.7-4.9
					c0-0.1,0.1-0.2,0.2-0.3c0.3-0.1,0.4,0.1,0.5,0.3c1.7,3.6,3.8,7.1,5,10.9c0.4,1.3,1.2,2.4,1.8,3.7c0.5,1.1,2,0.9,2.4-0.1
					c0.2-0.5,0.5-1,0.6-1.5c0.4-1.3,0.9-2.5,2-3.5c0.2-0.2,0.4-0.3,0.5-0.5c0.8-1.8,2.3-3.1,3.5-4.7c0.1-0.2,0.3-0.4,0.5-0.5
					c0.6-0.6,1.3-1.2,2-1.8c0.1,0.2,0.1,0.4,0.1,0.6c0,1.1,0,2.1,0,3.2c0,1.3,0,2.6,0.3,3.9c0.2,0.7,0.2,1.5,0.2,2.3
					c0,4.5,0,9,0,13.5c0,0.8-0.1,1.5,0.3,2.3c0.1,0.2,0.2,0.5,0.1,0.7c-0.2,1.1,0,2.2,0.3,3.3c0.1,0.4,0.1,0.8,0.1,1.2
					c0,1.8-0.1,3.5-0.1,5.3c0,0.3,0,0.6-0.1,0.9c-0.5,1.3-0.4,2.7-0.4,4c0.1,2-0.2,4-0.8,5.9c-0.2,0.5-0.2,1-0.2,1.6
					c0,0.8,0,1.5,0,2.3c0,0.9-0.3,1.6-0.9,2.2c-0.5,0.4-0.7,0.9-1,1.4c-0.5,1-0.9,1.9-1.4,2.8c-0.8,1.3-1.9,2.4-3.3,3.1
					c-0.4,0.2-0.9,0.4-1.3,0.6c-0.5,0.3-1.1,0.4-1.7,0.4c-0.3,0-0.6,0-0.9,0c-2.2,0.3-4.2-0.3-6.2-1.1c-0.5-0.2-0.9-0.5-1.4-0.8
					c-1.2-0.8-2.4-1.7-3.6-2.5c-0.5-0.3-0.9-0.8-1.4-1.1c-0.7-0.3-1.2-0.8-1.5-1.4c-0.4-0.7-1.1-1.2-1.8-1.6
					c-0.5,0.2-0.6,0.5-0.4,0.9c0.1,0.3,0.3,0.6,0.5,1c-1.7,0.2-3.2-0.1-4.6-0.6c-0.6-0.2-1.2-0.4-1.9-0.4c-0.4,0-0.8-0.2-1.2-0.3
					c-0.3-0.1-0.6-0.3-0.8-0.3c-2,0-3.7-0.9-5.5-1.4c-1.2-0.4-2.4-0.9-3.8-0.8c-0.2,0-0.5-0.1-0.7-0.1c-2.6-0.7-5.1-1.5-7.7-2.2
					c-0.7-0.2-1.4-0.4-2-0.6c-0.9-0.3-1.8-0.5-2.7-0.9c-1.4-0.7-2.8-1.1-4.3-1.5c-1.1-0.3-2.1-0.7-3.2-1.1c-1.3-0.4-2.6-0.8-3.8-1.4
					c-2.6-1.1-5.3-2-7.6-3.7c-0.9-0.7-2-1.3-2.9-2.1c-1.6-1.3-3.2-2.5-5-3.6c-1.4-0.9-2.7-2-3.5-3.4c-0.2-0.3-0.5-0.6-0.8-0.9
					c-2.9-2.7-5.1-6.1-7.2-9.4c-1-1.6-2-3.2-3.1-4.8c-0.5-0.7-0.9-1.4-1.1-2.2c-0.2-1-0.7-2-1.2-2.9c-0.6-1.2-1.1-2.5-1.3-3.8
					c-0.7-3.3-1-6.7-1-10c-0.1-3.3-0.1-6.5,0-9.8c0.1-1.8,0.4-3.6,0.6-5.5c0.2-1.5,0.4-3,0.7-4.6c0.2-0.9,0.4-1.9,0.6-2.8
					c0.4-1.4,0.7-2.7,1-4.1c0.6-2.6,1.2-5.2,1.9-7.7c0.1-0.3,0.3-0.6,0.4-1c0.2-0.7,0.5-1.2,0.2-2c-0.2-0.7,0.1-1.4,0.4-2
					c1-1.7,1.3-3.5,1.6-5.4c0-0.2,0-0.4,0.1-0.5c0.8-2.5,1.2-5.2,1.9-7.7c1.3-4.7,2.9-9.4,4.9-13.9c0.3-0.6,0.6-1.2,0.9-1.7
					c1.9-3.4,3.6-6.9,5.1-10.5c1.2-2.8,2.5-5.5,3.6-8.3c0.9-2.2,1.7-4.5,2.5-6.8c1-2.9,2.1-5.7,3.3-8.4c0.4-0.8,0.7-1.6,0.8-2.5
					c0.1-1.1,0.4-2.1,0.8-3.1c0.5-1.3,0.8-2.6,0.9-3.9c0.1-1.7,0.6-3.4,1.2-5c0.5-1.3,1.1-2.6,1.6-3.9c0.2-0.5,0.5-1,0.5-1.7
					c0-0.5,0.2-1,0.3-1.5c0.8-2.7,1.7-5.4,2.5-8.1c0.1-0.4,0.3-0.9,0.6-1.3c0.7-1,1.1-2.1,1.4-3.2c0.7-2.1,1.4-4.3,2-6.4
					c0.1-0.2,0.1-0.5,0.2-0.7c1-2.3,2-4.5,3-6.8c0.7-1.8,1.8-3.4,3-5c2.4-3.1,5-6,8.3-8.2c1.3-0.9,2.4-1.9,3.5-3
					c1.8-1.7,3.8-3,5.9-4.2c0.4-0.2,0.9-0.4,1.3-0.5c1.3-0.3,2.5-1.1,3.8-1.2c0.2,0,0.3-0.1,0.5-0.2c0.9-0.5,1.8-0.9,2.8-0.8
					c0.6,0,1.2-0.4,1.8-0.7c0.8-0.4,1.6-0.8,2.5-0.7c0.4,0,0.9-0.2,1.4-0.3c0.6-0.2,1.1-0.5,1.7-0.6c1.6-0.2,3-1,4.7-0.9
					c0.2,0,0.5-0.1,0.7-0.2c1.2-0.3,2.4-0.5,3.7-0.5c0.7,0,1.4,0,2.1,0c2.3,0.1,4.6-0.1,6.9-0.4c1.5-0.2,2.9-0.3,4.4-0.3
					c0.5,0,1.1-0.1,1.6,0.1c1.2,0.4,2.4,0.4,3.7,0.4c1.2,0,2.5,0,3.7,0c1,0,2-0.1,2.9,0.5c0.1,0.1,0.2,0.1,0.3,0.1
					c1.5-0.1,2.9,0.6,4.3,0.8c1.4,0.3,2.7,0.7,4.1,1c0.3,0.1,0.7,0.2,1,0.4c1,0.6,2,1.2,3.3,1.2c0.2,0,0.4,0.2,0.6,0.3
					c0.7,0.4,1.3,0.8,2,1.1c2.5,1.4,5.1,2.7,7.6,4.1c2.7,1.5,5.3,3.1,7.7,5c3.9,3.1,6.7,7,8.3,11.7c1.3,3.8,2.1,7.7,2.8,11.7
					c0.8,5.2,1.2,10.3,1.1,15.6c0,1.5,0,3,0,4.4c0,0.9-0.2,1.9-0.3,2.8c0,0.2-0.1,0.4-0.1,0.5c0,3.4-1.3,6.5-1.8,9.9
					c-0.4-0.2-0.6-0.3-0.8-0.5c-0.6-0.6-1.1-1.2-1.7-1.8c-0.6-0.7-1.3-1.2-2.3-1.5c-1.2,0.8-2.4,1.8-3.5,2.8c-1.1,1-1.6,2.4-2.6,3.5
					c-0.9-0.2-1.5-0.6-2-1.2c-1.5-1.5-2.9-3.1-4.4-4.6c-0.2-0.2-0.4-0.4-0.6-0.7c-1.2-1.3-2.5-2.4-4.6-2.6
					c-3.5,2.9-7.2,6.1-10.3,9.7c-0.8-0.1-1.4-0.6-1.9-1.1c-1.1-1.1-2.2-2.1-3.3-3.2c-1.2-1.2-2.4-2.3-3.6-3.4c-0.4-0.4-1-0.7-1.4-1
					c-1.1,0.5-1.8,1.2-2.7,1.9c-2.9,2.4-5.3,5.2-7.7,8.1c-0.4,0.5-0.8,0.9-1.2,1.3c-1.5-0.6-3.3-1.8-4.6-3c-1.4-1.3-2.8-2.7-4.2-4.1
					c-0.5-0.5-0.9-0.9-1.4-1.3c-1.4-1.1-3-1.3-4.6-0.4c-0.6,0.4-1.1,0.8-1.6,1.3c-2.6,2.6-4.9,5.3-6.4,8.7c-0.1,0.2-0.2,0.4-0.4,0.6
					c-0.7-0.2-1-0.7-1.4-1.1c-1-1.2-2-2.3-3-3.5c-0.8-0.9-1.5-1.8-2.3-2.7c-0.3-0.3-0.6-0.6-0.9-0.9c-0.3-0.2-0.7-0.3-1,0
					c-0.3,0.2-0.4,0.6-0.3,0.9c0.1,0.3,0.2,0.7,0.4,0.9c1.9,2.4,3.9,4.8,5.8,7.2c0.4,0.5,0.8,0.9,1.3,1.2c0.4,0.3,1,0.5,1.5,0.5
					c0.8,0.1,1.4-0.2,1.7-0.9c0.2-0.4,0.4-0.7,0.5-1.1c1.3-3.4,3.6-6.2,6.2-8.7c0.3-0.2,0.5-0.5,0.8-0.6c0.8-0.4,1.4-0.4,2.1,0.3
					c0.4,0.4,0.7,0.8,1.1,1.2c-0.1,1.2-0.4,2.4-0.8,3.6c-0.9,2.8-1.9,5.5-3.2,8.1c-0.6,1.3-1.3,2.7-1.9,4c-1.9,3.8-3.6,7.6-4.9,11.6
					c-0.4,1.3-1,2.5-1.6,3.7c-2.3,4.3-4.9,8.4-7.5,12.4c-0.6,0.9-1.5,1.5-2.3,2.2c-0.7,0.5-1.4,1.1-2,1.7c-0.5,0.5-0.7,1.1-0.7,1.8
					c-0.1,0.9,0.2,1.7,0.9,2.4c2,2,4.2,3.8,6.6,5.4c2.9,1.8,5.8,3.6,8.7,5.4c0.3,0.2,0.6,0.4,0.9,0.6c0,0.2,0,0.3-0.1,0.3
					c-1.4,0.9-2.9,1.9-4.4,2.7c-0.7,0.4-1.4,0.8-1.8,1.4c-1.5,2-3.8,3-5.9,4.1c-0.7,0.3-1.4,0.6-2.2,0.9c-0.5,0-1-0.3-1.3-0.7
					c-1.1-1.3-2.4-2.4-3.4-3.8c-1.1-1.4-2.1-2.8-3-4.4c-0.4-0.8-1.1-1.4-1.5-2.2c-0.4-0.6-0.7-1.4-1.1-2c-0.2-0.3-0.3-0.6-0.5-0.9
					c-0.9-1.5-1.8-2.9-2.7-4.4c-1.3-2-2.3-4.1-3.2-6.3c-0.7-1.6-1.5-3.2-2.2-4.9c-0.5-1.1-0.9-2.3-1.3-3.5c-0.1-0.4-0.3-0.8-0.5-1.1
					c-0.5-0.9-1-1.8-1.4-2.6c-0.1-0.3-0.3-0.5-0.4-0.8c-0.2-0.3-0.6-0.5-0.9-0.3c-0.3,0.2-0.5,0.5-0.6,0.8c-0.1,0.2,0,0.5,0,0.7
					c0.3,0.9,0.6,1.8,1,2.6c0.4,0.7,0.6,1.4,0.9,2.1c0.5,1.4,0.9,2.8,1.5,4.2c1.3,2.9,2.5,5.9,3.9,8.7c0.9,1.9,2.1,3.7,3.2,5.5
					c0.3,0.5,0.6,0.9,0.8,1.4c0.7,1.5,1.5,2.9,2.5,4.2c0.7,0.9,1.1,1.9,1.8,2.8c0.9,1.2,1.8,2.3,2.7,3.5c0.6,0.7,1.2,1.5,1.9,2.1
					c0.7,0.7,1.5,1.3,2.1,1.9c0.3,0,0.4,0.1,0.5,0.1c1.7,0.1,3.1-0.5,4.3-1.7c0.6-0.6,1.3-1,2-1.4c1.4-0.8,2.9-1.6,4.3-2.5
					c0.5-0.3,1-0.7,1.4-1c1.2-0.9,2.5-1.8,3.7-2.7c0.9-0.6,1.9-1.2,2.6-2.1c0.3-0.3,0.7-0.4,1-0.6c0.7-0.4,1.5-0.6,2.2-1.1
					c1.3-0.9,2.8-1.3,4.1-2c0.7-0.4,1.5-0.6,2.2-1c0.4,0.3,0.2,0.5,0,0.8c-0.6,1.1-1.3,2.1-2,3.2c0.6,0.5,1.1,0.9,1.7,1.4
					c0.4-0.2,1-0.3,1.4-0.5c1.5-0.9,3.1-1.5,4.7-2c0.2,0,0.3,0,0.5,0c-0.2,1.3-0.7,2.6-1.2,3.4c-0.2,0.3-0.4,0.6-0.5,0.9
					c-0.2,0.9-0.7,1.6-1.2,2.4c-0.4,0.6-0.5,1.2-0.4,1.9c0.2,1.1,1.3,1.7,2.3,1.1c0.9-0.5,1.8-1.1,2.7-1.7c0.3-0.2,0.6-0.5,1-0.7
					c0.6-0.2,1.2-0.4,1.9-0.6c0.4,0.6,0.3,1.3,0.2,1.9c-0.3,1.3-0.6,2.7-1,3.9c-0.7,1.9-1.5,3.7-3.3,4.9c-0.2,0.1-0.4,0.3-0.5,0.5
					c-1.4,1.5-3,2.9-4.8,4c-0.3,0.2-0.6,0.4-0.8,0.7c-0.5,0.9-1.4,1.4-2.2,2c-1.4,0.9-2.6,2.1-4,2.9c-0.3,0.1-0.5,0.5-0.7,0.7
					c-0.2,0.2-0.3,0.4-0.5,0.5c-2,1-3.5,2.8-5.3,4.1c-0.5,0.4-1,0.7-1.4,1c-1.1,0.9-2.3,1.7-3.3,2.6c-0.8,0.7-1.6,1.2-2.5,1.6
					c-1.3,0.6-2.7,1.2-4,1.9c-0.6-0.5-0.9-1.2-1.3-1.9c-0.4-0.7-0.7-1.5-1.1-2.2c-0.9-1.8-2-3.5-3.3-5.1c-0.6-0.8-1.3-1.6-1.9-2.3
					c-3.5-4.4-3.5-4.4-7.9-7.8c-2.1-1.6-4.4-2.8-6.6-4.1c-1-0.5-2.1-0.7-3.2-1.1c-2.6-1-5.2-1.5-7.9-1.9c-1-0.1-2-0.3-3.1-0.5
					c-0.7-1.1-1.4-2.2-2.2-3.3c-1.2-1.9-2.5-3.7-3.8-5.6c-0.3-0.5-0.7-1-0.9-1.5c-0.6-1.2-1.5-2.1-2.3-3.1c-0.1-0.1-0.2-0.2-0.3-0.2
					c-0.4-0.3-0.9-0.4-1.3-0.2c-0.4,0.3-0.6,0.9-0.4,1.4c0.1,0.3,0.4,0.6,0.6,0.9c1.2,1.8,2.4,3.6,3.6,5.5c1.1,1.8,2.2,3.6,3.4,5.4
					c0,0,0,0.1,0,0.2c-0.1,0.4-0.4,0.3-0.7,0.3c-2,0-4,0.1-6,0.1c-1.7,0-3.1,0.7-4.5,1.5c-0.7,0.4-1.2,1.3-1.8,1.9
					c-0.1,0.1,0.1,0.4,0.2,0.6c0.1,0.1,0.3,0.2,0.5,0.1c0.2-0.1,0.4-0.2,0.6-0.4c1.3-1.3,3-1.6,4.7-1.6c2.4,0,4.8,0.2,7.3,0.2
					c0.5,0,1,0,1.4-0.2c1.6-0.5,3.2-0.1,4.7,0.5c1,0.4,2,0.7,3,1c3.4,0.9,6.7,1.9,9.7,3.7c2.7,1.6,5,3.6,7.4,5.5
					c0.5,0.4,0.8,0.8,1.2,1.3c1.4,1.8,2.9,3.6,4.3,5.4c0.8,1,1.6,2.1,2.2,3.2c1,1.9,2.1,3.7,3.6,5.3c0.5,0.6,0.8,1.3,0.8,2.1
					c0,1.9,0.5,3.7,0.7,5.6c0.3,2.1,0.6,4.2,0.5,6.4c0,0.2,0,0.5-0.1,0.7c0,0-0.1,0.1-0.2,0.2c-0.2-0.1-0.4-0.2-0.5-0.3
					c-0.7-0.7-1.4-1.3-2-2c-0.7-0.7-1.3-1.3-2.2-1.8c-0.4-0.2-0.7-0.6-1.1-0.9c-0.3-0.2-0.5-0.5-0.8-0.7c-0.5-0.3-1.4-0.3-1.8,0.1
					c-0.5,0.5-0.6,1-0.4,1.6c0.6,1.6,0.9,3.3,1.2,5c0.5,2.4,1.3,4.7,1.9,7c0.1,0.4,0.2,0.8,0.4,1.2c1,2,1.5,4.1,2,6.2
					c0.3,1.4,0.7,2.9,1.1,4.3c0.1,0.3,0.2,0.7,0.2,1c0.2,1.3,0.3,2.6,0.5,3.8c0.1,0.3,0.2,0.7,0.4,1c0.3,0.8,0.6,1.5,0.7,2.4
					c0,0.7,0.4,1.2,1.1,1.5c0.7,0.3,1.4-0.2,1.3-0.9c-0.2-1.1-0.4-2.2-0.8-3.3c-0.5-1.5-0.8-3-1-4.5c-0.1-0.5-0.1-0.9-0.2-1.4
					c-0.6-2.2-1.2-4.3-1.8-6.5c-0.3-0.9-0.6-1.8-0.9-2.7c-0.3-1-0.9-1.9-0.6-3.1c0.1-0.4-0.3-1-0.5-1.5
					C177.5,363.3,176.6,359.6,176.4,357.6z M179.5,203.3c-0.2,0-0.3,0-0.4,0.1c-0.7,0.1-1,0.6-0.6,1.3c0.3,0.4,0.6,0.7,1,1
					c0.6,0.5,1.2,1,1.5,1.7c0.7,2,1.8,3.8,2.8,5.7c0.9,1.7,1.9,3.3,3.1,4.7c0.4,0.5,0.8,1,1.1,1.6c1.3,2.7,3,5.2,5.2,7.3
					c0.7,0.6,1.4,0.9,2.3,0.8c1.2-0.1,2.2-0.7,3-1.7c0.5-0.7,1-1.3,1.5-1.9c0.3-0.4,0.6-0.7,0.9-1.1c0.6-0.8,1.1-1.7,1.7-2.5
					c0.4-0.5,0.9-1,1.2-1.5c0.8-1.4,1.9-2.6,3.2-3.4c0.4-0.3,0.7-0.6,1-1c0.5-0.6,0.5-1.3-0.1-1.9c-0.3-0.3-0.8-0.6-1.2-0.8
					c-2.3-1.4-4.9-2.1-7.5-2.7c-1.2-0.3-2.4-0.6-3.5-1.2c-0.4-0.2-0.8-0.3-1.2-0.4c-3-0.7-6-1.3-8.8-2.5c-0.2-0.1-0.5-0.1-0.7-0.2
					c-1.6-0.2-3.1-0.5-4.6-1.2C180,203.3,179.7,203.3,179.5,203.3z M254.6,198.5c-1,0.2-1.9,0.5-2.7,1.1c-1.5,1.1-3.1,2.1-4.8,3
					c-1.9,1-3.6,2.2-5.4,3.3c-0.8,0.5-1.6,1-2.5,1.3c-1.1,0.3-1.8,1.1-2.4,2c-0.4,0.5-0.5,1.1-0.1,1.7c0.5,0.7,1,1.5,1.5,2.2
					c0.9,1.2,1.9,2.2,2.4,3.6c0.1,0.3,0.3,0.5,0.4,0.8c0.6,0.9,1.1,1.8,1.7,2.7c0.5,0.8,1.1,1.5,1.9,2.1c0.9,0.7,2,0.3,2.4-0.8
					c0.4-1.2,0.9-2.3,1.3-3.5c0.5-1.8,1.3-3.6,1.9-5.3c0.3-0.7,0.5-1.3,0.9-1.9c0.6-1,1.1-2.1,1.5-3.2c0.2-0.5,0.3-1,0.7-1.4
					c0.5-0.6,0.8-1.3,1.1-2c0.6-1.3,0.9-2.8,1.7-4.1c0.2-0.3,0.1-0.9-0.3-1.1C255.3,198.8,254.9,198.7,254.6,198.5z M208.9,396.6
					c0.1-2.6-0.5-5-1.4-7.4c-0.4-1-1.3-1.7-1.8-2.6c-0.7-1.2-2-1.7-3.2-1.9c-1.3-0.2-2.6,0-3.9,0.1c-0.7,0-1.2,0.3-1.7,0.9
					c-0.5,0.6-1,1.1-1.5,1.7c-0.2,0.2-0.3,0.5-0.4,0.8c-0.2,0.5-0.4,1.1-0.6,1.6c-0.4,0.8-0.8,1.6-1.2,2.4c-0.3,0.6-0.5,1.3-0.5,2
					c0,1.7,0.2,3.4,0.5,5.1c0.5,2.2,1.4,4.1,2.8,5.8c0.6,0.7,1.3,1.2,2.1,1.6c1.7,0.8,3.6,0.8,5.4,0.6c0.5,0,1-0.3,1.5-0.6
					c0.9-0.5,1.6-1.2,2-2.2C208.2,402.1,209.1,399.5,208.9,396.6z M168.8,251.5C168.8,251.5,168.8,251.5,168.8,251.5
					c0.1,0.3,0.1,0.6,0.1,0.9c0.1,1.2,0.5,1.5,1.7,1.5c1.1,0,2.1-0.4,3-0.9c0.7-0.4,1.4-0.9,2.2-1c1-0.2,1.8-0.9,2.8-1.1
					c0.9-0.2,1-1.3,0.2-1.9c-0.3-0.3-0.6-0.6-0.9-0.8c-0.4-0.3-0.8-0.8-1.2-1c-1.9-0.6-3.8-1.2-5.7-1.7c-0.8-0.2-1.5,0.3-1.6,1.2
					c0,0.4,0,0.7,0,1.1c0,0.6-0.1,1.2-0.2,1.8C169,250.1,168.9,250.8,168.8,251.5z M178.2,260.9c-0.5,0-0.8,0-1.2,0
					c-1.4,0.1-2,0.6-2,1.9c0,1.6,0,3.2,0,4.8c0,0.5,0.2,0.9,0.4,1.3c0.5,1.1,1.7,1.5,2.8,0.9c0.7-0.4,1.5-0.8,2-1.4
					c1-1.1,1.9-2.2,2.8-3.4c0.8-1.1,0.4-2.7-0.8-3.2C180.9,261.4,179.6,260.7,178.2,260.9z M221.4,224.2c0,0.9,0.5,1.8,1.4,2.4
					c0.4,0.3,0.9,0.3,1.3,0.1c0.5-0.3,0.8-0.7,0.7-1.3c0-0.3-0.2-0.7-0.4-1c-0.3-0.4-0.6-0.8-1-1.2c-0.4-0.4-0.8-0.7-1.4-0.5
					C221.7,222.8,221.4,223.2,221.4,224.2z M230.1,223.1c-0.1-0.2-0.2-0.5-0.4-0.7c-0.6-0.6-1.5-0.6-2,0.1c-0.4,0.5-0.8,1.1-1.1,1.8
					c-0.3,0.6,0.1,1.3,0.7,1.6c0.8,0.4,1.7,0.2,2.1-0.6c0.3-0.6,0.5-1.2,0.7-1.8C230.1,223.5,230.1,223.3,230.1,223.1z"/>
				<path class="st2" d="M219.4,314.2c0.5,0.2,0.9,0.3,1.3,0.4c2.7,1,5.4,2.1,8.1,3.1c4.4,1.7,8.9,3.2,13.1,5.3
					c0.9,0.5,1.9,1,2.8,1.5c0.2,0.1,0.3,0.3,0.5,0.5c-2.4,0.5-4.7,0.9-7,1.5c-1.8,0.4-3.5,1.2-4.7,2.6c-0.3,0.4-0.7,0.6-1,1
					c-0.1,0.2-0.2,0.6-0.1,0.8c0.1,0.3,0.5,0.4,0.8,0.2c0.6-0.3,1.2-0.5,1.7-0.9c1.4-1,3-1.7,4.7-1.9c1.3-0.2,2.5-0.5,3.8-0.8
					c0.9-0.2,1.9-0.3,2.8,0c0.6,0.3,1.2,0.3,1.9,0.1c0.8-0.3,1.5-0.1,2.2,0.3c2.3,1.2,4.7,2.3,6.7,3.9c0.3,0.2,0.6,0.4,0.8,0.7
					c0.4,0.7,1,1.1,1.7,1.6c0.9,0.7,1.8,1.4,2.9,1.9c1,0.4,1.7,1.1,2.3,2.1c0.8,1.3,1.9,2.5,2.5,4c0.1,0.4,0.3,0.8,0.4,1.2
					c0.3,0.9,0.5,1.8,0.8,2.7c0.1,0.3,0.2,0.7,0.2,1c0,0.8,0,1.6,0.2,2.5c0.1,0.3-0.1,0.7-0.2,1.2c-0.4-0.3-0.6-0.7-0.7-1
					c-1-2.4-2.1-4.8-3.1-7.2c-0.2-0.4-0.3-0.8-0.5-1.1c-0.5-0.8-1.4-0.9-2.1-0.3c-0.7,0.7-1.4,1.5-1.5,2.6c-0.1,0.7-0.4,1.3-0.8,1.9
					c-0.3,0.4-0.3,0.9-0.5,1.3c-0.1,0.3,0,0.6-0.2,0.9c-1.1,2.1-1,4.5-1.6,6.7c-0.6,2.2-0.9,4.5-1.4,6.8c-0.6,3.1-1.1,6.2-1.6,9.3
					c-0.6,3.4-0.6,6.8-0.4,10.3c0,0.4,0.1,0.8,0.2,1.2c0.2,0.5,0.6,0.8,1.1,0.7c0.5-0.1,0.8-0.4,0.8-1c0-1.4,0-2.8,0-4.3
					c0-3.9,0.6-7.6,1.5-11.4c0.1-0.4,0.2-0.8,0.3-1.2c0.5-3,0.9-6,1.5-8.9c0.2-1.1,0.7-2.2,0.8-3.3c0.2-1.9,1-3.6,1.4-5.5
					c0.2-0.9,0.9-1.8,1.3-2.7c0.4,0,0.5,0.3,0.6,0.6c1.3,3.3,2.6,6.6,3.8,9.9c0.4,1,0.5,2.2,0.8,3.3c0.1,0.3,0.2,0.7,0.4,1
					c0.7,0.8,2,0.7,2.5-0.3c0.4-0.8,0.7-1.6,1.1-2.4c0.5-0.9,0.9-1.9,1.5-2.8c2.1-2.9,4.2-5.7,6.4-8.5c0.7-0.9,1.4-1.8,2.3-2.3
					c0.5,0.1,0.5,0.5,0.5,0.7c0.1,0.9,0.2,1.9,0.2,2.8c0,2.3,0,4.6,0,6.9c0,0.9,0,1.8-0.1,2.7c-0.1,0.8-0.3,1.6-0.5,2.4
					c0.3,0.5,0.8,0.4,1.1,0.2c0.5-0.4,1-0.8,1.5-1.3c2.3-2.4,5.2-4,8.1-5.7c0.5,0.4,0.2,0.8,0,1.2c-1.6,5.5-3.3,11-4.8,16.5
					c-0.8,2.8-1.5,5.6-2.3,8.4c-1,3.7-2.2,7.4-3.8,10.9c-0.8,1.7-1.5,3.5-2.3,5.2c-0.8,1.9-1.9,3.4-3.7,4.4c-0.5,0.3-1,0.6-1.5,1
					c-1.2,0.8-2.5,1.4-3.9,1.7c-1.9,0.4-3.8,0.8-5.7,1.2c-4.8,0.9-9.4,0.3-13.9-1.4c-2.7-1-5.3-2.3-7.9-3.6
					c-1.6-0.8-3.2-1.8-4.8-2.6c-4.2-2.3-8.7-3.7-13.5-4.2c-2.1-0.2-4.3-0.1-6.4,0c-0.9,0-1.7,0.4-2.6,0.6c-0.1-0.1-0.2-0.2-0.1-0.3
					c0.4-1.5,0.3-3,0.3-4.6c0-1.9,0.2-3.8-0.5-5.6c-0.1-0.2,0-0.3,0-0.5c0.1-1,0.2-2,0.2-3c0-5.1,0-10.2,0-15.3
					c0-0.8-0.1-1.6-0.2-2.5c-0.2-1.2-0.3-2.3-0.3-3.5c0-1.8,0-3.7,0-5.5c0-1.2-1.1-2.4-2.7-2.1c-0.4,0.1-0.9,0.3-1.2,0.6
					c-0.4,0.4-0.6,0.8-0.9,1.3c-0.5,0.7-0.8,1.6-1.8,1.9c-0.2,0.1-0.3,0.2-0.4,0.3c-1,1.7-2.7,2.9-3.6,4.8c-0.1,0.3-0.4,0.6-0.6,0.9
					c-0.6,0.8-1.3,1.5-1.9,2.3c-0.1,0-0.3-0.1-0.3-0.2c-1.1-3.5-3-6.7-4.6-10c-0.4-0.9-0.8-1.7-1.2-2.6c-0.5-1.1-1.6-2.3-3.2-2
					c-0.8,0.1-1.4,0.5-1.4,1.4c0,1.1-0.6,2-0.6,3.1c0,1-0.4,2-0.5,3c-0.2,1.9-0.9,3.8-0.6,5.8c0,0.2,0,0.4,0,0.5
					c-0.5,1.9-0.7,4-1,5.9c0,0.2-0.1,0.3-0.2,0.5c-0.3-0.1-0.6-0.2-0.8-0.4c-0.8-0.8-1.6-1.6-2.4-2.4c-0.1-0.9-0.2-1.9-0.2-2.8
					c0.2-3.8-0.4-7.4-0.9-11.1c-0.1-0.7-0.3-1.4-0.5-2.1c-0.1-0.3-0.1-0.6-0.1-0.9c0.7-0.4,1.3-0.8,2-1.1c2-0.8,3.9-1.7,5.6-2.9
					c0.3-0.2,0.6-0.4,0.9-0.6c1.4-1.1,2.7-2.2,4.1-3.4c0.7-0.6,1.4-1.1,2-1.7c0.6-0.6,1.3-1.2,2.1-1.6c0.3-0.1,0.6-0.3,0.9-0.6
					c1.5-1.7,3.4-2.7,5.1-4.1c0.7-0.6,1.5-1.1,2.1-1.9c0.3-0.5,0.8-0.8,1.3-1.2c1.2-0.7,2.2-1.6,3.1-2.6c0.6-0.6,1.2-1.1,1.9-1.6
					c1.1-0.9,1.7-2.1,2.4-3.3c0.4-0.7,0.8-1.3,1.2-2c0.2-0.4,0.3-0.9,0.5-1.3C219.1,315.5,219.2,314.9,219.4,314.2z M278.1,385.2
					c0-1.2,0-2.5,0-3.7c-0.1-1.8-1-3.2-2.3-4.4c-0.3-0.2-0.7-0.4-1.1-0.4c-0.7,0-1.5,0-2.1,0.2c-1.2,0.5-2.7,0.4-3.7,1.5
					c0,0-0.1,0.1-0.2,0.1c-1.2-0.4-1.6,0.6-2.3,1.2c-1.1,1-2.1,2.1-2.5,3.5c-0.1,0.3-0.3,0.5-0.5,0.7c-0.7,1.1-1.1,2.3-1.1,3.7
					c0,0.9-0.1,1.8-0.1,2.7c0.1,1.9,0.4,3.8,1.8,5.2c0.2,0.2,0.4,0.6,0.6,0.9c0.3,0.6,0.7,0.9,1.3,1.1c0.6,0.2,1.3,0.3,1.9,0.6
					c1.7,0.6,3.4,0.2,5-0.4c0.6-0.2,1.1-0.6,1.6-1c0.5-0.4,0.8-0.8,1.3-1.2c0.5-0.5,0.8-1,1-1.6
					C278.2,389.7,278.2,389.5,278.1,385.2z"/>
				<path class="st2" d="M63.8,277.9c0,3.1,0,6.3,0,9.4c0,1.2,0.2,2.4,0.3,3.5c0.3,3.5,0.7,7.1,1.5,10.5c0.2,1.1,0.5,2.2,0.8,3.3
					c0.7,2.5,1.2,5.1,1.6,7.6c0.2,1,0.4,2,0.7,2.9c1.5,4.2,3,8.3,4.5,12.5c0.3,0.9,0.8,1.7,1.4,2.4c1.1,1.3,2.2,2.6,3.3,3.9
					c0.3,0.4,0.7,0.8,1.1,1.1c1.3,0.9,2.4,2.1,3.3,3.4c0.3,0.5,0.7,0.9,1.2,1.3c0.8,0.5,1.3,1.1,1.9,1.9c1,1.3,2.1,2.6,3.5,3.4
					c0.3,0.2,0.5,0.4,0.7,0.6c1.1,1.1,2.2,2.2,3.6,2.8c1.3,1.3,2.9,1.9,4.5,2.8c2.3,1.3,4.6,2.6,7.1,3.5c1.2,0.4,2,1.2,2.2,2.5
					c0.2,1.6,0.6,3.2,1.2,4.8c0.2,0.6,0.4,1.1,0.9,1.5c0.8,0.6,1.2,1.4,1.3,2.4c0.1,2,1.2,3.4,2.4,4.8c0.6,0.7,1.1,1.4,1.4,2.2
					c0.5,1.3,1.3,2.5,2.2,3.6c0.6,0.7,1.2,1.5,1.8,2.2c0.1,0.2,0.3,0.4,0.4,0.5c1.8,1.2,2.8,3.1,4.4,4.6c0.4,0.3,0.7,0.7,0.9,1.1
					c0.4,0.8,1.1,1.4,1.8,1.9c0.7,0.5,1.2,1.3,1.7,2c0.6,0.9,1.3,1.4,2.2,1.9c1.9,1.1,3.6,2.4,5.5,3.6c0.1,0.1,0.2,0.3,0.3,0.5
					c-0.7,0.5-1.4,0.8-2.3,0.8c-0.8,0-1.7,0-2.5,0c-0.4,0-0.9-0.1-1.2,0.1c-1.9,0.6-3.8,0.4-5.6,0.4c-0.9,0-1.9,0-2.8,0
					c-0.9,0-1.9-0.2-2.8-0.3c-0.4,0-0.8-0.2-1.2-0.2c-1.7,0-3.3-0.4-4.9-0.9c-0.7-0.2-1.4-0.3-2.1-0.4c-3.5-0.4-6.8-1.6-10.2-2.3
					c-0.3-0.1-0.7-0.3-1-0.4c-5.9-2.9-11.7-6-17.3-9.4c-2.7-1.6-5.1-3.6-7.6-5.5c-0.5-0.3-0.9-0.8-1.3-1.2c-1-0.9-1.9-1.8-2.9-2.6
					c-1.5-1.2-2.8-2.6-4-4c-2.9-3.3-5.2-7-7.5-10.8c-0.7-1.2-1.5-2.3-2.3-3.3c-0.5-0.7-1-1.5-1.2-2.3c-0.3-1.1-0.8-2.1-1.3-3.1
					c-1.7-3-3-6.2-3.5-9.6c-0.2-1.3-0.4-2.6-0.7-3.8c-0.2-1.3-0.4-2.6-0.3-3.9c0-3.7,0.1-7.3,0-11c-0.1-2.7,0.3-5.3,0.7-7.9
					c0.5-3.8,1.2-7.6,2.5-11.2c0.3-0.9,0.7-1.9,1.1-2.8c0.5-1.4,1.1-2.8,1.6-4.1c0.3-0.8,0.6-1.5,0.9-2.3c0.6-1.3,1.1-2.6,1.7-3.9
					c0.2-0.4,0.4-0.9,0.6-1.3c1.5-2.6,2.9-5.3,4.4-7.9C62.8,279.1,63.1,278.3,63.8,277.9L63.8,277.9z"/>
				<path class="st2" d="M282.7,261.2c-0.2-1.6-0.4-2.9-0.7-4.2c-0.3-1.2-0.9-2.3-1.5-3.4c-0.2-0.3-0.7-0.3-0.9,0.1
					c-0.5,1.1-1.3,1.8-2.1,2.6c-0.3,0.2-0.7,0.3-1.2,0.6c-0.2-1.2-0.6-2.2-0.6-3.2c0-1-0.4-2-0.7-2.9c-0.2-0.8-0.8-1.1-1.6-1
					c-0.9,0.1-1.6,0.5-2.2,1c-0.7,0.5-1.3,1-2,1.4c-0.3-1.2-0.5-3.2-0.2-4.4c0.4-1.8,0.3-3.5,0-5.3c-0.1-0.9,0-1.6,0.3-2.5
					c1.1-0.3,2.2-0.6,3.4-0.5c1.1,0,2.1,0,3.2,0c1.2,0,2.2,0.3,3,1.2c0.3,0.3,0.6,0.5,1,0.8c0.3,0.3,0.7,0.5,0.9,0.8
					c0.9,1.1,1.8,2.3,2.8,3.4c0.6,0.7,1.2,1.3,1.9,1.8c1,0.7,1.3,1.8,1.5,2.9c0.2,1,0.3,2,0.2,3c-0.1,1.3-0.5,2.6-1.4,3.6
					c-0.4,0.4-0.7,0.9-0.9,1.5C284.4,259.2,283.9,260.3,282.7,261.2z"/>
				<g>
					<path class="st3" d="M282.7,265.4c1.6-2.2,3.3-4.2,4.5-6.6c0.1-0.2,0.2-0.4,0.4-0.6c0.4-0.3,0.8-0.6,1.3-1
						c0.3,0.1,0.7,0.3,1.1,0.5c4.3,2.3,8.7,4.5,13,6.8c4,2.2,7.7,4.8,11.4,7.5c1.3,0.9,2.6,1.9,3.8,2.8c0.7,0.5,1.3,1.1,1.4,2.1
						c-0.4,0.9-1.4,1.4-2.1,2.3c-0.7,0.9-1.4,1.8-2,2.7c-0.6,0.9-1.1,1.8-1.8,2.8c-0.3-0.2-0.6-0.2-0.7-0.4
						c-0.5-0.7-1.2-1.2-1.9-1.6c-0.9-0.6-1.9-1.3-2.8-1.9c-0.5-0.3-1-0.6-1.4-1.1c-1.1-1.2-2.5-1.9-4-2.6c-1.9-0.9-3.8-1.9-5.7-2.8
						c-2.7-1.3-5.3-2.7-7.7-4.3c-2.1-1.4-4.2-2.8-6.3-4.2C283,265.7,282.8,265.5,282.7,265.4z M298.8,271.5c1.7,0.1,2.8-2.1,2.2-3.3
						c-0.9-1.9-2.1-2.4-3.9-1.3c-1,0.6-1.2,1.4-0.8,2.6c0.1,0.3,0.2,0.5,0.4,0.8C297.1,271.1,297.8,271.5,298.8,271.5z M304.1,272.3
						C304.1,272.3,304.1,272.3,304.1,272.3c0,0.1,0,0.2,0,0.4c0.1,1.2,1.4,2.5,2.6,2.4c0.3,0,0.6-0.1,0.8-0.2c1-0.7,1.7-1.9,0.8-3.4
						c-0.3-0.5-0.8-0.9-1.3-1.2c-1.5-0.9-3,0.1-2.9,1.5C304.1,271.9,304.1,272.1,304.1,272.3z M312.4,279.3c0.5,0,0.6,0,0.7,0
						c1.1-0.1,1.8-0.5,1.9-1.4c0.2-1.2-0.3-2.1-1.4-2.5c-0.6-0.2-1.3-0.3-1.9-0.1c-0.8,0.2-1.2,0.8-1.3,1.7
						c-0.1,0.9,0.1,1.7,0.9,2.1C311.8,279.3,312.3,279.3,312.4,279.3z"/>
					<path class="st3" d="M273.1,252.2c0.1,0.3,0.3,0.5,0.3,0.8c-0.1,1.3,0.5,2.4,0.6,3.7c0.1,0.8,0.2,1.6,0.3,2.4
						c0.1,0.6,0.3,1.2,0.9,1.4c0.7,0.2,1.4,0,1.7-0.6c0.6-1.1,1.7-1.5,2.4-2.3c0.1-0.1,0.2,0,0.3-0.1c0.3,1.3,0.3,4-0.1,5.9
						c-0.4,0.2-0.7,0-1-0.2c-3.4-1.6-6.8-3.3-10.2-5c-1-0.5-1.9-1-2.8-1.5c-3.8-2.3-7.4-4.9-10.8-7.7c-3.8-3.2-7.7-6.2-12-8.8
						c-0.1-0.1-0.2-0.2-0.3-0.3c0.5-1,1.4-1.6,2.3-2.3c0.3,0.2,0.5,0.4,0.7,0.6c2.4,2.4,4.8,4.9,7.2,7.3c0.3,0.3,0.6,0.6,0.9,0.8
						c0.7,0.4,1.4,0.5,2.2,0.1c0.6-0.3,1.3-0.7,1.6-1.4c0.7-1.5,2-2.6,3.3-3.6c0.4-0.3,0.7-0.6,1.1-0.9c0.3,0.3,0.6,0.5,0.8,0.8
						c0.5,0.5,0.9,1.1,1.4,1.6c1.1,1.2,1.1,1.2,2.7,1.9c0.1,0.6,0,1.2-0.2,1.9c-0.1,0.5-0.2,1-0.3,1.6c0,2.1,0,4.3,0,6.4
						c0,0.1,0,0.1,0,0.2c0,0.7,0.2,1.3,0.9,1.6c0.7,0.2,1.3,0,1.8-0.5c0.5-0.5,0.9-1.1,1.3-1.6C271.2,253.3,271.5,252.9,273.1,252.2
						z"/>
				</g>
				<g>
					<path class="st4" d="M202.8,168.2c-1.1,0.3-2,0.1-2.9,0.1c-0.9,0-1.9-0.1-2.8,0.5c-0.2,0.1-0.6,0.1-0.9,0.1
						c-0.7,0.1-1.4,0.2-2.1,0.3c-0.1,0-0.2,0.1-0.3,0.1c-2-0.2-3.8,0.8-5.7,1.3c-0.4,0.1-0.8,0.2-1.2,0.3c-2,0.2-3.8,0.7-5.6,1.6
						c-0.1,0.1-0.2,0.1-0.3,0.1c-0.3-0.3-0.1-0.5,0-0.8c0.7-1.5,1.3-3,2.1-4.5c0.9-1.5,1.5-3.2,2.2-4.8c0.4-0.9,1-1.7,1.4-2.6
						c0.4-0.8,0.7-1.6,1-2.4c0.3-0.8,0.5-1.6,1.1-2.2c0.3-0.3,0.4-0.7,0.7-1c0.4-0.7,0.8-1.3,1.2-2c0.7,0.2,1.1,0.7,1.5,1.2
						c0.7,1,1.4,2.1,2.1,3c0.6,0.8,1.3,1.6,1.5,2.6c0,0.2,0.2,0.3,0.3,0.4c1.9,2.2,3.5,4.6,5,7.1
						C201.9,167.1,202.3,167.5,202.8,168.2z"/>
					<path class="st4" d="M175.9,174.7c-0.7,0.3-1.3,0.6-1.9,0.9c-0.6,0.3-1.1,0.7-1.6,1.1c-0.6,0.4-1.2,0.8-1.8,1.2
						c-0.3,0.2-0.6,0.5-0.9,0.6c-2.1,1-3.8,2.5-5.6,4c-1.2,1-2.5,2-3.5,3.1c-0.5-0.2-0.4-0.5-0.4-0.8c0-2.8,0-5.6,0-8.3
						c0-0.8-0.1-1.5-0.3-2.3c-0.8-2.9-1.2-5.8-1-8.8c0-0.2,0-0.4,0.1-0.5c0.2-0.7,1-1.1,1.7-0.7c1.2,0.7,2.4,1.4,3.6,2.2
						c1,0.7,2.1,1.2,3,2.2c0.2,0.2,0.5,0.4,0.7,0.5c2,1,3.6,2.4,5.4,3.7c0.4,0.3,0.8,0.7,1.2,1C175,174.1,175.4,174.4,175.9,174.7z"
						/>
					<path class="st4" d="M147.9,208c-0.3,1.6-1.1,4.2-1.7,5.1c-0.6,0.9-0.9,1.8-1.1,2.8c-0.6,2-1.1,4.1-1.7,6.1
						c-0.2,0.8-0.7,1.5-1.2,2.3c-1.6-0.9-3.1-1.8-4.3-3.1c-0.7-0.8-1.5-1.5-2.3-2.2c-1.3-1.2-2.7-2.3-4-3.5
						c-0.2-0.2-0.4-0.5-0.6-0.7c-0.4-0.5-0.9-0.9-1.4-1.4c-0.4-0.4-0.7-0.9-1.2-1.4c0.6-0.3,1.1-0.5,1.6-0.6c1.9-0.5,3.8-1,5.7-1.4
						c1.2-0.3,2.4-0.5,3.6-0.8c2.2-0.4,4.4-0.8,6.6-1.2C146.4,207.9,147.1,208,147.9,208z"/>
					<path class="st4" d="M157.8,188.6c-0.3,0.5-0.5,0.8-0.8,1.2c-0.7,1-1.5,2-2.2,3c-1.5,2.2-2.6,4.6-3.6,7.1
						c-0.5,1.2-1,2.4-1.7,3.5c-0.9-0.5-1.4-1.2-1.8-2c-0.6-1.1-1.2-2.2-1.8-3.2c-0.3-0.6-0.7-1.3-0.9-1.9c-1.5-3.2-2.9-6.4-4.4-9.7
						c-0.4-0.8-0.7-1.6-0.8-2.6c0.4,0,0.7-0.1,1,0c3.8,1.3,7.8,1.8,11.7,3C154.2,187.5,155.9,188.1,157.8,188.6z"/>
					<path class="st4" d="M117.3,290.5c-3.5-4.6-6.5-9.2-10-13.7c1.8-0.6,3.3-1.2,4.9-1.7c1.6-0.5,3.1-1.1,4.7-1.6
						c1.5-0.5,3.1-0.9,4.6-1.3c1.6-0.4,3.1-0.9,4.9-1.4c-0.2,0.5-0.3,0.9-0.4,1.2c-0.9,1.7-1.7,3.5-2.7,5.2
						c-2.1,3.7-3.8,7.6-5.3,11.6C117.8,289.3,117.6,289.7,117.3,290.5z"/>
					<path class="st4" d="M135.9,247.9c-1.2-1-2.2-2-3-3.1c-0.3-0.3-0.4-0.7-0.7-1c-2.2-2.2-4-4.8-6.3-6.9c-0.6-0.5-1.1-1-1.3-1.9
						c3.2-1.4,6.2-3.4,9.6-4.3c1.5-0.4,2.9-1,4.3-1.5c0.7-0.3,1.4-0.5,2.3-0.8c0,0.4,0.1,0.7,0.1,0.9c-0.2,0.8-0.3,1.6-0.7,2.4
						c-0.5,1.2-0.7,2.4-0.9,3.6c-0.2,1.9-0.6,3.8-1.3,5.6c-0.2,0.4-0.3,0.8-0.3,1.2c-0.2,1.9-1,3.6-1.4,5.4
						C136.2,247.6,136.1,247.6,135.9,247.9z"/>
					<path class="st4" d="M127.6,268c-1.3-1.4-8.1-10.9-9-12.8c0.1-0.4,0.4-0.4,0.7-0.4c3.6-0.6,7.2-1.6,10.6-2.8
						c1.2-0.4,2.3-1,3.4-1.4c0.4-0.2,0.8-0.3,1.3-0.5c-0.1,1.1-0.3,2.1-0.6,3c-1,2.7-1.9,5.3-3,8c-0.9,2.2-2,4.4-3.1,6.6
						C127.9,267.8,127.7,267.9,127.6,268z"/>
					<path class="st4" d="M101.9,300c0.1-0.6,0.5-0.9,0.9-1.1c0.8-0.3,1.7-0.5,2.5-0.8c1.1-0.3,2.2-0.5,3.2-0.8
						c0.2-0.1,0.4-0.2,0.7-0.3c1.8-0.7,3.5-1.5,5.3-1.9c0.4-0.1,0.9-0.4,1.4-0.6c0.1,1.5,0.3,2.7-0.3,4.1c-0.6,1.4-0.8,3.1-1,4.6
						c-0.2,1.7-0.6,3.4-1.5,4.8c-0.2,0.3-0.3,0.7-0.5,1.2c-0.8-0.2-1.4-0.8-2-1.3c-0.9-0.9-1.9-1.8-3-2.5c-0.6-0.4-1-0.9-1.6-1.4
						c-0.7-0.7-1.3-1.4-2.2-1.8c-0.3-0.1-0.5-0.5-0.7-0.7C102.7,301.1,102.3,300.6,101.9,300z"/>
					<path class="st4" d="M107.7,329.6c-0.7,0.1-1.1-0.2-1.5-0.6c-0.5-0.5-1.1-1.1-1.6-1.6c-0.9-0.9-1.9-1.7-2.9-2.5
						c-1.1-0.8-2.2-1.6-3-2.7c-0.4-0.5-1.1-0.9-1.7-1.4c0.2-0.2,0.3-0.5,0.5-0.5c3-1,5.8-2.2,8.7-3.4c1.8-0.7,3.6-1.5,5.5-2.2
						c0,0.3,0,0.6-0.1,0.8c-0.4,1.8-0.8,3.7-1.3,5.5c-0.1,0.4-0.2,0.8-0.3,1.2c-0.1,0.9-0.4,1.6-0.9,2.3c-0.6,0.8-0.8,1.7-1,2.6
						C108,327.9,107.8,328.7,107.7,329.6z"/>
					<path class="st4" d="M106.3,352.3c-0.5-0.6-1-1.2-1.6-1.9c-0.4-0.5-0.8-1-1.2-1.5c-1.2-1.9-3-3.2-4.1-5.1c-0.2-0.4-0.6-0.7-1-1
						c-0.8-0.6-1.1-1.4-0.8-2.5c1.2-0.9,2.6-1.9,4-2.7c1.4-0.7,2.9-1.4,4-2.5c0.1-0.1,0.3-0.2,0.5-0.3c0.1,0,0.2,0,0.3,0
						c0.2,0.8,0.2,0.8,0.1,2c-0.1,0.8-0.1,1.5-0.1,2.3c0,0.7,0,1.4,0,2.1c0,0.8,0,1.5,0,2.3c0,0.7,0,1.4,0,2.1c0,0.7,0,1.4,0,2.1
						c0,0.8,0,1.5,0,2.3c0,0.7,0.1,1.4,0.1,2.1C106.5,352.2,106.4,352.2,106.3,352.3z"/>
					<path class="st4" d="M81.1,303.7c-1.1,1-1.6,2.2-2.7,3c-1,0.6-1.7,1.6-2.5,2.5c-1,1.1-1.8,2.3-2.8,3.4
						c-0.6,0.6-1.3,1.2-1.9,1.8c-0.4-0.2-0.5-0.7-0.6-1c-0.2-0.7-0.3-1.4-0.4-2.1c-0.4-2.3-0.9-4.6-1.6-6.9
						c-0.2-0.6-0.4-1.2-0.4-1.9c0.3,0,0.6-0.1,0.9-0.1c1.6,0,3.2,0.1,4.8,0C76.3,302.3,78.6,302.9,81.1,303.7z"/>
					<path class="st4" d="M83.9,316.8c-0.2,1-0.6,1.8-1.6,2.2c-0.6,0.3-0.9,0.7-1.3,1.2c-1.2,1.4-2.2,2.9-3.5,4.2
						c-0.3,0.3-0.5,0.7-0.7,1c-0.3,0.5-0.6,1-1.2,1.3c-0.7-1-2.9-6.8-3.6-9.5c0.3-0.7,0.7-1,1.5-1c2.7,0.1,5.4,0.1,8.1,0.1
						C82.5,316.2,83.2,316.2,83.9,316.8z"/>
					<path class="st4" d="M67.3,298.4c-0.6-1.6-1.4-6.7-1.3-9c0.2-0.1,0.5-0.3,0.8-0.5c1.2-0.4,2.4-0.7,3.4-1.4
						c0.2-0.1,0.4-0.2,0.7-0.2c0.4-0.1,0.8-0.2,1.2-0.3c0.5-0.1,0.9-0.1,1.4-0.2c0.4-0.1,0.7-0.4,1.2-0.2c-0.4,1-0.9,1.8-1.5,2.6
						c-0.6,0.8-1,1.7-1.5,2.6c-0.9,1.7-1.9,3.2-3,4.8C68.4,297.3,67.8,297.8,67.3,298.4z"/>
					<path class="st4" d="M87.6,329.7c-0.3,1.2-0.6,2.4-1.3,3.4c-0.6,0.8-0.9,1.6-1.1,2.6c-0.1,0.5-0.1,1.1-0.8,1.4
						c-2.3-2.4-4.9-4.6-6.9-7.4c0.2-0.1,0.3-0.2,0.4-0.2c3.1,0,6.1,0,9.2,0.1C87.2,329.5,87.3,329.6,87.6,329.7z"/>
				</g>
				<path class="st2" d="M63.9,278c0-0.1,0-0.2,0-0.3c0.1,0,0.1,0.1,0.2,0.1C64,277.8,63.9,277.9,63.9,278
					C63.8,277.9,63.9,278,63.9,278z"/>
				<path class="st5" d="M297.1,243.3c0.2,1,0.9,2,0.5,3.1c-0.2,0.1-0.4,0.1-0.5,0.1c-1.8,0-3.5,0.1-5.3,0.1c-0.5,0-0.9-0.1-0.9-0.9
					c0.7-0.3,1.4-0.7,2.2-1c0.8-0.4,1.7-0.8,2.5-1.3C296,243.1,296.5,243,297.1,243.3z"/>
				<path class="st6" d="M206.2,213.5c-0.6,0.5-1.3,0.9-1.8,1.4c-2,1.8-3.6,3.9-5.3,5.9c-0.5,0.6-1.1,1.3-1.6,1.9
					c-0.4,0.5-0.9,1.1-1.3,1.6c-0.4,0.5-1,0.6-1.4,0.2c-0.7-0.7-1.5-1.3-2.1-2.2c-0.9-1.5-2.1-2.7-2.6-4.4c-0.1-0.4-0.5-0.8-0.8-1.2
					c-1.4-1.6-2.7-3.3-3.6-5.2c-0.3-0.7-0.8-1.3-1.2-2c-0.5-0.8-0.8-1.6-0.7-2.6c1.1-0.4,2.1-0.1,3.1,0.4c2.1,1,4.4,1.4,6.6,2
					c0.5,0.1,1.1,0.2,1.5,0.4c1.1,0.6,2.3,0.8,3.5,1.1c2,0.4,3.9,0.8,5.8,1.5C204.9,212.7,205.6,212.8,206.2,213.5z"/>
				<path class="st6" d="M252.2,201.8c-0.1,1.1-0.3,2.1-1,2.9c-0.4,0.5-0.7,1.2-0.9,1.9c-0.4,1.1-0.8,2.1-1.4,3
					c-0.4,0.6-0.6,1.3-0.9,1.9c-0.7,1.9-1.2,4-2.2,5.8c-0.2,0.4-0.2,0.9-0.4,1.4c-0.1,0.2-0.3,0.3-0.5,0.7c-0.7-1.7-1.9-2.9-2.7-4.5
					c-0.5-1.1-1.4-2-2.2-3c-0.1-0.2-0.3-0.3-0.5-0.5c-0.9-1-0.9-1.5,0.4-2.1c2.6-1.1,4.9-2.8,7.3-4.3c0.8-0.5,1.6-1.2,2.6-1.5
					c0.4-0.2,0.8-0.5,1.2-0.8C251.5,202.4,251.8,202.1,252.2,201.8z"/>
				<path class="st7" d="M206.7,396.2c0.2,2.5-0.5,4.8-1.6,6.9c-0.3,0.5-0.7,1-1.1,1.4c-0.2,0.2-0.6,0.4-0.9,0.4
					c-1.1,0-2.1,0.1-3.2-0.2c-1.1-0.4-2-1-2.6-2c-0.8-1.3-1.4-2.7-1.7-4.2c-0.3-1.3-0.6-2.5-0.5-3.8c0-0.5,0.1-1.1,0.3-1.5
					c0.7-1.6,1.5-3.1,1.9-4.7c0.3-1.2,1.3-1.4,2.3-1.5c0.9-0.1,1.8-0.2,2.6-0.3c0.6-0.1,1.1,0.2,1.4,0.6c0.8,1.2,2,2.2,2.2,3.8
					C206.3,392.7,207,394.5,206.7,396.2z"/>
				<path class="st5" d="M171.4,247.9c1.9-0.1,3.3,0.7,5,1.1c-0.2,0.3-0.3,0.7-0.5,0.7c-1.4,0.4-2.6,1.2-4,1.8
					c-0.2,0.1-0.5,0.1-0.8,0.2C170.8,250.3,171.7,249.2,171.4,247.9z"/>
				<path class="st5" d="M176.8,262.7c1.6-0.1,3.2-0.5,4.4,1.2c-1.1,1.7-2.2,3.4-4.2,4.3c-0.1-0.2-0.3-0.3-0.3-0.5
					C176.7,266,176.6,264.4,176.8,262.7z"/>
				<path class="st8" d="M250.8,304.2c0,0.5,0,0.9,0,1.4c0,0.7,0,1.4-0.4,2c0,1.4-1.1,2.3-1.4,3.6c-0.1,0.5-0.6,0.8-1.1,1
					c-0.8,0.3-1.5,0.7-2.3,0.9c-1,0.3-2.1,0.2-3.1,0c-0.3-0.1-0.7-0.3-1-0.3c-2.3-0.1-4.3-1.2-6.2-2.3c-1.1-0.6-2.2-1.2-3.3-1.7
					c-1.4-0.7-2.5-1.8-3.3-3.1c-0.3-0.5-0.6-0.9-0.8-1.4c-0.9-1.7-1.1-4.7-0.1-6.3c0.9-1.5,2.2-2.6,4.1-2.7c0.4,0,0.8,0,1.2-0.1
					c2.9-0.9,5.8-1,8.8-0.9c1.2,0,2.4,0.5,3.5,1.1c0.1,0.1,0.3,0.2,0.4,0.3c1.9,0.5,3,2.1,4.2,3.4c0.7,0.7,1,1.8,1,2.9
					C250.9,302.7,250.8,303.4,250.8,304.2C250.8,304.2,250.8,304.2,250.8,304.2z"/>
				<path class="st5" d="M219.5,275.2c-0.2-2.6,0.8-4.8,2.1-6.8c1-1.6,2.3-2.9,3.6-4.1c0.9-0.8,1.9-1.1,3-1.3c3.1-0.4,5.7,0.5,8,2.5
					c1.7,1.5,2.7,3.4,2.9,5.7c0,0.5,0,0.9,0.1,1.4c0.3,2.1-0.4,4-1.5,5.7c-1.8,2.8-3.9,5.2-6.9,6.6c-1.6,0.8-3.2,1.1-5,1.1
					c-1,0-1.8-0.4-2.6-1c-1.7-1.6-2.8-3.5-3.3-5.8C219.7,277.9,219.7,276.5,219.5,275.2z M227.4,269.1
					C227.4,269.1,227.4,269.1,227.4,269.1c0,0.2,0,0.5,0,0.7c0.1,0.7,0.3,1.4,0.8,1.9c0.6,0.6,1.3,0.7,2.1,0.5
					c0.7-0.2,1.1-0.8,1-1.7c0-0.8-0.1-1.5-0.3-2.3c-0.2-0.7-0.6-1.3-1.4-1.4c-1.4-0.2-2.3,0.5-2.3,1.9
					C227.4,268.9,227.4,269,227.4,269.1z"/>
				<path class="st5" d="M258.8,294c-0.3-2.1,0.8-3.9,2.1-5.7c1-1.2,1.8-2.6,2.7-3.9c0.6-0.8,1.2-1.6,1.9-2.3
					c0.3-0.3,0.8-0.5,1.3-0.6c1.4-0.2,2.8,0,4.2,0.4c0.2,0.1,0.4,0.2,0.6,0.4c1.6,1.5,2.9,3.1,3.5,5.2c0.2,0.9,0.2,1.7,0.3,2.6
					c0.1,1.5-0.2,2.9-1,4.2c-0.4,0.7-0.7,1.6-0.9,2.5c-0.3,1.2-0.9,2.2-2.1,2.7c-0.3,0.1-0.5,0.3-0.7,0.5c-1.2,1.3-2.8,1.7-4.5,1.6
					c-0.4,0-0.8-0.1-1.2,0c-1.5,0.3-2.7-0.5-3.7-1.4c-1.4-1.4-2.6-3.1-2.5-5.3C258.8,294.7,258.8,294.4,258.8,294z M266,287
					C266,287,266,287,266,287c0,0.3,0,0.6,0,0.9c0.1,0.9,0.7,1.4,1.7,1.4c0.9,0,1.5-0.5,1.5-1.4c0-0.6,0-1.2-0.1-1.8
					c-0.2-0.8-0.9-1.2-1.7-1.2c-0.8,0.1-1.3,0.5-1.4,1.3C266,286.6,266,286.8,266,287z"/>
				<path class="st7" d="M275.8,384.9c0,0.3,0,0.6,0,0.9c0,3.5,0,3.5-1.2,6.7c-0.9,2.4-3.2,3.6-5.6,3.3c-0.6-0.1-1.1-0.3-1.7-0.4
					c-0.2-0.1-0.5-0.2-0.6-0.3c-1.2-1.4-2.4-2.8-2.5-4.7c-0.1-1.1-0.1-2.1-0.1-3.2c0-0.9,0.3-1.6,0.7-2.3c0.3-0.5,0.6-0.9,0.8-1.4
					c0.5-1.5,1.5-2.3,2.7-3.1c0.1-0.1,0.2-0.1,0.3-0.2c1-1.2,2.5-1.4,3.9-1.8c0.4-0.1,0.9-0.2,1.4-0.1c0.3,0,0.7,0.2,0.9,0.5
					c0.6,0.9,1.1,1.8,1.1,2.9C275.9,382.7,275.9,383.8,275.8,384.9C275.9,384.9,275.8,384.9,275.8,384.9z"/>
				<path class="st9" d="M281.1,252.8c-1.8-0.9-3.2-0.4-4.3,0.7c-0.5-2-0.9-3.9-2.7-5.3c-1.3-1-2.8-0.5-4,0.4c0.2-2.6,0.1-5.4-2-6.2
					c-0.1,0-0.2,0-0.3,0c0.2-0.4,0.2-0.8-0.1-1.3c-0.2-0.2-0.3-0.5-0.5-0.7c-0.2-0.3-0.5-0.4-0.8-0.4c-1.9-1.7-4.1-4.7-6.7-3.7
					c-2,0.7-3.7,3.2-4.3,5.5c-2.3-3.2-4.4-8.8-8.6-9.1c-5.5-0.5-9.6,6.1-12.7,10.2c-2.8-1.9-4.8-4.8-7.9-6.3
					c-1.8-0.9-3.7-0.4-5.3,0.5c-1.6,0.5-2.7,1.5-4,2.8c-1.3,1.3-2.5,2.8-3.8,4.2c-1.9,2-2.6,1.1-4.1-0.4c-2.4-2.5-5.3-8.2-9.6-7.1
					c-2.2,0.6-3.8,2.1-5.1,3.9c-1,1.4-1.9,2.8-2.8,4.2c-2.2,3.4-2,3.4-5,1.2c-1.2-0.9-6.2-6.5-7.9-4.2c-0.1,0.2-0.1,0.5,0.1,0.7
					c2.4,2.9,5.3,8.1,9.3,9.2c5.9,1.6,9.2-14.1,13.8-10.6c2.7,2.1,5.3,8.6,9.5,8.1c2.8-0.3,4.5-2.4,6.3-4.4c1.7-2,4.5-3.6,5.6-5.8
					c1.4,0,2.7,0.6,4.3,2c2,1.9,3.7,4,6.2,5.4c0.6,0.3,1.4,0.3,1.9-0.2c2.8-3.4,5.4-7.2,9.1-9.7c0.5-0.3,1.1-0.4,1.7-0.2
					c0.1,1.4,0.9,2.5,1.8,3.5c0.7,0.8,2.2,2.7,3.5,2.3c0.9,1.4,1.6,2.7,2.1,3.2c1.1,1.2,2.6,0.2,2.7-1.1c0,0,0.1-0.1,0.1-0.2
					c0.2-0.3,0.7-1.4,1.4-2.5c0,0.1,0.1,0.1,0.1,0.2c0.1,0.4,0.6,0.3,0.7,0c0-0.2,0.4-0.5,0.6-0.7c0.2-0.2,0.5-0.5,0.7-0.7
					c0.2-0.2,0.5-0.3,0.8-0.3c0.1,0,0.4,0.1,0.5,0.1c0.3,0,0.4-0.1,0.6-0.2c1.2,1.1,2.2,2.7,3.7,3.4c0.6,0.3,1.3,0.1,1.7-0.3
					c0,0.1,0,0.2,0,0.2c0.7,2.8-0.3,6.1-0.4,8.9c0,1.2,1.5,1.8,2.3,1c1.6-1.6,3.6-3.3,4.6,0.2c0.4,1.4,0.6,2.7,1.2,4
					c0.5,1,1.9,0.8,2.4,0c1.9-3.1,3.6-0.7,4.4,1.9c-0.1,1.2,0.2,2.4,0.6,3.8c0.4,1.6,2.5,1.1,2.7-0.4
					C285.6,259.3,284,254.3,281.1,252.8z"/>
				<path class="st9" d="M217.4,309.5c-1.8,0.1-3.4,0.6-5.1,1c0.3-2.4,1.3-4.7,1.4-7.2c0-0.8-0.6-1.3-1.4-1.4
					c-2.2-0.1-4,0.7-5.9,1.6c0.4-0.9,0.7-1.8,0.5-3c-0.1-0.6-0.9-0.9-1.4-0.8c-3.1,0.6-6.1,2.4-9,3.9c0-0.1,0-0.1,0-0.2
					c-0.2-1.1-1.6-1.6-2.6-1c-0.1,0.1-0.2,0.1-0.3,0.2c-0.2-0.5-0.6-1-1.3-1.2c-2.5-0.8-4.8-1.8-7.1-3.2c-2.4-1.5-4.1-3.8-6.3-5.5
					c-0.6-0.5-1.9-0.3-1.8,0.7c0.4,4.9,5.3,8.6,10,10.6c-2.2,1.3-4.3,2.8-6.5,4c-5,2.7-7.9-2.7-10.2-6.2c-2-3-4.2-6.1-6.2-9.3
					c-1.7-3.4-3.3-6.8-5-10.2c-0.2-0.6-0.4-1.1-0.5-1.7c-0.1-0.2-0.2-0.4-0.4-0.4c-0.3-0.7-0.7-1.4-1-2.1c-0.6-1.4-2.7-0.4-2.4,1
					c1.6,8.1,6.1,15.8,9.6,23.3c1.8,3.9,4.2,7.3,6.7,10.7c1.2,1.7,3,4.5,5.2,5c4.9,1.1,7.9-5.2,11.6-7.2c2-1.1,6.7-3,8.1-5.6
					c2.9-0.1,5.5-2.1,8.3-3c-0.3,0.8-0.8,1.6-1.1,2.4c-0.3,0.2-0.4,0.6-0.2,1c0.1,0.8,1.1,1.1,1.8,0.7c2,0.1,3.9-1.2,5.9-1.6
					c-0.5,2.5-1.6,4.9-1.3,7.5c0.1,0.9,0.8,1.6,1.8,1.3c2-0.5,4-1.3,6.1-1.4C219.2,312.2,219.2,309.4,217.4,309.5z"/>
				<path class="st9" d="M133.9,305.9C133.8,305.9,133.8,306,133.9,305.9C134,306,134,305.9,133.9,305.9z"/>
				<path class="st9" d="M235.4,329.9C235.3,329.9,235.3,330,235.4,329.9C235.5,330,235.5,329.9,235.4,329.9z"/>
				<path class="st9" d="M280.1,392.4c-2,0.6-3.1,1.9-4.9,3.1c-2.2,1.6-4.9,2.4-7.5,3.1c-6,1.6-11.6,0.5-17.5-1.1
					c-0.3-0.1-0.5-0.1-0.8,0c-4.9-2.8-9.2-6.5-14.7-8.5c-0.1,0-0.2-0.1-0.3-0.1c-3.3-2.6-6.9-4.8-9.5-8.3
					c-3.9-5.3-6.2-11.7-6.5-18.3c0,0,0,0,0,0c-0.2-5-0.5-10.1-1.8-15c-0.3-1.3-1.7-1.6-2.9-1.2c-4.8,2.1-8.1,6-11.2,10
					c-1.9-3.7-4-7.2-6.8-10.4c-0.4-0.4-0.8-0.5-1.2-0.4c0.6-1.3,1.5-2.5,2.5-3.6c0.1-0.1,0.2-0.2,0.3-0.3c3.7-2.2,7.2-5,10.4-7.6
					c6.2-4.9,10.5-10.6,11.8-18.1c2.4,2.5,5.7,4.5,9.2,6.2c-0.3,0.5-0.3,1.1,0.2,1.6c0.9,0.9,2,1.2,3.2,1.3
					c-0.3,0.9-0.7,1.7-0.9,2.6c-0.1,0.6,0.1,1,0.5,1.3c0.2,0.6,0.8,0.9,1.5,0.9c-0.2,0.9,0.1,1.8,1.1,2c2,0.3,4,0.1,6-0.3
					c2.6,0.1,5.3,0.1,7.9,0.6c0.1,0.3,0.2,0.5,0.5,0.6c3.2,1,5.6,3.2,8.1,5.3c0,1.9,0.4,3.7,0.7,5.5c0.4,2.4,0.4,4.9,0.5,7.3
					c-0.8,4.1-1.3,8.3-2.2,12.2c-1.2,4.8-4.3,13.4-1.9,18.1c0.4,0.8,1.6,0.7,2,0c1.3-2.2,1-4.9,1.4-7.4c0.5-3.8,1.4-7.5,2.3-11.2
					c1.4-5.6,2.3-11.5,2.9-17.3c0.7,1.5,1.4,3.1,2,4.5c0.7,1.8,1.1,4.7,2.6,6.2c0.1,0.4,0.2,0.9,0.2,1.2c0.1,1,0.1,1.9,0.1,2.9
					c-0.1,1.9,3.1,1.9,3,0c0-0.1,0-0.2,0-0.2c0-0.2,0.2-1,0-0.5c0.1-0.3,0-0.7-0.3-1c-0.2-0.7-0.4-1.4-0.7-2
					c-0.1-0.1-0.1-0.3-0.2-0.4c0.3-1,0.2-2.1-0.2-3.3c0.1-0.3,0.2-0.6,0.1-0.9c-0.1-0.8-0.3-1.5-0.6-2.3c0.1-0.1,0.1-0.3,0.1-0.4
					c0.4-6.3-3.8-11.5-8.4-15.3c-3.2-2.6-6.7-5.3-10.4-7.2c0.1-1.1-0.6-2.2-2-2.1c-0.8,0.1-1.8,0-2.9,0c0-0.8-0.4-1.7-1.5-1.9
					c-4.8-1-9.2-2.7-13.7-4.8c-3.3-1.5-6.6-3.5-10.2-4.1c0,0,0,0,0,0c0.1-0.6-0.6-0.8-1.1-0.6c-2.9,1.5-3.7,6.6-5.3,9.3
					c-2.6,1-4.7,4.2-6.5,6.1c-2.2,2.3-4.6,4.4-7.1,6.5c-0.6,0.4-1.2,0.8-1.8,1.2c-0.3,0.2-0.7,0.4-1,0.6c-0.1,0-0.3-0.1-0.4-0.1
					c-0.8,0-1.3,0.5-1.4,1.1c-3.1,1.7-6.4,3.2-9,5.3c-0.6,0.4-1.1,0.9-1.5,1.5c-1.5-4.3-3-8.2-6.1-11.8c-4-4.5-8.8-7.3-13.9-10.2
					c-4.7-2.7-12.7-7.3-19.1-6.6c0-0.1-0.1-0.2-0.1-0.3c-2.2-3.6-4.8-7.3-7.6-10.7c-0.5-1.2-1.1-2.3-2.4-2.7c-0.9-0.7-2.3,0.2-2,1.3
					c0.5,1.6,1.2,3,2,4.4c0.3,0.9,0.5,1.9,0.7,2.8c0.4,1.9,0.4,3-1,4.4c-0.4,0.4-0.8,0.8-1.2,1.2c-2,0.5-4,1.3-5.7,2.2
					c-1.6,0.8-0.9,3.7,1,3.5c0.3,0,0.6-0.1,0.8-0.1c4.9,0.7,9.8,0.4,14.7,0.7c6.2,0.3,11.3,2.5,16.6,5.7c4.4,2.7,8.6,5.7,12.5,9.2
					c1.4,1.3,2.6,2.7,3.7,4.1c0.7,2.9,1.5,5.7,2.2,8.6c0.8,3.6,0.7,7.6,2.3,10.9c0.2,0.3,0.6,0.4,0.9,0.4c0,0.2,0,0.4,0,0.6
					c-0.3-0.2-0.6-0.5-0.9-0.7c-2.2-1.8-4.3-4.1-6.8-5.6c-0.9-0.5-1.9,0.5-1.4,1.4c3.1,5.1,9.6,11,15.4,12.6c1.8,0.5,3-2.1,1.3-3.1
					c1.1-3.8,2.2-7.7,3.2-11.5c0.4-1.4,0.9-3.3,1-5.1c2.1,3.6,4.1,7.2,5.8,11c0.6,1.5,2.5,1,3.3,0c2.8-3.7,5.6-7.6,9.5-10
					c1.2,6.3,1,12.7,1.4,19.1c0.1,1.3,0.2,2.7,0.2,4c-0.1,0.3-0.2,0.6-0.2,1c0,0.2,0.1,0.3,0.1,0.5l0,0c0,0,0,0.1,0,0.1
					c0,0.3,0.1,0.5,0.2,0.7c0.1,1.2,0.1,2.5,0.1,3.7c-0.1,0.2-0.2,0.4-0.2,0.7c-0.7,1.3-1,2.8-1.3,4.2c-0.2,0.7-0.3,1.5-0.4,2.3
					c-1,2.2-1,5-1.5,7.3c-0.6,3.5-1.6,7.1-3.2,10.3c-3.6,7.3-9.4,5.2-15.2,2.7c-3.4-3.6-11.5-5.2-15.4-6.1c-9.1-2-17.9-3.8-26.7-7.2
					c-8.3-3.2-16-7.3-22.7-13.1c-0.7-0.6-1.5-1.3-2.3-1.9c-2.3-2.4-4.3-5-6.4-7.6c-2.1-2.7-4.5-5.1-6.5-7.7c0-0.1-0.1-0.1-0.1-0.2
					c-0.1-0.3-0.3-0.5-0.5-0.6c-0.6-0.7-1.1-1.5-1.6-2.3c-0.5-1.2-0.8-2.4-1-3.8c-0.1-0.6-0.6-0.8-1.1-0.8c-0.1-0.3-0.2-0.7-0.3-1
					c0.6-0.9,0.2-2.4-1.2-2.4c-1.4,0-1.8,1.7-1.1,2.5c0,0.1,0,0.3,0,0.4c-0.3,0.1-0.5,0.4-0.6,0.7c-1.8,8,4.5,16.7,8.7,23.4
					c0.1,0.4,0.1,0.8,0.1,1.3c0.3,3.5-1.5,9.4-5.7,9.7c-3.1-0.7-6.2-1.7-9.2-2.8c-12.5-4.7-25.9-14-33.9-24.8
					C58.6,353.1,51.1,340,49,327.1c-0.2-1.1-2-1.1-2.2,0c-1.3,7.1,1.9,13.9,5,20.1c3.5,7,7.1,14.3,12.1,20.3
					c10.1,12.2,24.6,21.8,39.7,26.8c7.1,2.4,14.2,2.5,21.6,3c3.3,0.3,8.8,1.5,11.7-0.9c1.3,0.5,2.6,1,3.9,1.3
					c2.5,0.7,7.1,2.1,9.9,0.9c6.3,2.4,12.8,4.3,19.4,5.6c4.5,0.9,9,1.7,13.3,3.3c1.7,0.6,3.4,1.6,5.3,2.4c6.6,4.5,16.4,5.9,21.7-0.2
					c2.8-3.3,4.3-7.9,5-12.1c0.3-1.5,0.6-3.1,0.7-4.9c0.3,0,0.6-0.1,0.9-0.3c4.2-2.4,10.4-1.8,15.5-0.2c1.4,1,2.8,2,4.1,3
					c0.9,0.6,1.7,0.3,2.2-0.5c5.2,2.8,9.4,7.1,15.2,8.8c1.2,0.3,2-0.3,2.2-1.2c0.9,0.3,1.8,0.5,2.7,0.7c3.2,0.6,6.8-0.1,10.1-0.7
					c4.7-0.9,12-3.7,12.6-9.1C281.5,392.7,280.7,392.2,280.1,392.4z M138.3,393.7c0-0.3,0-0.5,0-0.8c1,0.6,2,1.1,3.1,1.6
					C140.3,394.4,139.3,394.1,138.3,393.7z"/>
				<path class="st10" d="M259.4,253.9c-2.1-2.2-4.8-3.7-7.3-5.4c-3.2-2.1-5.7-4.8-8.5-7.4c-0.2-0.2-0.6-0.1-0.6,0.2
					c-0.4-0.3-0.8-0.6-1.1-1c-0.5-0.4-1.1-0.5-1.7-0.2c-2.1,1.2-5.3,4-5.1,6.8c-2,1.9-9-7.3-10.9-8.3c-0.7-0.4-1.6-0.2-2,0.5
					c-1.3,2.2-3.1,3.7-4.8,5.4c-0.5-0.2-1-0.1-1.4,0.3c-2.2,2.6-4.1,5-7.6,4.2c-0.1-0.3-0.2-0.5-0.4-0.7c-1.7-1.7-2.7-3.9-4.9-5.1
					c-0.7-0.4-1.6-0.1-1.8,0.7c-0.4,1.9-0.8,3.9-1.3,5.8c0,0.1-0.1,0.3-0.1,0.4c-0.2,0.3-0.4,0.6-0.6,0.9c-0.2,0.5-0.2,0.9,0,1.3
					c-0.1,0.5-0.3,1.1-0.4,1.6c-0.6,0.8-1.1,1.7-1.4,2.7c-0.1,0.4,0.4,0.7,0.7,0.4c0.7-0.8,1.2-1.6,1.8-2.4c0.2-0.2,0.4-0.5,0.6-0.7
					c0.1,0.4,0.6,0.8,1,0.6c1.2-0.4,2.1-1.3,3-2.2c0.5,0.8,1.8,1.1,2.5,0.1c0.3-0.4,0.4-0.8,0.6-1.3c2.4,1.5,5.4,0.7,7.6-1.2
					c-0.2,1.5-0.6,2.9-1.2,4.2c-0.9,1.9-2.8,3.4-2.2,5.7c0.2,0.7,1.1,0.9,1.6,0.4c1.3-1.3,2.9-3.9,3.5-5.7c0.6-1.8,0.9-3.6,1-5.4
					c0.1,0.1,0.3,0.3,0.4,0.4c0.9,0.7,1.9,1.5,2.9,2.1c1.6,1,3-1.5,1.5-2.5c-0.8-0.5-1.7-1-2.5-1.5c-0.4-0.2-0.9-0.5-1.3-0.7
					c-0.2-0.1-0.6-0.2-0.8-0.4c0-0.1,0-0.2,0-0.3c2.3-0.7,4.1-2.6,5.5-4.6c3.4,2.9,8.5,10.4,12.3,8.4c0.5,1.2,1.2,2.2,2.2,3.1
					c1.5,1.3,3.7-0.8,2.2-2.2c-1.3-1.1-2-2.6-2-4.4c0-0.4-0.2-0.8-0.4-1c0.8-1,1.6-1.9,2.7-2.7c1.8,1.6,3.8,3.2,5.9,4.2
					c0.8,0.8,1.7,1.5,2.5,2.1c2.9,2.3,6.1,4.4,9.6,5.7C259.5,255.4,259.9,254.4,259.4,253.9z"/>
				<path class="st10" d="M238.1,278.8c-2,0.4-3.3,2.3-4.7,3.7c-2.1,2.1-4.9,4.4-8,4.6c-3.5,0.2-5-5.3-5.6-7.8
					c-0.8-3.3-0.5-7-0.4-10.4c0-0.4-0.6-0.7-0.8-0.3c-1.5,1.7-2.3,4.2-2.6,6.9c-0.1,0-0.1,0-0.2,0c-3.8,1.4-2,8.3,0.7,10.1
					c0.5,0.3,1,0,1.1-0.5c1.1,2.4,2.8,4.3,5,5.1c3.6,1.4,7-0.2,9.9-2.3c2.5-1.8,6.5-4.7,6.9-8C239.6,279.1,238.8,278.7,238.1,278.8z
					 M215.9,276.6c-0.1,2.1,0.2,4.2,0.8,6.2C215.9,280.8,215.1,278.2,215.9,276.6z"/>
				<path class="st10" d="M216,288.1c-0.7-1.6-2.2-3-3.2-4.5c-1-1.5-2.4-4.1-1.1-5.8c0.3-0.4,0-1-0.5-0.8
					c-5.3,1.5,0.1,12.2,4.1,12.2C216,289.1,216.2,288.5,216,288.1z"/>
				<path class="st10" d="M278.4,291.7c-0.1-0.6-0.9-0.8-1.4-0.6c-1.6,0.9-2.4,2.7-3.3,4.2c-1.5,2.6-3.3,4.9-5.8,6.4
					c-6.9,4.1-9.5-5.2-9.7-10.3c0-0.2-0.2-0.4-0.4-0.2c-2.3,1.9-2.3,5.2-1.6,7.9c1.1,3.9,4,6.2,7.8,6.8c3.8,0.6,7.1-1.6,9.6-4.3
					C275.8,299.2,278.9,295.2,278.4,291.7z"/>
				<path class="st10" d="M278.9,300.7c-2.7-0.1-4.4,3.6-6.4,5.1c-0.5-0.1-1,0.4-0.7,0.9c0.1,0.2,0.1,0.4,0.5,0.7
					c0.3,0.2,0.6,0.3,1,0.2c1-0.1,1.7-0.7,2.5-1.3c1.6-1.2,3.2-2.9,3.7-4.8C279.7,301.1,279.3,300.8,278.9,300.7z"/>
				<path class="st10" d="M278.1,305.5c-1,0.5-1.8,1.6-2.7,2.4c-0.9,0.8-1.9,1.2-3,1.8c-0.8,0.4-0.4,1.4,0.2,1.7
					c1.3,0.5,2.8-0.1,3.9-0.8c1.2-0.8,2.6-2,3.2-3.2C280.3,306.1,279.2,304.9,278.1,305.5z"/>
				<path class="st10" d="M250.1,311.8c-2.2,0.5-4,1.8-6.4,2.1c-3,0.4-6.3-1.2-8.9-2.5c-3.9-1.9-7.1-3.5-9.5-7.2
					c-0.2-0.3-0.5-0.3-0.7,0c-4.5,7.2,21.5,19.8,26.9,9.3C251.9,312.6,251.1,311.5,250.1,311.8z"/>
				<path class="st10" d="M195.4,261.1c-2.1,3.9-3.8,7.9-5.8,11.8c-1.4,2.7-3,5.4-2.6,8.6c0.1,0.5,0.7,0.3,0.8,0
					c2.7-6.9,7.4-12.4,8.6-20C196.6,260.9,195.7,260.5,195.4,261.1z"/>
				<path class="st10" d="M292.6,333.8c-1.7,0.9-2.9,2.7-4.1,4.2c-0.7,0.9-1.3,1.8-1.9,2.8c-0.1-0.8-0.2-1.6-0.5-2.3
					c-0.3-0.9-1.3-1.2-2-0.5c-1.1,1-2.6,2-4.1,2.6c-0.1-0.1-0.2-0.2-0.3-0.3c-0.8-0.3-1.8,0-2.7-0.1c0,0,0,0-0.1,0
					c0.2-0.2,0.1-0.6-0.1-0.7c-5.4-3.8-11.3-7.2-16.8-10.9c-5.7-3.9-12.9-5.3-18.2-9.9c-0.1-0.1-0.3-0.1-0.4,0
					c-3.2-1.5-6.4-2.7-9.7-3.9c-3.2-1.1-6.5-3.2-9.9-3.7c0,0,0,0,0,0c-0.4-1-0.5-2.1-0.5-3.2c0-0.7-0.5-1.2-1.2-1.2
					c-1.6,0-2.9,0.2-4.2,0.6c0.4-1.9,0.8-3.9,0.9-5.9c0-0.7-0.6-1.1-1.2-1.2c-1.8-0.2-3.5,0.1-5.1,0.5c0.2-0.4,0.5-0.8,0.7-1.2
					c0.5-0.9-0.3-2.1-1.4-1.8c-1.9,0.5-3.9,1.1-5.8,1.6c0-0.2-0.3-0.4-0.5-0.3c-1.2,0.2-2.1,0.7-3.2,1.2c-1,0.5-2.2,0.8-3.2,1.2
					c-0.1-0.1-0.3-0.2-0.5-0.3c-4.5-1.6-7.9-5.7-12.5-7.1c-0.2-0.1-0.5,0.2-0.4,0.4c0.7,2,3.3,3.6,5,4.8c2.2,1.6,4.6,3.4,7.2,4.3
					c0.6,0.2,1,0,1.3-0.4c3.2,0.5,7-0.9,10.3-2.1c-0.1,0.3-0.3,0.5-0.4,0.8c-0.5,0.9,0.3,1.9,1.3,1.7c2-0.5,3.9-0.9,5.9-1
					c-0.3,2.2-0.8,4.4-1.4,6.5c-0.3,1,0.9,1.9,1.8,1.4c1.3-0.8,2.8-1.2,4.2-1.3c0,0.7,0.1,1.3,0.3,2c-0.1,0.2-0.1,0.5,0.1,0.6
					c0,0,0.1,0,0.1,0.1c0.2,0.5,0.7,0.7,1.2,0.7c6.4,3.8,13.5,6.1,20.8,7.3c0.2,0,0.4-0.1,0.5-0.2c5,4.8,11,7.3,16.7,11.2
					c3.8,2.5,7.5,5.8,11.6,7.7c0,0,0,0,0,0c1.2,2,5.9,7.3,8.6,5.5c0.1,0,0.1-0.1,0.1-0.1c0.2,0,0.3,0,0.5-0.1
					c1.6-0.3,3.4-1.1,4.8-2.3c0.1,1.1,0,2.2,0.4,3.3c-0.8,2.1,2.6,2.9,2.8,0.6c0.5-4.5,4.9-6.8,6.2-10.8
					C293.8,334,293.1,333.5,292.6,333.8z"/>
				<path class="st11" d="M281.3,258.9c0-1-1.2-1.9-2.1-1.2c-0.9,0.6-1.8,1.4-2.8,2c-1.7-1.5-1.7-4.9-2.5-6.9
					c-0.2-0.5-0.8-0.6-1.3-0.5c-0.7,0.2-1.3,0.5-1.7,1c-0.6,0.5-1.1,1-1.5,1.6c-0.2,0.2-0.4,0.4-0.6,0.6c-0.1,0-0.2,0-0.4,0
					c-0.2,0-0.4,0.1-0.7,0.1c-0.1,0-0.3,0-0.5-0.1c0.5-1.1,0.3-2.4,0.3-3.7c0-0.3,0-0.7,0-1c0.6-1.5,0.4-2.9-0.2-4.1
					c0.3-0.5,0.4-1.1,0-1.6c-1.5-2.4-3.1-5-6-5.7c-1.3-0.3-2.4,1-1.9,2.2c-0.6,0.2-1.2,0.6-1.9,1.1c-2.4,1.9-3.9,3.5-6.5,0.8
					c-1.7-1.8-3.3-3.8-5-5.6c-0.6-0.6-1.7-0.6-2.2,0c-0.5,0.5-1,1-1.5,1.5c-1.7,1.8,1.5,3.4,2.3,1.9c0,0,0,0,0,0
					c2,2.8,4.7,6.7,7.7,7.7c3.3,1,5-1.8,7-3c0.2,0.1,0.3,0.1,0.5,0.1c0.2,0,0.4,0,0.6,0c0.7,0.2,1.4,0.4,2.1,0.6
					c1.4,0.8,1.9,2.4,2.7,4.3c0,0.1,0,0.2,0,0.3c0,1.2-0.2,2.5,0,3.7c-0.2,0.4-0.3,0.9-0.5,1.4c-0.1,0.3,0,0.9,0.3,1.1
					c0.6,0.5,1.2,0.8,2,0.9c0,0,0.1,0,0.1,0.1c2.2,0.9,3.4-1,4.9-2.4c0.3,1.7,0.8,3.3,1.6,4.8c0.5,0.9,1.7,2.2,2.8,2.2
					c0.3,0,0.6-0.1,0.9-0.2c0.5,0.6,1.1,1.1,1.9,1.6c0.9,0.5,2.2-0.1,2.2-1.2C281.3,261.6,281.3,260.2,281.3,258.9z"/>
				<path class="st11" d="M289.1,257.3c-0.4-0.8-1.1-1.2-1.9-0.8c-0.7,0.3-1,1.2-1.3,1.9c-0.4,0.8-0.9,1.6-1.4,2.4
					c-0.5,0.7-1,1.4-1.5,2c-0.4,0.5-0.5,0.4-1,0.6c-0.4,0.2-0.7,0.5-0.7,0.9c0,1,1.2,1.7,2.2,1.4c1.1-0.4,1.9-1.1,2.6-2
					c0.8-1,1.4-2,2.1-3.1C288.6,259.6,289.5,258.3,289.1,257.3z"/>
			</g>
			<path class="st12" d="M67.4,288.6c1.1-0.5,2-0.9,2.8-1.2c0.3-0.1,0.5-0.3,0.8-0.4c2.4-0.8,4.8-1.5,7.4-1.4c1.2,0.1,1.7,0.9,1.1,2
				c-0.8,1.5-1.7,2.9-2.6,4.2c-0.5,0.7-1,1.4-1.3,2.3c-0.2,0.5-0.5,1-0.7,1.4c-1.1,1.6-1.8,3.3-3.2,4.7c-0.3,0.3-0.3,0.7-0.6,1.2
				c0.4,0,0.7,0.1,1,0.1c1.8,0,3.6,0.1,5.3,0c1.6-0.1,3,0.4,4.5,0.7c0.6,0.1,1.1,0.3,1.7,0.5c0.8,0.2,1.3,0.7,1.4,1.4
				c0.1,0.6,0.1,1.2,0,1.8c-0.1,0.3-0.4,0.6-0.6,0.8c-0.3,0.2-0.7,0.3-0.9,0.6c-0.6,1.2-1.9,1.8-2.8,2.7c-0.7,0.8-1.4,1.6-2.1,2.4
				c-0.5,0.6-1,1.2-1.5,1.8c-0.3,0.4-0.7,0.7-0.5,1.3c0.4,0,0.8,0.1,1.2,0.1c1.9,0,3.8,0,5.7,0c1.2,0,2.3,0.4,3.4,0.8
				c0.4,0.1,0.6,0.5,0.7,1c0.1,1.3-0.4,2.4-1.2,3.4c-0.1,0.1-0.2,0.3-0.4,0.4c-1.2,0.7-2,1.8-2.8,2.9c-0.9,1.1-1.8,2.2-2.6,3.3
				c-0.3,0.4-0.5,0.9-0.7,1.3c0.3,0.5,0.7,0.3,1,0.3c2.9,0,5.8,0,8.7,0c0.6,0,1.3,0,1.9,0.1c0.7,0.1,1,0.7,0.8,1.3
				c0,0.1-0.1,0.2-0.1,0.3c-1.2,1.7-1.5,3.8-2.8,5.5c-0.2,0.3-0.2,0.7-0.3,1c-0.2,0.7-0.4,1.5-0.6,2.2c-0.2,0.6-0.1,1.1,0.3,1.6
				c1.1,1.3,2.1,2.7,3.6,3.6c0.3,0.2,0.6,0.4,0.8,0.7c1,1.1,2.1,2,3.5,2.6c0.3,0.1,0.6,0.4,0.8,0.6c0.5,0.4,1.1,0.7,1.6,1.1
				c0.9,0.5,1.7,1,2.6,1.5c0.3,0.1,0.5,0.3,0.8,0.4c0.3,0.1,0.6,0.1,1.1,0.2c-0.5-1.1-1.1-1.9-1.8-2.6c-0.8-0.8-1.6-1.6-2.2-2.6
				c-0.3-0.6-0.9-1.1-1.4-1.5c-0.6-0.6-0.9-1.2-0.9-2.1c0-0.7,0-1.4,0-2.1c0-0.6,0.3-1.1,1-1.3c0.7-0.2,1.3-0.5,1.9-0.9
				c1-0.5,2-1.1,2.9-1.6c1-0.5,2.1-1,3-1.9c0.6-0.6,1.4-1,2.3-1.5c-0.3-0.2-0.5-0.4-0.6-0.5c-0.5-0.4-1-0.7-1.4-1
				c-0.8-0.8-1.6-1.6-2.4-2.4c-0.6-0.5-1.2-1-1.8-1.4c-0.3-0.3-0.6-0.5-1-0.8c-0.5-0.4-1.1-0.9-1.6-1.3c-0.2-0.1-0.4-0.3-0.5-0.4
				c-0.4-0.7-1.1-1.1-1.6-1.6c-0.8-0.7-1.3-1.7-1.3-2.8c0-0.7,0.2-1.3,0.9-1.6c0.6-0.3,1.3-0.6,2-0.7c1.3-0.3,2.6-0.8,3.9-1.3
				c2-0.8,4.1-1.6,6.1-2.4c1.2-0.5,2.4-1.1,3.5-1.6c0.4-0.2,0.7-0.4,1.2-0.6c-0.3-0.3-0.5-0.6-0.7-0.8c-0.4-0.3-0.9-0.6-1.3-0.9
				c-1.8-1.6-3.6-3.2-5.4-4.8c-0.6-0.5-1.2-0.9-1.8-1.4c-0.8-0.7-1.7-1.5-2.4-2.3c-0.3-0.3-0.3-0.7-0.4-1.1
				c-0.3-2.2,0.1-2.8,2.2-3.6c1.7-0.6,3.4-1,5.1-1.4c1.6-0.4,3.1-1.1,4.7-1.6c0.4-0.1,0.8-0.4,1.2-0.4c1.1,0,1.9-0.5,2.4-1.6
				c-0.2-0.3-0.4-0.6-0.6-0.9c-0.6-0.8-1.1-1.5-1.7-2.3c-2.5-3.3-4.9-6.7-7.3-10c-0.5-0.7-1-1.4-1-2.2c-0.1-1.1,0.2-1.8,1.3-2
				c3.1-0.7,6.1-2,9.1-2.9c2.6-0.8,5.3-1.3,7.9-1.8c0.8-0.1,1.5-0.3,2.4-0.5c-0.1-0.3-0.1-0.5-0.2-0.7c-2.1-2.5-3.9-5.2-5.7-7.9
				c-0.8-1.2-1.7-2.4-2.6-3.6c-0.2-0.3-0.5-0.7-0.7-1c-0.6-1.5,0.1-3.2,1.7-3.5c1-0.2,2.1-0.4,3.1-0.6c3.9-0.8,7.6-2.1,11.4-3.5
				c0.1-0.1,0.3-0.2,0.4-0.3c-0.9-1.1-1.6-2.2-2.6-3.2c-2.2-2.2-4-4.8-6.4-6.9c-0.6-0.6-1.1-1.4-1.6-2.1c-0.8-1.1-0.4-2.7,1.2-3.2
				c1.1-0.4,2.3-0.7,3.3-1.3c3.3-1.7,6.8-2.7,10.3-3.7c1.2-0.4,2.5-0.7,3.8-1.1c-0.3-0.7-0.8-1.1-1.4-1.4c-1.4-0.7-2.5-1.8-3.6-2.8
				c-1.9-1.7-3.8-3.3-5.7-5c-0.4-0.3-0.7-0.6-1-1c-0.4-0.5-0.8-1-1.4-1.4c-1-0.6-1.4-1.7-2.1-2.6c-0.4-0.6-0.3-1.4-0.1-2.1
				c0.1-0.5,0.5-0.8,1-0.9c3.1-0.3,6-1.3,9-1.9c1-0.2,2.1-0.3,3.1-0.5c1.5-0.2,2.9-0.4,4.4-0.7c0.6-0.1,1.2-0.2,1.7-0.2
				c0.5-0.1,1.1-0.1,1.6-0.2c0.5,0,0.9,0,1.5-0.1c-0.4-0.8-0.8-1.5-1.3-2c-0.3-0.3-0.6-0.6-0.8-1c-1.3-2.6-3-5-4-7.7
				c-0.9-2.4-2.1-4.6-3.2-6.9c-0.6-1.2-1.1-2.5-1.5-3.8c-0.2-0.7-0.2-1.4-0.2-2.1c0.1-0.9,0.9-1.4,1.7-1.1c4.1,1.5,8.4,2.2,12.6,3.4
				c1.7,0.4,3.3,1,4.9,1.6c0.6,0.2,1.2,0.4,1.9,0.3c0-0.3,0.1-0.6,0.1-0.9c0-3,0-6-0.1-9c0-0.5,0-1.1-0.1-1.6
				c-0.9-3.4-0.7-6.9-0.8-10.4c0-1.2,0.8-1.8,1.5-2.5c0.2-0.2,0.6-0.2,0.8-0.2c0.7,0.1,1.4,0.3,2,0.6c1.7,0.9,3.4,1.9,5.1,2.9
				c0.2,0.1,0.3,0.2,0.4,0.3c1.1,1.2,2.5,1.9,3.9,2.7c0.7,0.4,1.2,0.9,1.9,1.4c1.4,1,2.6,2.4,4.4,3c1-0.7,1.3-1.8,1.8-2.8
				c0.8-1.7,1.5-3.3,2.3-5c0.8-1.6,1.6-3.2,2.4-4.8c0.2-0.4,0.4-0.8,0.6-1.1c0.7-0.9,1.1-1.8,1.4-2.9c0.3-0.9,0.7-1.7,1.4-2.4
				c0.7-0.8,1.2-1.9,1.8-2.8c0.1-0.2,0.2-0.4,0.3-0.6c0.6-1,1.7-1.2,2.6-0.4c0.6,0.5,1.2,1.1,1.8,1.7c0.8,0.9,1.4,1.9,2.1,2.8
				c0.3,0.4,0.6,0.8,1,1.3c0.1,0.2,0.4,0.4,0.4,0.6c0.3,1.3,1.4,2.2,2.1,3.3c1.2,1.8,2.4,3.6,3.7,5.4c0.8,1,1.7,1.9,2.5,2.9
				c0.3,0,0.4,0.1,0.6,0.1c1.6-0.1,3.2-0.1,4.8-0.2c1.2-0.1,2.4-0.1,3.5-0.2c0.2,0,0.4,0,0.5,0c2.3,0.7,4.7,0.3,7,0.4
				c1.3,0.1,2.6-0.2,3.8,0.4c1.6,0,3,0.6,4.5,0.9c2.6,0.6,5.3,1.2,7.7,2.6c0.4,0.2,0.7,0.4,1.1,0.5c1.5,0.4,2.7,1.1,3.9,2
				c2.6,1.9,5.5,3.4,8.4,5c2.5,1.4,4.9,3.1,7.1,4.9c3.6,3.1,6.1,6.9,7.7,11.3c1.6,4.4,2.7,8.9,3.5,13.6c0.8,4.7,1.2,9.5,1.2,14.3
				c0,1.7,0,3.4,0,5.1c0,1.2-0.1,2.5-0.4,3.7c-0.4,1.5-0.7,3.1-1.1,4.8c0.7-0.1,1.3-0.3,1.8-0.3c1.8,0,3.6-0.1,5.3,0
				c1.3,0,2.4,0.4,3.3,1.4c0.3,0.3,0.8,0.5,1.1,0.9c0.5,0.5,1.1,0.9,1.5,1.4c0.6,0.6,1.1,1.3,1.7,2c0.6,0.7,1.1,1.5,1.7,2.3
				c0.5,0.7,0.9,1.5,1.5,2.2c0.9,1,1.3,2.2,1.4,3.5c0,1.2,0.1,2.5,0.1,3.8c0.6,0.3,1.1,0.6,1.7,0.9c3.8,2,7.6,3.9,11.4,5.8
				c3.8,2,7.4,4.4,11,6.8c1.6,1.1,3.1,2.2,4.6,3.3c0.9,0.7,1.8,1.4,2.6,2.1c0.7,0.6,1.2,1.4,1.5,2.4c0.3,1.2,0.2,2.3-0.9,3.2
				c-2.3,1.9-3.8,4.4-5.2,6.9c-2.1,3.9-3.8,8-5.4,12.2c-2.9,7.9-6.1,15.7-9.2,23.5c-0.4,0.9-0.8,1.8-1.2,2.8
				c-0.2,0.4-0.3,0.8-0.4,1.2c-0.2,0.5-0.3,1-0.6,1.5c-0.6,0.8-1,1.8-1.2,2.7c-0.2,0.8-0.6,1.5-1.1,2.2c-0.5,0.7-0.9,1.4-1.4,2.1
				c-0.5,0.8-1.1,1.6-1.6,2.4c-0.9,1.3-1.7,2.7-2.6,4c-0.5,0.7-0.9,1.4-1.4,2c-0.5,0.7-1,1.5-1.2,2.4c-0.3,1.6-1.2,2.8-2.7,3.5
				c-0.2,0.1-0.4,0.2-0.6,0.3c0,1.5,0,3,0,4.5c0,0.3,0.1,0.6,0.1,1c1.2-0.5,2.1-1.4,3.2-2c1.1-0.6,2.1-1.2,3.2-1.9c1-0.7,2-1.4,3-2
				c0.8,0.5,0.7,1.2,0.6,1.8c-0.2,1.5-0.3,2.9-0.7,4.4c-1.1,4.4-2.2,8.7-3.3,13.1c-1.1,4.3-2.3,8.6-3.4,12.8
				c-0.9,3.5-2.2,6.8-3.7,10.1c-0.6,1.4-1.3,2.8-1.9,4.2c-1,2.3-2.5,4.1-4.5,5.6c-2.3,1.7-4.8,3-7.7,3.4c-2,0.3-4.1,0.8-6.1,1.1
				c-0.9,0.1-1.8,0.1-2.7,0.1c-5.3,0.3-10.2-1.2-14.9-3.5c-2.8-1.3-5.5-2.7-8.2-4.2c-4.2-2.3-8.7-4-13.5-4.5c-3-0.3-6.1-0.4-9.2,0.6
				c0,1.2,0,2.4,0,3.6c0.1,2.2-0.5,4.3-1.2,6.4c-0.6,1.6-1.2,3.2-1.7,4.8c-0.2,0.5-0.4,1-0.9,1.4c-0.5,0.4-0.8,1.1-1.2,1.7
				c-1.1,1.7-2.6,2.8-4.4,3.6c-1.8,0.9-3.6,1-5.5,0.9c-0.4,0-0.8-0.1-1.2,0c-1,0.1-1.9-0.2-2.7-0.6c-1.2-0.6-2.6-0.8-3.7-1.7
				c-0.2-0.1-0.5-0.2-0.6-0.4c-1-1.2-2.4-1.5-3.8-1.7c-0.2,0-0.3-0.1-0.6-0.1c-0.4-0.7-0.9-1.2-1.8-1.3c-1-0.2-1.9-0.4-2.9-0.5
				c-1-0.1-2.1-0.5-3.1-0.7c-0.2-0.1-0.4-0.2-0.7-0.2c-1.3-0.2-2.7-0.4-4-0.6c-0.6-0.1-1.1-0.3-1.7-0.5c-2.1-0.6-4.2-1.5-6.5-1.7
				c-1.4-0.1-2.9-0.7-4.3-1.1c-2.3-0.7-4.7-1.3-7-2c-0.7-0.2-1.4-0.4-2-0.7c-1.4-0.8-2.9-1.1-4.3-1.5c-1-0.3-2-0.7-3-1
				c-1.3-0.4-2.6-0.9-3.8-1.4c-0.6-0.2-1.2-0.5-1.8-0.7c-0.6-0.2-1.2-0.5-1.8-0.7c-0.5-0.2-0.9-0.1-1.3,0.2
				c-0.5,0.4-1.1,0.7-1.6,1.2c-0.6,0.5-1.2,0.7-1.9,0.7c-0.9,0-1.8,0-2.7,0c-1,0-2,0-3,0.3c-0.7,0.2-1.4,0.2-2.1,0.2
				c-1.5,0-3,0-4.4,0c-1.7,0-3.3-0.3-4.9-0.3c-2.4-0.1-4.6-0.9-6.9-1.3c-3.6-0.6-7.2-1.5-10.7-2.4c-0.7-0.2-1.4-0.4-2-0.7
				c-5.9-2.8-11.7-6-17.3-9.4c-3-1.8-5.9-3.8-8.5-6.1c-1.8-1.6-3.6-3.2-5.4-4.8c-1.1-1-2.1-2.2-3.1-3.4c-2.9-3.3-5.2-7-7.5-10.8
				c-0.7-1.2-1.5-2.3-2.3-3.3c-0.7-0.9-1.2-1.8-1.5-2.8c-0.3-1-0.7-1.9-1.2-2.8c-1.9-3.4-3.3-6.9-3.9-10.8c-0.2-1.2-0.4-2.4-0.6-3.7
				c-0.2-1.3-0.3-2.6-0.3-3.9c0-4.9,0-9.7,0.1-14.6c0-0.5,0-1.1,0.1-1.6c0.5-3.1,0.9-6.2,1.5-9.3c0.6-2.8,1.5-5.5,2.5-8.1
				c0.7-1.8,1.4-3.6,2.1-5.5c0.1-0.2,0.1-0.3,0.2-0.5c1.2-2.6,2.3-5.2,3.7-7.7c1.6-3,3.5-5.9,5.2-8.9c0.6-1,1.3-2,2.5-2.4
				c0.3-0.1,0.5-0.5,0.8-0.6c0.4-0.2,0.8-0.3,1.2-0.3c0.7,0,1.2,0.6,1.1,1.3c0,0.2-0.1,0.5-0.2,0.7c-0.1,0.3-0.3,0.5-0.4,0.8
				c-0.7,1.7-1.3,3.4-1.3,5.3C67.3,284.5,67.4,286.4,67.4,288.6z M65.7,279.2c-0.8,0.3-1,1.1-1.4,1.7c-1.5,2.6-2.9,5.3-4.4,7.9
				c-0.2,0.4-0.4,0.9-0.6,1.3c-0.6,1.3-1.2,2.6-1.7,3.9c-0.3,0.8-0.6,1.5-0.9,2.3c-0.5,1.4-1.1,2.8-1.6,4.1
				c-0.4,0.9-0.7,1.9-1.1,2.8c-1.3,3.6-2,7.4-2.5,11.2c-0.3,2.6-0.7,5.3-0.7,7.9c0.1,3.7,0.1,7.3,0,11c0,1.3,0.1,2.6,0.3,3.9
				c0.2,1.3,0.5,2.6,0.7,3.8c0.6,3.4,1.8,6.6,3.5,9.6c0.6,1,1,2,1.3,3.1c0.3,0.9,0.7,1.6,1.2,2.3c0.8,1.1,1.6,2.2,2.3,3.3
				c2.3,3.7,4.6,7.4,7.5,10.8c1.2,1.4,2.5,2.8,4,4c1,0.8,1.9,1.7,2.9,2.6c0.4,0.4,0.8,0.8,1.3,1.2c2.5,1.8,5,3.8,7.6,5.5
				c5.6,3.4,11.4,6.6,17.3,9.4c0.3,0.2,0.6,0.3,1,0.4c3.4,0.8,6.7,1.9,10.2,2.3c0.7,0.1,1.4,0.2,2.1,0.4c1.6,0.5,3.2,1,4.9,0.9
				c0.4,0,0.8,0.1,1.2,0.2c0.9,0.1,1.9,0.2,2.8,0.3c0.9,0,1.9,0,2.8,0c1.9,0,3.8,0.2,5.6-0.4c0.4-0.1,0.8-0.1,1.2-0.1
				c0.8,0,1.7,0,2.5,0c0.9,0,1.6-0.3,2.3-0.8c-0.1-0.2-0.2-0.4-0.3-0.5c-1.8-1.2-3.6-2.5-5.5-3.6c-0.9-0.5-1.7-1.1-2.2-1.9
				c-0.5-0.7-1-1.5-1.7-2c-0.7-0.5-1.3-1.1-1.8-1.9c-0.2-0.4-0.6-0.7-0.9-1.1c-1.6-1.4-2.7-3.3-4.4-4.6c-0.2-0.1-0.3-0.4-0.4-0.5
				c-0.6-0.7-1.2-1.5-1.8-2.2c-0.9-1.1-1.7-2.3-2.2-3.6c-0.3-0.8-0.8-1.5-1.4-2.2c-1.2-1.4-2.3-2.9-2.4-4.8c-0.1-1-0.5-1.8-1.3-2.4
				c-0.5-0.4-0.7-0.9-0.9-1.5c-0.6-1.6-1-3.2-1.2-4.8c-0.2-1.3-0.9-2.1-2.2-2.5c-2.5-0.9-4.8-2.1-7.1-3.5c-1.5-0.9-3.2-1.5-4.5-2.8
				c-1.5-0.6-2.6-1.6-3.6-2.8c-0.2-0.2-0.4-0.4-0.7-0.6c-1.5-0.9-2.5-2.1-3.5-3.4c-0.5-0.7-1.1-1.4-1.9-1.9
				c-0.5-0.3-0.9-0.8-1.2-1.3c-0.9-1.3-2-2.5-3.3-3.4c-0.4-0.3-0.8-0.7-1.1-1.1c-1.1-1.3-2.2-2.6-3.3-3.9c-0.6-0.7-1.1-1.5-1.4-2.4
				c-1.5-4.2-3-8.3-4.5-12.5c-0.3-0.9-0.6-1.9-0.7-2.9c-0.5-2.6-0.9-5.1-1.6-7.6c-0.3-1.1-0.6-2.2-0.8-3.3c-0.7-3.5-1.1-7-1.5-10.5
				c-0.1-1.2-0.3-2.4-0.3-3.5C65.6,285.5,65.7,282.3,65.7,279.2c0-0.1,0.1-0.1,0.2-0.2c-0.1,0-0.1-0.1-0.2-0.1
				C65.7,279,65.7,279.1,65.7,279.2z M178.2,358.9c0.2,2,1.1,5.7,1.8,7.5c0.2,0.5,0.6,1,0.5,1.5c-0.3,1.2,0.3,2.1,0.6,3.1
				c0.3,0.9,0.6,1.8,0.9,2.7c0.6,2.2,1.2,4.3,1.8,6.5c0.1,0.5,0.2,0.9,0.2,1.4c0.2,1.5,0.5,3,1,4.5c0.4,1,0.6,2.2,0.8,3.3
				c0.1,0.7-0.6,1.2-1.3,0.9c-0.7-0.3-1.1-0.8-1.1-1.5c0-0.9-0.3-1.6-0.7-2.4c-0.1-0.3-0.3-0.7-0.4-1c-0.2-1.3-0.4-2.6-0.5-3.8
				c-0.1-0.3-0.1-0.7-0.2-1c-0.4-1.4-0.7-2.9-1.1-4.3c-0.5-2.1-0.9-4.3-2-6.2c-0.2-0.4-0.3-0.8-0.4-1.2c-0.7-2.3-1.4-4.6-1.9-7
				c-0.4-1.7-0.6-3.4-1.2-5c-0.2-0.6-0.1-1.2,0.4-1.6c0.4-0.4,1.3-0.5,1.8-0.1c0.3,0.2,0.5,0.4,0.8,0.7c0.4,0.3,0.7,0.7,1.1,0.9
				c0.9,0.4,1.5,1.1,2.2,1.8c0.7,0.7,1.3,1.3,2,2c0.1,0.1,0.4,0.2,0.5,0.3c0.1-0.1,0.2-0.2,0.2-0.2c0-0.2,0.1-0.5,0.1-0.7
				c0.1-2.1-0.2-4.2-0.5-6.4c-0.2-1.9-0.8-3.7-0.7-5.6c0-0.8-0.3-1.5-0.8-2.1c-1.4-1.6-2.5-3.4-3.6-5.3c-0.6-1.1-1.4-2.2-2.2-3.2
				c-1.4-1.8-2.9-3.6-4.3-5.4c-0.4-0.5-0.7-0.9-1.2-1.3c-2.4-1.9-4.7-3.9-7.4-5.5c-3-1.8-6.3-2.8-9.7-3.7c-1-0.3-2-0.5-3-1
				c-1.5-0.6-3-1-4.7-0.5c-0.4,0.1-0.9,0.2-1.4,0.2c-2.4-0.1-4.8-0.2-7.3-0.2c-1.7,0-3.4,0.3-4.7,1.6c-0.2,0.2-0.4,0.3-0.6,0.4
				c-0.1,0-0.4,0-0.5-0.1c-0.1-0.2-0.3-0.5-0.2-0.6c0.6-0.7,1-1.5,1.8-1.9c1.4-0.8,2.8-1.5,4.5-1.5c2,0,4,0,6-0.1
				c0.3,0,0.6,0.1,0.7-0.3c0-0.1,0-0.1,0-0.2c-1.1-1.8-2.2-3.6-3.4-5.4c-1.2-1.8-2.4-3.6-3.6-5.5c-0.2-0.3-0.4-0.6-0.6-0.9
				c-0.2-0.5,0-1.1,0.4-1.4c0.4-0.2,0.9-0.2,1.3,0.2c0.1,0.1,0.2,0.2,0.3,0.2c0.8,1,1.7,1.9,2.3,3.1c0.3,0.5,0.6,1,0.9,1.5
				c1.2,1.9,2.5,3.7,3.8,5.6c0.8,1.1,1.5,2.3,2.2,3.3c1.1,0.2,2.1,0.4,3.1,0.5c2.7,0.4,5.4,0.9,7.9,1.9c1.1,0.4,2.2,0.6,3.2,1.1
				c2.3,1.3,4.6,2.5,6.6,4.1c4.4,3.5,4.4,3.5,7.9,7.8c0.6,0.8,1.2,1.6,1.9,2.3c1.3,1.5,2.3,3.3,3.3,5.1c0.4,0.7,0.7,1.5,1.1,2.2
				c0.4,0.7,0.7,1.4,1.3,1.9c1.4-0.6,2.7-1.2,4-1.9c0.9-0.4,1.8-0.9,2.5-1.6c1-1,2.2-1.8,3.3-2.6c0.5-0.4,1-0.7,1.4-1
				c1.8-1.3,3.3-3.1,5.3-4.1c0.2-0.1,0.3-0.3,0.5-0.5c0.2-0.3,0.5-0.6,0.7-0.7c1.5-0.8,2.7-2,4-2.9c0.9-0.5,1.7-1.1,2.2-2
				c0.2-0.3,0.5-0.6,0.8-0.7c1.8-1.1,3.3-2.4,4.8-4c0.2-0.2,0.3-0.3,0.5-0.5c1.8-1.1,2.7-3,3.3-4.9c0.5-1.3,0.7-2.6,1-3.9
				c0.1-0.6,0.2-1.3-0.2-1.9c-0.7,0.2-1.3,0.4-1.9,0.6c-0.4,0.2-0.7,0.5-1,0.7c-0.9,0.6-1.8,1.2-2.7,1.7c-0.9,0.6-2.1,0-2.3-1.1
				c-0.1-0.7,0.1-1.3,0.4-1.9c0.5-0.8,0.9-1.5,1.2-2.4c0.1-0.3,0.3-0.6,0.5-0.9c0.5-0.8,1-2.1,1.2-3.4c-0.2,0-0.4-0.1-0.5,0
				c-1.6,0.5-3.2,1.1-4.7,2c-0.4,0.3-1,0.4-1.4,0.5c-0.6-0.5-1.1-0.9-1.7-1.4c0.7-1.1,1.3-2.1,2-3.2c0.2-0.2,0.3-0.5,0-0.8
				c-0.7,0.3-1.5,0.6-2.2,1c-1.4,0.7-2.8,1.2-4.1,2c-0.7,0.5-1.5,0.7-2.2,1.1c-0.4,0.2-0.8,0.3-1,0.6c-0.8,0.8-1.7,1.4-2.6,2.1
				c-1.3,0.9-2.5,1.8-3.7,2.7c-0.5,0.3-0.9,0.7-1.4,1c-1.4,0.8-2.9,1.6-4.3,2.5c-0.7,0.4-1.5,0.8-2,1.4c-1.2,1.2-2.6,1.8-4.3,1.7
				c-0.1,0-0.2,0-0.5-0.1c-0.6-0.6-1.4-1.2-2.1-1.9c-0.7-0.7-1.3-1.4-1.9-2.1c-0.9-1.1-1.9-2.3-2.7-3.5c-0.7-0.9-1.1-2-1.8-2.8
				c-1-1.3-1.9-2.7-2.5-4.2c-0.2-0.5-0.5-0.9-0.8-1.4c-1.1-1.8-2.3-3.6-3.2-5.5c-1.4-2.9-2.7-5.8-3.9-8.7c-0.6-1.4-1-2.8-1.5-4.2
				c-0.2-0.7-0.5-1.4-0.9-2.1c-0.4-0.8-0.7-1.7-1-2.6c-0.1-0.2-0.1-0.5,0-0.7c0.1-0.3,0.4-0.6,0.6-0.8c0.3-0.2,0.7,0,0.9,0.3
				c0.2,0.2,0.3,0.5,0.4,0.8c0.5,0.9,1,1.8,1.4,2.6c0.2,0.4,0.3,0.8,0.5,1.1c0.4,1.2,0.8,2.3,1.3,3.5c0.7,1.6,1.5,3.2,2.2,4.9
				c0.9,2.2,1.9,4.3,3.2,6.3c0.9,1.4,1.8,2.9,2.7,4.4c0.2,0.3,0.3,0.6,0.5,0.9c0.4,0.7,0.7,1.4,1.1,2c0.5,0.7,1.1,1.4,1.5,2.2
				c0.9,1.5,1.9,3,3,4.4c1,1.4,2.3,2.6,3.4,3.8c0.4,0.4,0.8,0.7,1.3,0.7c0.8-0.3,1.5-0.6,2.2-0.9c2.2-1.1,4.4-2,5.9-4.1
				c0.5-0.6,1.1-1,1.8-1.4c1.5-0.9,2.9-1.8,4.4-2.7c0.1,0,0-0.2,0.1-0.3c-0.3-0.2-0.6-0.4-0.9-0.6c-2.9-1.8-5.8-3.6-8.7-5.4
				c-2.4-1.5-4.6-3.3-6.6-5.4c-0.7-0.7-1-1.4-0.9-2.4c0.1-0.7,0.3-1.3,0.7-1.8c0.6-0.6,1.3-1.2,2-1.7c0.9-0.6,1.7-1.2,2.3-2.2
				c2.7-4.1,5.3-8.1,7.5-12.4c0.6-1.2,1.2-2.4,1.6-3.7c1.3-4,3-7.8,4.9-11.6c0.7-1.3,1.3-2.7,1.9-4c1.2-2.6,2.3-5.3,3.2-8.1
				c0.4-1.2,0.6-2.4,0.8-3.6c-0.4-0.4-0.8-0.8-1.1-1.2c-0.7-0.6-1.3-0.7-2.1-0.3c-0.3,0.2-0.6,0.4-0.8,0.6c-2.6,2.5-4.9,5.3-6.2,8.7
				c-0.1,0.4-0.3,0.8-0.5,1.1c-0.3,0.7-1,1.1-1.7,0.9c-0.5-0.1-1-0.3-1.5-0.5c-0.5-0.3-0.9-0.7-1.3-1.2c-2-2.4-3.9-4.8-5.8-7.2
				c-0.2-0.3-0.4-0.6-0.4-0.9c-0.1-0.4,0-0.7,0.3-0.9c0.3-0.2,0.7-0.2,1,0c0.3,0.2,0.6,0.5,0.9,0.9c0.8,0.9,1.5,1.8,2.3,2.7
				c1,1.2,2,2.3,3,3.5c0.4,0.4,0.7,0.9,1.4,1.1c0.2-0.2,0.3-0.4,0.4-0.6c1.5-3.3,3.8-6.1,6.4-8.7c0.5-0.5,1-1,1.6-1.3
				c1.5-0.9,3.2-0.8,4.6,0.4c0.5,0.4,1,0.9,1.4,1.3c1.4,1.4,2.8,2.7,4.2,4.1c1.3,1.3,3.2,2.4,4.6,3c0.4-0.4,0.8-0.8,1.2-1.3
				c2.3-2.9,4.8-5.7,7.7-8.1c0.8-0.7,1.6-1.4,2.7-1.9c0.5,0.3,1,0.6,1.4,1c1.2,1.1,2.4,2.3,3.6,3.4c1.1,1.1,2.2,2.2,3.3,3.2
				c0.5,0.5,1,1,1.9,1.1c3.1-3.7,6.7-6.9,10.3-9.7c2.1,0.2,3.4,1.3,4.6,2.6c0.2,0.2,0.4,0.4,0.6,0.7c1.5,1.5,2.9,3.1,4.4,4.6
				c0.5,0.6,1.2,1,2,1.2c1-1.1,1.5-2.5,2.6-3.5c1.1-1,2.2-2.1,3.5-2.8c1,0.3,1.7,0.8,2.3,1.5c0.5,0.6,1.1,1.2,1.7,1.8
				c0.2,0.2,0.4,0.3,0.8,0.5c0.5-3.4,1.8-6.5,1.8-9.9c0-0.2,0.1-0.3,0.1-0.5c0.1-0.9,0.2-1.9,0.3-2.8c0-1.5,0-3,0-4.4
				c0.1-5.2-0.2-10.4-1.1-15.6c-0.6-4-1.5-7.9-2.8-11.7c-1.6-4.7-4.3-8.6-8.3-11.7c-2.4-1.9-5-3.5-7.7-5c-2.5-1.4-5.1-2.7-7.6-4.1
				c-0.7-0.4-1.3-0.7-2-1.1c-0.2-0.1-0.4-0.3-0.6-0.3c-1.2,0-2.3-0.6-3.3-1.2c-0.3-0.2-0.6-0.3-1-0.4c-1.4-0.4-2.7-0.7-4.1-1
				c-1.4-0.3-2.8-0.9-4.3-0.8c-0.1,0-0.2,0-0.3-0.1c-0.9-0.5-1.9-0.5-2.9-0.5c-1.2,0-2.5,0-3.7,0c-1.2,0-2.5,0.1-3.7-0.4
				c-0.5-0.2-1.1-0.1-1.6-0.1c-1.5,0.1-3,0.1-4.4,0.3c-2.3,0.3-4.6,0.5-6.9,0.4c-0.7,0-1.4,0-2.1,0c-1.3,0-2.5,0.1-3.7,0.5
				c-0.2,0.1-0.5,0.2-0.7,0.2c-1.6-0.1-3.1,0.7-4.7,0.9c-0.6,0.1-1.1,0.4-1.7,0.6c-0.4,0.1-0.9,0.3-1.4,0.3c-0.9,0-1.7,0.3-2.5,0.7
				c-0.6,0.3-1.2,0.7-1.8,0.7c-1.1,0-1.9,0.4-2.8,0.8c-0.2,0.1-0.3,0.2-0.5,0.2c-1.4,0.1-2.5,0.9-3.8,1.2c-0.5,0.1-0.9,0.3-1.3,0.5
				c-2.1,1.2-4.1,2.5-5.9,4.2c-1.1,1.1-2.2,2.1-3.5,3c-3.3,2.2-5.9,5.1-8.3,8.2c-1.2,1.5-2.2,3.2-3,5c-0.9,2.3-2,4.6-3,6.8
				c-0.1,0.2-0.2,0.4-0.2,0.7c-0.7,2.1-1.4,4.3-2,6.4c-0.4,1.1-0.7,2.2-1.4,3.2c-0.3,0.4-0.4,0.8-0.6,1.3c-0.9,2.7-1.7,5.4-2.5,8.1
				c-0.2,0.5-0.4,1-0.3,1.5c0,0.6-0.3,1.1-0.5,1.7c-0.5,1.3-1.1,2.6-1.6,3.9c-0.6,1.6-1.1,3.3-1.2,5c-0.1,1.4-0.4,2.7-0.9,3.9
				c-0.4,1-0.7,2-0.8,3.1c-0.1,0.9-0.4,1.7-0.8,2.5c-1.2,2.8-2.3,5.6-3.3,8.4c-0.8,2.3-1.5,4.6-2.5,6.8c-1.1,2.8-2.5,5.5-3.6,8.3
				c-1.5,3.6-3.2,7.1-5.1,10.5c-0.3,0.6-0.6,1.1-0.9,1.7c-2,4.5-3.6,9.1-4.9,13.9c-0.7,2.6-1.1,5.2-1.9,7.7c-0.1,0.2,0,0.3-0.1,0.5
				c-0.3,1.9-0.7,3.7-1.6,5.4c-0.4,0.6-0.7,1.4-0.4,2c0.3,0.8,0,1.4-0.2,2c-0.1,0.3-0.4,0.6-0.4,1c-0.6,2.6-1.3,5.2-1.9,7.7
				c-0.3,1.4-0.6,2.8-1,4.1c-0.3,0.9-0.5,1.8-0.6,2.8c-0.3,1.5-0.5,3-0.7,4.6c-0.2,1.8-0.6,3.6-0.6,5.5c-0.1,3.3-0.1,6.5,0,9.8
				c0.1,3.4,0.4,6.7,1,10c0.3,1.3,0.8,2.6,1.3,3.8c0.5,1,0.9,1.9,1.2,2.9c0.2,0.8,0.6,1.5,1.1,2.2c1.1,1.6,2,3.2,3.1,4.8
				c2.2,3.3,4.3,6.7,7.2,9.4c0.3,0.3,0.6,0.6,0.8,0.9c0.9,1.5,2.2,2.6,3.5,3.4c1.8,1.1,3.4,2.3,5,3.6c0.9,0.7,2,1.3,2.9,2.1
				c2.3,1.7,5,2.6,7.6,3.7c1.2,0.5,2.5,0.9,3.8,1.4c1.1,0.4,2.1,0.8,3.2,1.1c1.5,0.4,3,0.8,4.3,1.5c0.8,0.4,1.8,0.6,2.7,0.9
				c0.7,0.2,1.4,0.4,2,0.6c2.6,0.7,5.1,1.5,7.7,2.2c0.2,0.1,0.5,0.1,0.7,0.1c1.3-0.1,2.5,0.4,3.8,0.8c1.8,0.5,3.5,1.4,5.5,1.4
				c0.3,0,0.6,0.2,0.8,0.3c0.4,0.1,0.8,0.2,1.2,0.3c0.7,0,1.3,0.2,1.9,0.4c1.5,0.5,3,0.8,4.6,0.6c-0.2-0.4-0.3-0.7-0.5-1
				c-0.1-0.4-0.1-0.7,0.4-0.9c0.7,0.3,1.4,0.8,1.8,1.6c0.4,0.6,0.9,1.1,1.5,1.4c0.5,0.3,0.9,0.7,1.4,1.1c1.2,0.9,2.4,1.7,3.6,2.5
				c0.4,0.3,0.9,0.6,1.4,0.8c2,0.8,4,1.4,6.2,1.1c0.3,0,0.6,0,0.9,0c0.6,0,1.2-0.1,1.7-0.4c0.4-0.2,0.9-0.4,1.3-0.6
				c1.4-0.7,2.5-1.7,3.3-3.1c0.5-0.9,1-1.9,1.4-2.8c0.3-0.5,0.5-1,1-1.4c0.7-0.6,1-1.3,0.9-2.2c0-0.8,0-1.5,0-2.3
				c0-0.5,0-1.1,0.2-1.6c0.6-1.9,0.9-3.9,0.8-5.9c-0.1-1.4-0.1-2.7,0.4-4c0.1-0.3,0.1-0.6,0.1-0.9c0-1.8,0.1-3.5,0.1-5.3
				c0-0.4,0-0.8-0.1-1.2c-0.3-1.1-0.5-2.2-0.3-3.3c0-0.2,0-0.5-0.1-0.7c-0.4-0.7-0.3-1.5-0.3-2.3c0-4.5,0-9,0-13.5
				c0-0.8,0-1.6-0.2-2.3c-0.3-1.3-0.3-2.6-0.3-3.9c0-1.1,0-2.1,0-3.2c0-0.2-0.1-0.4-0.1-0.6c-0.7,0.7-1.4,1.2-2,1.8
				c-0.2,0.2-0.3,0.3-0.5,0.5c-1.2,1.5-2.7,2.9-3.5,4.7c-0.1,0.2-0.3,0.4-0.5,0.5c-1,1-1.5,2.2-2,3.5c-0.2,0.5-0.4,1-0.6,1.5
				c-0.4,1-1.9,1.1-2.4,0.1c-0.6-1.2-1.4-2.4-1.8-3.7c-1.2-3.9-3.3-7.3-5-10.9c-0.1-0.2-0.3-0.4-0.5-0.3c-0.1,0.1-0.2,0.2-0.2,0.3
				c-0.2,1.6-0.3,3.3-0.7,4.9c-0.3,1.2-0.3,2.3-0.4,3.5c0,0.5-0.1,1.1-0.2,1.6c-0.3,1.6-0.8,3.1-0.8,4.7c-0.1,1.4-0.6,2.6-0.8,4
				c-0.1,0.6-0.5,0.9-1.2,0.9c-0.8-0.7-1.5-1.5-2.4-2.3c-0.7-0.7-1.5-1.3-2.3-2c-0.5-0.5-1.1-0.9-1.6-1.3c-0.7-0.7-1.4-1.4-2.1-2.2
				c-0.2-0.3-0.5-0.6-0.8-0.7c-0.8-0.2-1.2-0.9-1.8-1.4C179.8,360.3,179.2,359.6,178.2,358.9z M243,242.5c-0.9,0.5-3.8,3.2-4.1,3.8
				c-0.1,0.2-0.2,0.6-0.1,0.8c0.4,1,0.6,2.1,1.2,2.9c0.7,1,0.8,2.1,1.4,3.1c0.3,0.5,0.1,0.9-0.4,1.1c-1.4-0.7-1.6-0.9-1.9-1.5
				c-0.5-1.2-0.9-2.4-1.4-3.6c-0.1-0.2-0.2-0.4-0.4-0.6c-0.2,0.1-0.5,0.1-0.7,0.2c-1.3,0.4-2.6,0.1-3.7-0.7
				c-0.6-0.4-1.1-0.9-1.6-1.4c-1.5-1.5-3-3-4.5-4.6c-0.5-0.5-1-1.2-1.8-1.5c-1.3,1.5-3.1,2.5-4.2,4.2c0.4,1.2,0.1,2.5,0.8,3.7
				c1.9,0.4,3.2,1.6,4.7,2.7c0.3,0.2,0.3,0.5,0.1,0.8c-0.2,0.3-0.5,0.4-0.8,0.3c-0.7-0.2-1.4-0.4-1.9-0.9c-0.7-0.5-1.5-0.7-2.4-0.9
				c0,0.7,0,1.4-0.1,2c0,0.5-0.1,1-0.4,1.3c-0.5,0.8-1.1,1.7-1.8,2.4c-1.2,1.4-1.9,2.9-2.4,4.7c-0.1,0.2-0.1,0.5-0.2,0.7
				c-0.2,0.2-0.4,0.5-0.7,0.5c-0.2,0-0.5-0.3-0.7-0.5c-0.4-0.7-0.3-1.5-0.1-2.2c0.4-1.5,1-3,2.1-4.2c1.2-1.4,2.1-3,2-5
				c-0.1-0.9,0.1-1.8,0.1-2.7c0-0.2,0.1-0.5-0.3-0.6c-0.5,0.3-0.8,0.9-1.2,1.4c-0.7,0.8-1.3,1.5-2,2.3c-0.9,1-1.9,1-3.1,0.6
				c-0.4-0.2-0.8-0.4-1.3-0.6c-0.6,0.5-1,1.1-1.4,1.7c-0.5,0.7-1,1.3-1.6,1.9c-0.4,0.4-1.1,0.2-1.3-0.4c-0.1-0.5,0-0.9,0.3-1.3
				c0.7-0.9,1.4-1.7,2-2.6c-1.6-1.6-3.2-3.2-4.8-4.8c-0.1-0.1-0.2,0-0.4,0c-0.1,0.5-0.2,0.9-0.2,1.4c-0.2,1.9-0.6,3.7-1.3,5.5
				c-0.7,1.8-1.4,3.5-2.2,5.2c-2.1,4.8-4.3,9.6-6,14.6c-0.6,1.7-1.3,3.3-2.2,4.8c-1.9,3.4-4,6.7-6,10c-1.1,1.9-2.5,3.6-4.5,4.7
				c-0.3,0.1-0.5,0.3-0.7,0.6c-0.2,0.3-0.3,0.6-0.5,0.9c1.2,1.1,2.2,2.2,3.5,3.1c4.1,3,8.4,5.6,12.7,8c1.2,0.7,2.2,0.6,3.3-0.1
				c0.7-0.4,1.3-1,2.1-1.3c1.8-0.8,3.5-1.6,5.3-2.4c0.7-0.3,1.5-0.3,2.3-0.1c0.8,0.1,1.3,0.9,0.9,1.7c-0.1,0.3-0.4,0.6-0.5,0.9
				c-0.1,0.4-0.4,0.8-0.1,1.4c1.3-0.4,2.6-0.7,3.9-1.1c0.3-0.1,0.6-0.2,0.9-0.2c0.8-0.1,1.4,0.3,1.6,1.1c0.2,0.8,0.2,1.6-0.2,2.4
				c-0.5,1.2-0.9,2.4-1.4,3.7c1.1,0,2.1-0.3,3-0.6c0.5-0.2,1-0.3,1.5-0.3c1.4,0,1.8,0.4,1.9,1.8c0,0.7,0.1,1.4,0.1,2.1
				c0.5,0.3,0.9,0.5,1.3,0.7c2.1,0.9,4.3,1.7,6.4,2.5c3.5,1.3,7,2.6,10.5,3.9c3.5,1.4,6.9,3.1,10.1,5.1c3.2,2,6.3,3.9,9.5,5.9
				c0.6,0.4,1.3,0.6,1.9,1c1.1,0.7,2.2,1.4,3.3,2.1c0.8,0.5,1.8,0.9,2.5,1.6c1.2,1.2,2.6,2,4.1,2.7c1.6,0.7,2.9,1.8,4.2,3
				c0.4,0.4,0.9,0.7,1.4,1c1.2,0.7,2.4,1.3,3.6,2c0.2,0.1,0.4,0.2,0.6,0.3c0.4-0.4,0.8-0.8,1.2-1.1c0.7-0.5,1.3-1,2.1-1.3
				c1-0.5,1.7-0.1,2.2,0.9c0.2,0.4,0.3,0.8,0.4,1.2c0.2,1,0.3,2,0.4,3c0,0.2-0.1,0.6,0.4,0.7c0.3-0.5,0.5-1.1,0.7-1.8
				c0.4-1.4,0.9-2.7,1.9-3.7c0.2-0.3,0.5-0.5,0.6-0.9c1.8-3.3,4.2-6.3,6.2-9.5c0.6-0.9,1.1-1.8,1.2-2.9c0.1-0.6,0.3-1.2,0.6-1.9
				c0.5-1.3,1-2.5,1.5-3.8c0.6-1.6,1-3.1,1.6-4.7c1.9-4.8,3.8-9.7,5.7-14.5c1.9-5,3.9-9.9,6.2-14.7c0.2-0.3,0.3-0.6,0.4-1
				c-1.1-1.1-2.2-2.2-3.4-3.2c-1.5-1.2-3.2-2.2-4.6-3.6c-0.2-0.2-0.6-0.4-0.9-0.5c-1.8-0.9-3.6-1.9-5.4-2.7c-4.4-2-8.4-4.5-12.4-7.2
				c-2.3-1.6-4.6-3.1-7-4.4c-3.3-1.8-6.7-3.3-10-5c-1.5-0.8-3.1-1.5-4.5-2.4c-3.9-2.4-7.6-5-11.1-8c-3.3-2.8-6.8-5.4-10.4-7.7
				C244.1,243.2,243.5,242.8,243,242.5z M221.3,315.4c-0.2,0.7-0.4,1.3-0.6,1.9c-0.1,0.4-0.3,0.9-0.5,1.3c-0.4,0.7-0.8,1.3-1.2,2
				c-0.6,1.2-1.3,2.4-2.4,3.3c-0.6,0.5-1.3,1-1.9,1.6c-1,1-2,1.9-3.1,2.6c-0.5,0.3-1,0.7-1.3,1.2c-0.6,0.8-1.3,1.3-2.1,1.9
				c-1.7,1.4-3.6,2.4-5.1,4.1c-0.2,0.3-0.6,0.5-0.9,0.6c-0.8,0.4-1.5,1-2.1,1.6c-0.6,0.6-1.3,1.1-2,1.7c-1.4,1.1-2.7,2.2-4.1,3.4
				c-0.3,0.2-0.6,0.4-0.9,0.6c-1.7,1.2-3.7,2.1-5.6,2.9c-0.7,0.3-1.3,0.7-2,1.1c0.1,0.4,0.1,0.7,0.1,0.9c0.2,0.7,0.4,1.4,0.5,2.1
				c0.6,3.7,1.1,7.4,0.9,11.1c0,0.9,0.1,1.9,0.2,2.8c0.8,0.8,1.6,1.6,2.4,2.4c0.2,0.2,0.5,0.2,0.8,0.4c0.1-0.2,0.2-0.4,0.2-0.5
				c0.4-2,0.5-4,1-5.9c0-0.2,0.1-0.4,0-0.5c-0.3-2,0.4-3.9,0.6-5.8c0.1-1,0.5-1.9,0.5-3c0-1.1,0.6-2,0.6-3.1c0-0.8,0.6-1.2,1.4-1.4
				c1.6-0.2,2.7,0.9,3.2,2c0.4,0.9,0.8,1.7,1.2,2.6c1.6,3.3,3.5,6.4,4.6,10c0,0.1,0.2,0.2,0.3,0.2c0.7-0.8,1.3-1.6,1.9-2.3
				c0.2-0.3,0.4-0.6,0.6-0.9c0.9-1.9,2.6-3.1,3.6-4.8c0.1-0.1,0.2-0.3,0.4-0.3c0.9-0.3,1.3-1.2,1.8-1.9c0.3-0.4,0.5-0.9,0.9-1.3
				c0.3-0.3,0.8-0.6,1.2-0.6c1.6-0.3,2.7,1,2.7,2.1c0,1.8,0,3.7,0,5.5c0,1.2,0.1,2.4,0.3,3.5c0.1,0.8,0.2,1.6,0.2,2.5
				c0,5.1,0,10.2,0,15.3c0,1-0.1,2-0.2,3c0,0.2-0.1,0.4,0,0.5c0.6,1.8,0.4,3.7,0.5,5.6c0,1.5,0.1,3.1-0.3,4.6c0,0.1,0.1,0.2,0.1,0.3
				c0.8-0.2,1.7-0.6,2.6-0.6c2.1-0.1,4.3-0.3,6.4,0c4.7,0.5,9.2,2,13.5,4.2c1.6,0.9,3.2,1.8,4.8,2.6c2.6,1.3,5.2,2.6,7.9,3.6
				c4.5,1.7,9.2,2.3,13.9,1.4c1.9-0.4,3.8-0.8,5.7-1.2c1.4-0.3,2.7-0.9,3.9-1.7c0.5-0.3,1-0.7,1.5-1c1.8-1,2.9-2.5,3.7-4.4
				c0.7-1.7,1.5-3.5,2.3-5.2c1.6-3.5,2.8-7.1,3.8-10.9c0.7-2.8,1.5-5.6,2.3-8.4c1.6-5.5,3.2-11,4.8-16.5c0.1-0.4,0.4-0.7,0-1.2
				c-2.8,1.7-5.7,3.3-8.1,5.7c-0.4,0.5-0.9,0.9-1.5,1.3c-0.3,0.2-0.8,0.3-1.1-0.2c0.2-0.8,0.4-1.6,0.5-2.4c0.1-0.9,0.1-1.8,0.1-2.7
				c0-2.3,0-4.6,0-6.9c0-0.9-0.1-1.9-0.2-2.8c0-0.3,0-0.6-0.5-0.7c-1,0.5-1.7,1.4-2.3,2.3c-2.1,2.8-4.3,5.7-6.4,8.5
				c-0.6,0.9-1.1,1.8-1.5,2.8c-0.4,0.8-0.7,1.6-1.1,2.4c-0.5,1-1.9,1.1-2.5,0.3c-0.2-0.3-0.3-0.6-0.4-1c-0.3-1.1-0.5-2.2-0.8-3.3
				c-1.2-3.3-2.5-6.6-3.8-9.9c-0.1-0.2-0.1-0.6-0.6-0.6c-0.5,0.9-1.1,1.7-1.3,2.7c-0.4,1.9-1.3,3.6-1.4,5.5
				c-0.1,1.1-0.6,2.2-0.8,3.3c-0.5,3-1,5.9-1.5,8.9c-0.1,0.4-0.2,0.8-0.3,1.2c-0.8,3.8-1.5,7.5-1.5,11.4c0,1.4,0,2.8,0,4.3
				c0,0.6-0.3,0.9-0.8,1c-0.5,0.1-0.9-0.2-1.1-0.7c-0.1-0.4-0.2-0.8-0.2-1.2c-0.1-3.4-0.2-6.9,0.4-10.3c0.6-3.1,1.1-6.2,1.6-9.3
				c0.4-2.3,0.7-4.6,1.4-6.8c0.6-2.2,0.5-4.6,1.6-6.7c0.1-0.2,0.1-0.6,0.2-0.9c0.1-0.4,0.2-0.9,0.5-1.3c0.4-0.6,0.7-1.2,0.8-1.9
				c0.1-1,0.8-1.9,1.5-2.6c0.7-0.7,1.6-0.5,2.1,0.3c0.2,0.3,0.4,0.7,0.5,1.1c1,2.4,2.1,4.8,3.1,7.2c0.1,0.3,0.3,0.7,0.7,1
				c0.1-0.5,0.3-0.9,0.2-1.2c-0.3-0.8-0.2-1.6-0.2-2.5c0-0.3-0.1-0.7-0.2-1c-0.3-0.9-0.5-1.8-0.8-2.7c-0.1-0.4-0.2-0.8-0.4-1.2
				c-0.5-1.5-1.6-2.7-2.5-4c-0.6-1-1.4-1.7-2.3-2.1c-1.1-0.5-2-1.2-2.9-1.9c-0.6-0.5-1.3-0.9-1.7-1.6c-0.2-0.3-0.5-0.4-0.8-0.7
				c-2.1-1.6-4.4-2.7-6.7-3.9c-0.7-0.4-1.4-0.5-2.2-0.3c-0.6,0.2-1.2,0.2-1.9-0.1c-0.9-0.3-1.9-0.3-2.8,0c-1.3,0.3-2.5,0.6-3.8,0.8
				c-1.8,0.2-3.3,0.9-4.7,1.9c-0.5,0.4-1.1,0.6-1.7,0.9c-0.3,0.1-0.7,0.1-0.8-0.2c-0.1-0.2,0-0.6,0.1-0.8c0.3-0.4,0.7-0.6,1-1
				c1.3-1.4,2.9-2.2,4.7-2.6c2.3-0.6,4.6-1,7-1.5c-0.2-0.2-0.3-0.4-0.5-0.5c-0.9-0.5-1.9-1-2.8-1.5c-4.2-2.1-8.7-3.6-13.1-5.3
				c-2.7-1-5.4-2.1-8.1-3.1C222.1,315.7,221.7,315.6,221.3,315.4z M284.5,266.7c0.2,0.1,0.3,0.3,0.5,0.4c2.1,1.4,4.2,2.8,6.3,4.2
				c2.5,1.6,5.1,3,7.7,4.3c1.9,0.9,3.8,1.9,5.7,2.8c1.4,0.7,2.9,1.3,4,2.6c0.4,0.4,0.9,0.7,1.4,1.1c0.9,0.6,1.9,1.3,2.8,1.9
				c0.7,0.5,1.4,0.9,1.9,1.6c0.1,0.2,0.5,0.3,0.7,0.4c0.6-1,1.2-1.9,1.8-2.8c0.6-0.9,1.3-1.8,2-2.7c0.6-0.8,1.6-1.3,2.1-2.3
				c-0.2-1-0.8-1.6-1.4-2.1c-1.3-1-2.6-1.9-3.8-2.8c-3.7-2.7-7.4-5.3-11.4-7.5c-4.3-2.3-8.7-4.6-13-6.8c-0.4-0.2-0.7-0.3-1.1-0.5
				c-0.5,0.4-0.9,0.7-1.3,1c-0.2,0.1-0.3,0.3-0.4,0.6C287.9,262.5,286.1,264.5,284.5,266.7z M284.6,262.4c1.2-0.9,1.7-1.9,2.2-3
				c0.3-0.5,0.5-1,0.9-1.5c0.9-1,1.2-2.3,1.4-3.6c0.1-1,0-2-0.2-3c-0.2-1.1-0.5-2.2-1.5-2.9c-0.7-0.5-1.4-1.1-1.9-1.8
				c-1-1.1-1.8-2.3-2.8-3.4c-0.3-0.3-0.6-0.5-0.9-0.8c-0.3-0.3-0.7-0.5-1-0.8c-0.8-0.9-1.9-1.2-3-1.2c-1.1,0-2.1,0-3.2,0
				c-1.2-0.1-2.3,0.2-3.4,0.5c-0.3,0.9-0.4,1.7-0.3,2.5c0.2,1.8,0.3,3.5,0,5.3c-0.3,1.2-0.1,3.2,0.2,4.4c0.7-0.5,1.4-0.9,2-1.4
				c0.7-0.5,1.4-0.9,2.2-1c0.8-0.1,1.4,0.3,1.6,1c0.2,1,0.6,1.9,0.7,2.9c0,1,0.4,2,0.6,3.2c0.5-0.2,0.9-0.3,1.2-0.6
				c0.8-0.7,1.7-1.5,2.1-2.6c0.2-0.4,0.7-0.4,0.9-0.1c0.7,1,1.3,2.1,1.5,3.4C284.1,259.5,284.3,260.8,284.6,262.4z M274.9,253.5
				c-1.6,0.7-1.9,1-2.7,2c-0.4,0.6-0.9,1.1-1.3,1.6c-0.5,0.5-1.1,0.7-1.8,0.5c-0.7-0.3-0.9-0.9-0.9-1.6c0-0.1,0-0.1,0-0.2
				c0-2.1,0-4.3,0-6.4c0-0.5,0.1-1.1,0.3-1.6c0.2-0.6,0.3-1.3,0.2-1.9c-1.7-0.7-1.7-0.7-2.7-1.9c-0.5-0.5-0.9-1.1-1.4-1.6
				c-0.2-0.3-0.5-0.5-0.8-0.8c-0.4,0.4-0.8,0.6-1.1,0.9c-1.3,1-2.6,2.1-3.3,3.6c-0.3,0.7-1,1-1.6,1.4c-0.8,0.4-1.5,0.4-2.2-0.1
				c-0.3-0.2-0.6-0.5-0.9-0.8c-2.4-2.4-4.8-4.9-7.2-7.3c-0.2-0.2-0.4-0.4-0.7-0.6c-0.9,0.8-1.8,1.4-2.3,2.3c0.2,0.2,0.2,0.3,0.3,0.3
				c4.3,2.5,8.2,5.6,12,8.8c3.4,2.8,7.1,5.4,10.8,7.7c0.9,0.6,1.8,1.1,2.8,1.5c3.4,1.7,6.8,3.3,10.2,5c0.3,0.1,0.6,0.4,1,0.2
				c0.4-1.8,0.4-4.6,0.1-5.9c-0.1,0-0.3,0-0.3,0.1c-0.7,0.8-1.9,1.2-2.4,2.3c-0.3,0.6-1,0.8-1.7,0.6c-0.6-0.2-0.9-0.7-0.9-1.4
				c-0.1-0.8-0.3-1.6-0.3-2.4c-0.1-1.2-0.7-2.4-0.6-3.7C275.3,254,275,253.8,274.9,253.5z M204.7,169.4c-0.6-0.7-1-1.1-1.3-1.6
				c-1.6-2.4-3.1-4.9-5-7.1c-0.1-0.1-0.2-0.3-0.3-0.4c-0.3-1-0.9-1.8-1.5-2.6c-0.8-1-1.4-2-2.1-3c-0.4-0.5-0.8-1-1.5-1.2
				c-0.4,0.7-0.8,1.3-1.2,2c-0.2,0.4-0.4,0.8-0.7,1c-0.6,0.6-0.9,1.4-1.1,2.2c-0.3,0.8-0.6,1.6-1,2.4c-0.4,0.9-1,1.7-1.4,2.6
				c-0.8,1.6-1.4,3.3-2.2,4.8c-0.8,1.5-1.4,3-2.1,4.5c-0.1,0.3-0.3,0.5,0,0.8c0.1,0,0.2,0,0.3-0.1c1.7-0.9,3.6-1.4,5.6-1.6
				c0.4,0,0.8-0.2,1.2-0.3c1.9-0.4,3.6-1.4,5.7-1.3c0.1,0,0.2-0.1,0.3-0.1c0.7-0.1,1.4-0.2,2.1-0.3c0.3,0,0.6,0,0.9-0.1
				c0.9-0.5,1.8-0.4,2.8-0.5C202.7,169.5,203.6,169.7,204.7,169.4z M177.8,176c-0.5-0.3-0.9-0.6-1.3-0.9c-0.4-0.3-0.8-0.7-1.2-1
				c-1.8-1.3-3.4-2.7-5.4-3.7c-0.3-0.1-0.5-0.3-0.7-0.5c-0.9-0.9-2-1.5-3-2.2c-1.2-0.8-2.4-1.5-3.6-2.2c-0.7-0.4-1.5-0.1-1.7,0.7
				c0,0.2,0,0.4-0.1,0.5c-0.1,3,0.2,5.9,1,8.8c0.2,0.8,0.3,1.5,0.3,2.3c0,2.8,0,5.6,0,8.3c0,0.3-0.1,0.6,0.4,0.8
				c1-1.1,2.3-2.1,3.5-3.1c1.8-1.5,3.5-3,5.6-4c0.3-0.2,0.6-0.4,0.9-0.6c0.6-0.4,1.2-0.8,1.8-1.2c0.5-0.4,1.1-0.7,1.6-1.1
				C176.5,176.5,177,176.3,177.8,176z M149.7,209.3c-0.8,0-1.4-0.1-2.1,0c-2.2,0.4-4.4,0.8-6.6,1.2c-1.2,0.2-2.4,0.5-3.6,0.8
				c-1.9,0.5-3.8,0.9-5.7,1.4c-0.5,0.1-0.9,0.4-1.6,0.6c0.5,0.6,0.8,1,1.2,1.4c0.4,0.5,0.9,0.9,1.4,1.4c0.2,0.2,0.4,0.5,0.6,0.7
				c1.3,1.2,2.7,2.3,4,3.5c0.8,0.7,1.6,1.4,2.3,2.2c1.2,1.3,2.7,2.2,4.3,3.1c0.4-0.8,0.9-1.5,1.2-2.3c0.6-2,1.2-4.1,1.7-6.1
				c0.3-1,0.6-1.9,1.1-2.8C148.6,213.5,149.5,210.9,149.7,209.3z M159.6,189.9c-1.9-0.6-3.6-1.2-5.3-1.7c-3.8-1.1-7.9-1.7-11.7-3
				c-0.3-0.1-0.7,0-1,0c0.1,1,0.4,1.8,0.8,2.6c1.5,3.2,2.9,6.5,4.4,9.7c0.3,0.6,0.6,1.3,0.9,1.9c0.6,1.1,1.2,2.2,1.8,3.2
				c0.4,0.8,0.9,1.5,1.8,2c0.7-1.2,1.2-2.3,1.7-3.5c1-2.5,2-4.9,3.6-7.1c0.7-1,1.5-2,2.2-3C159.1,190.7,159.3,190.4,159.6,189.9z
				 M119.2,291.7c0.3-0.8,0.5-1.2,0.7-1.6c1.4-4,3.1-7.9,5.3-11.6c1-1.7,1.8-3.5,2.7-5.2c0.2-0.3,0.3-0.7,0.4-1.2
				c-1.7,0.5-3.3,0.9-4.9,1.4c-1.5,0.4-3.1,0.8-4.6,1.3c-1.6,0.5-3.1,1.1-4.7,1.6c-1.5,0.5-3.1,1.1-4.9,1.7
				C112.7,282.5,115.7,287.1,119.2,291.7z M137.7,249.2c0.2-0.3,0.3-0.3,0.3-0.4c0.4-1.8,1.2-3.5,1.4-5.4c0-0.4,0.1-0.8,0.3-1.2
				c0.7-1.8,1.1-3.7,1.3-5.6c0.1-1.2,0.4-2.4,0.9-3.6c0.3-0.7,0.5-1.6,0.7-2.4c0.1-0.2,0-0.5-0.1-0.9c-0.8,0.3-1.6,0.6-2.3,0.8
				c-1.4,0.5-2.9,1.2-4.3,1.5c-3.5,0.9-6.4,2.9-9.6,4.3c0.2,0.9,0.7,1.4,1.3,1.9c2.4,2.1,4.1,4.7,6.3,6.9c0.3,0.3,0.5,0.7,0.7,1
				C135.6,247.2,136.6,248.2,137.7,249.2z M129.4,269.3c0.2-0.1,0.3-0.2,0.4-0.3c1-2.2,2.1-4.4,3.1-6.6c1.1-2.6,2-5.3,3-8
				c0.3-0.9,0.5-1.9,0.6-3c-0.5,0.2-0.9,0.3-1.3,0.5c-1.1,0.5-2.3,1-3.4,1.4c-3.4,1.3-7,2.2-10.6,2.8c-0.3,0-0.6,0-0.7,0.4
				C121.3,258.3,128.1,267.9,129.4,269.3z M103.7,301.3c0.5,0.6,0.9,1.1,1.3,1.5c0.2,0.3,0.5,0.6,0.7,0.7c0.9,0.4,1.5,1.2,2.2,1.8
				c0.5,0.5,1,1.1,1.6,1.4c1.1,0.7,2,1.6,3,2.5c0.6,0.6,1.2,1.1,2,1.3c0.2-0.4,0.3-0.8,0.5-1.2c1-1.5,1.3-3.1,1.5-4.8
				c0.2-1.6,0.4-3.2,1-4.6c0.6-1.4,0.4-2.7,0.3-4.1c-0.5,0.2-1,0.5-1.4,0.6c-1.9,0.3-3.6,1.2-5.3,1.9c-0.2,0.1-0.4,0.2-0.7,0.3
				c-1.1,0.3-2.2,0.5-3.2,0.8c-0.9,0.2-1.7,0.5-2.5,0.8C104.1,300.3,103.8,300.6,103.7,301.3z M109.5,330.8c0.2-0.9,0.3-1.7,0.5-2.6
				c0.2-0.9,0.4-1.9,1-2.6c0.5-0.7,0.8-1.4,0.9-2.3c0-0.4,0.2-0.8,0.3-1.2c0.4-1.8,0.9-3.7,1.3-5.5c0.1-0.3,0-0.5,0.1-0.8
				c-1.9,0.8-3.7,1.5-5.5,2.2c-2.9,1.2-5.7,2.4-8.7,3.4c-0.2,0.1-0.3,0.3-0.5,0.5c0.6,0.5,1.3,0.9,1.7,1.4c0.9,1.1,2,1.9,3,2.7
				c1,0.8,2,1.6,2.9,2.5c0.5,0.5,1.1,1.1,1.6,1.6C108.4,330.6,108.8,330.9,109.5,330.8z M108.1,353.5c0.1-0.1,0.2-0.1,0.3-0.2
				c0-0.7-0.1-1.4-0.1-2.1c0-0.8,0-1.5,0-2.3c0-0.7,0-1.4,0-2.1c0-0.7,0-1.4,0-2.1c0-0.8,0-1.5,0-2.3c0-0.7,0-1.4,0-2.1
				c0-0.8,0.1-1.5,0.1-2.3c0.1-1.1,0.1-1.1-0.1-2c-0.1,0-0.2,0-0.3,0c-0.2,0.1-0.3,0.1-0.5,0.3c-1.1,1.2-2.6,1.8-4,2.5
				c-1.5,0.8-2.8,1.8-4,2.7c-0.3,1.1,0,1.8,0.8,2.5c0.4,0.3,0.7,0.6,1,1c1.1,1.9,2.9,3.2,4.1,5.1c0.3,0.5,0.8,1,1.2,1.5
				C107.1,352.3,107.6,352.9,108.1,353.5z M82.9,305c-2.5-0.8-4.8-1.4-7.2-1.2c-1.6,0.1-3.2,0-4.8,0c-0.3,0-0.6,0-0.9,0.1
				c-0.1,0.7,0.2,1.3,0.4,1.9c0.7,2.3,1.2,4.6,1.6,6.9c0.1,0.7,0.2,1.4,0.4,2.1c0.1,0.4,0.1,0.8,0.6,1c0.6-0.6,1.3-1.1,1.9-1.8
				c1-1.1,1.8-2.3,2.8-3.4c0.8-0.9,1.5-1.9,2.5-2.5C81.3,307.2,81.8,306,82.9,305z M85.7,318c-0.7-0.5-1.4-0.5-2.2-0.6
				c-2.7,0-5.4,0-8.1-0.1c-0.8,0-1.2,0.3-1.5,1c0.7,2.7,2.9,8.5,3.6,9.5c0.6-0.3,0.8-0.8,1.2-1.3c0.2-0.3,0.4-0.7,0.7-1
				c1.3-1.3,2.3-2.8,3.5-4.2c0.4-0.5,0.7-0.9,1.3-1.2C85.1,319.8,85.6,319,85.7,318z M268.8,339.5c0.6,0.8,1,1.2,1.2,1.8
				c0.5,1.1,1.2,2.2,1.3,3.4c0,0.6,0.3,1.1,0.5,1.7c0.3,0.5,0.4,1.1,0.4,1.7c0,0.3,0,0.6,0.2,0.9c0.6,1.2,0.4,2.3,0,3.4
				c-0.3,1-0.3,1.1,0.1,3c1.2-1.7,2.2-3.2,3.3-4.7c1.2-1.5,2.4-3,3.6-4.6c-0.3-0.2-0.5-0.3-0.7-0.4c-1.3-0.8-2.6-1.5-3.8-2.3
				c-1.3-0.9-2.6-1.8-3.9-2.7C270.5,340.2,270,339.7,268.8,339.5z M69.2,299.7c0.5-0.6,1.1-1.1,1.5-1.7c1-1.6,2.1-3.1,3-4.8
				c0.5-0.9,0.9-1.8,1.5-2.6c0.6-0.8,1.1-1.6,1.5-2.6c-0.5-0.1-0.9,0.2-1.2,0.2c-0.5,0.1-0.9,0.1-1.4,0.2c-0.4,0.1-0.8,0.2-1.2,0.3
				c-0.2,0.1-0.5,0.1-0.7,0.2c-1,0.7-2.2,1-3.4,1.4c-0.3,0.1-0.6,0.3-0.8,0.5C67.8,293,68.5,298.1,69.2,299.7z M89.4,330.9
				c-0.2-0.1-0.4-0.2-0.5-0.2c-3.1,0-6.1,0-9.2-0.1c-0.1,0-0.2,0.1-0.4,0.2c2,2.8,4.6,4.9,6.9,7.4c0.6-0.4,0.7-0.9,0.8-1.4
				c0.2-0.9,0.5-1.8,1.1-2.6C88.8,333.4,89.1,332.2,89.4,330.9z"/>
			<path class="st12" d="M332.3,234.5c1.4,0.8,2.5,1.5,3.7,2.3c1.2,0.8,1.4,1.8,0.5,2.8c-0.7,0.8-1.5,1.5-2.3,2.2
				c-0.3,0.3-0.8,0.5-1.1,0.8c-3.5,3-7.1,5.9-10.8,8.7c-0.4,0.3-0.7,0.6-1,1c-0.5,0.6-1.2,0.8-1.8,1c-0.6,0.2-1.2,0-1.6-0.5
				c-0.4-0.5-0.4-1.3-0.1-1.8c0.2-0.2,0.4-0.5,0.6-0.7c1.3-1.5,2.6-2.9,3.9-4.4c0,0,0.1-0.1,0.1-0.1c1.8-1.5,2.8-3.4,4-5.4
				c1.2-1.9,2.6-3.5,4.3-4.9C331.2,235.1,331.8,234.8,332.3,234.5z"/>
			<path class="st12" d="M341.2,257.1c-1.5,0-2.9-0.1-4.4,0.2c-1.6,0.4-3.3,0.4-4.9,0.5c-0.2,0-0.5,0-0.7,0
				c-0.8-0.1-1.3-0.4-1.5-1.1c-0.2-0.6,0.1-1.2,0.8-1.6c0.9-0.5,1.8-0.9,2.7-1.3c0.6-0.3,1.2-0.6,1.7-0.9c0.5-0.3,1-0.6,1.6-0.8
				c0.3-0.1,0.6-0.2,0.8-0.4c1.5-1.4,3.4-2.1,5.2-3.1c1.2-0.6,2.7-0.1,3.2,1.1c0.7,1.7,0.8,3.5,0.6,5.4c-0.1,1-1,1.7-2.1,1.8
				C343.2,257.2,342.2,257.1,341.2,257.1z"/>
			<path class="st12" d="M297.6,249.7c-0.9,0-1.9,0-2.8,0c-1.6,0-2.7-0.8-3.6-2c-0.6-0.7-0.4-1.5,0.2-2c0.2-0.2,0.5-0.3,0.8-0.4
				c1.5-0.8,3-1.5,4.4-2.3c1.1-0.7,2.3-0.6,3.4-0.3c0.6,0.2,0.9,0.7,1.1,1.3c0.3,1.3,0.7,2.6,1,3.9c0.3,1.2-0.2,1.8-1.4,1.8
				C299.6,249.7,298.6,249.7,297.6,249.7C297.6,249.7,297.6,249.7,297.6,249.7z M298.9,244.5c-0.6-0.3-1.1-0.1-1.6,0.2
				c-0.8,0.5-1.7,0.9-2.5,1.3c-0.7,0.4-1.5,0.7-2.2,1c0,0.7,0.4,0.9,0.9,0.9c1.8,0,3.5-0.1,5.3-0.1c0.2,0,0.3-0.1,0.5-0.1
				C299.9,246.5,299.2,245.5,298.9,244.5z"/>
			<path class="st12" d="M326.8,259.3c0.3,2.1-0.3,2.9-2.4,2.8c-1.5-0.1-1.8-0.2-2.3-1.7c-0.1-0.2-0.1-0.4-0.2-0.7
				c-0.5-1.3,0.4-2.8,2-2.9c0.5,0,1.1,0,1.6,0.1c1.1,0.2,1.4,0.7,1.5,1.8C326.8,259.1,326.8,259.3,326.8,259.3z"/>
			<path class="st12" d="M313.1,255.3c0.5,0,0.8,0.1,1.1,0.1c1.5-0.1,2.5,2.1,1.6,3.7c-0.1,0.2-0.3,0.4-0.5,0.5
				c-1.7,0.9-4.1-0.5-4.1-2.5c0-1.2,0.5-1.7,1.7-1.7C313.1,255.3,313.2,255.3,313.1,255.3z"/>
			<path class="st12" d="M181.3,204.5c0.2,0,0.5,0.1,0.8,0.2c1.4,0.7,3,1,4.6,1.2c0.2,0,0.5,0.1,0.7,0.2c2.9,1.1,5.8,1.8,8.8,2.5
				c0.4,0.1,0.8,0.2,1.2,0.4c1.1,0.6,2.3,0.9,3.5,1.2c2.6,0.6,5.1,1.3,7.5,2.7c0.4,0.2,0.8,0.5,1.2,0.8c0.6,0.6,0.6,1.3,0.1,1.9
				c-0.3,0.4-0.6,0.7-1,1c-1.4,0.9-2.4,2.1-3.2,3.4c-0.3,0.6-0.8,1-1.2,1.5c-0.6,0.8-1.1,1.7-1.7,2.5c-0.3,0.4-0.6,0.8-0.9,1.1
				c-0.5,0.6-1.1,1.3-1.5,1.9c-0.7,1.1-1.7,1.6-3,1.7c-0.9,0.1-1.6-0.2-2.3-0.8c-2.3-2.1-3.9-4.5-5.2-7.3c-0.3-0.6-0.6-1.1-1.1-1.6
				c-1.2-1.5-2.2-3-3.1-4.7c-1-1.9-2.1-3.7-2.8-5.7c-0.3-0.8-0.9-1.2-1.5-1.7c-0.3-0.3-0.7-0.6-1-1c-0.4-0.6-0.1-1.2,0.6-1.3
				C181,204.6,181.1,204.6,181.3,204.5z M208,214.7c-0.6-0.6-1.3-0.8-1.9-1.1c-1.9-0.7-3.9-1.1-5.8-1.5c-1.2-0.3-2.4-0.5-3.5-1.1
				c-0.5-0.2-1-0.3-1.5-0.4c-2.2-0.6-4.5-0.9-6.6-2c-0.9-0.5-2-0.8-3.1-0.4c-0.1,1,0.2,1.8,0.7,2.6c0.4,0.6,0.9,1.3,1.2,2
				c0.9,1.9,2.2,3.6,3.6,5.2c0.3,0.3,0.7,0.7,0.8,1.2c0.5,1.7,1.7,3,2.6,4.4c0.5,0.8,1.3,1.5,2.1,2.2c0.4,0.4,1,0.3,1.4-0.2
				c0.5-0.5,0.9-1.1,1.3-1.6c0.5-0.6,1.1-1.3,1.6-1.9c1.7-2,3.3-4.1,5.3-5.9C206.8,215.7,207.4,215.2,208,214.7z"/>
			<path class="st12" d="M256.4,199.8c0.3,0.1,0.7,0.2,1.1,0.4c0.4,0.2,0.5,0.8,0.3,1.1c-0.8,1.2-1.1,2.7-1.7,4.1
				c-0.3,0.7-0.6,1.4-1.1,2c-0.3,0.4-0.5,0.9-0.7,1.4c-0.4,1.1-0.8,2.2-1.5,3.2c-0.4,0.6-0.6,1.3-0.9,1.9c-0.7,1.8-1.4,3.5-1.9,5.3
				c-0.3,1.2-0.9,2.3-1.3,3.5c-0.4,1.1-1.4,1.5-2.4,0.8c-0.8-0.6-1.4-1.3-1.9-2.1c-0.5-0.9-1.1-1.8-1.7-2.7
				c-0.2-0.3-0.3-0.5-0.4-0.8c-0.5-1.4-1.5-2.5-2.4-3.6c-0.5-0.7-1-1.4-1.5-2.2c-0.4-0.6-0.3-1.1,0.1-1.7c0.7-0.8,1.3-1.6,2.4-2
				c0.9-0.3,1.7-0.8,2.5-1.3c1.8-1.1,3.6-2.3,5.4-3.3c1.7-0.9,3.2-1.9,4.8-3C254.5,200.3,255.4,200,256.4,199.8z M254,203.1
				c-0.3,0.3-0.7,0.6-1.1,0.9c-0.4,0.3-0.7,0.6-1.2,0.8c-1,0.3-1.8,0.9-2.6,1.5c-2.4,1.5-4.7,3.2-7.3,4.3c-1.3,0.5-1.3,1.1-0.4,2.1
				c0.2,0.2,0.4,0.3,0.5,0.5c0.7,1,1.6,1.9,2.2,3c0.7,1.6,2,2.8,2.7,4.5c0.3-0.3,0.4-0.5,0.5-0.7c0.2-0.4,0.2-0.9,0.4-1.4
				c0.9-1.9,1.5-3.9,2.2-5.8c0.2-0.7,0.5-1.3,0.9-1.9c0.6-1,1.1-2,1.4-3c0.2-0.7,0.5-1.4,0.9-1.9C253.7,205.2,254,204.3,254,203.1z"
				/>
			<path class="st12" d="M210.7,397.9c0.2,2.8-0.7,5.4-1.9,8c-0.5,0.9-1.1,1.7-2,2.2c-0.5,0.3-1,0.5-1.5,0.6
				c-1.8,0.2-3.7,0.2-5.4-0.6c-0.8-0.4-1.6-0.8-2.1-1.6c-1.4-1.7-2.3-3.7-2.8-5.8c-0.4-1.7-0.6-3.4-0.5-5.1c0-0.7,0.2-1.4,0.5-2
				c0.4-0.8,0.8-1.6,1.2-2.4c0.2-0.5,0.4-1.1,0.6-1.6c0.1-0.3,0.2-0.6,0.4-0.8c0.5-0.6,1-1.1,1.5-1.7c0.4-0.6,1-0.9,1.7-0.9
				c1.3-0.1,2.6-0.3,3.9-0.1c1.3,0.2,2.5,0.7,3.2,1.9c0.5,0.9,1.4,1.5,1.8,2.6C210.2,392.9,210.8,395.3,210.7,397.9z M208.6,397.5
				c0.3-1.8-0.4-3.5-0.7-5.3c-0.2-1.5-1.4-2.6-2.2-3.8c-0.3-0.4-0.8-0.7-1.4-0.6c-0.9,0.1-1.8,0.1-2.6,0.3c-1,0.2-2,0.4-2.3,1.5
				c-0.4,1.7-1.2,3.2-1.9,4.7c-0.2,0.5-0.3,1-0.3,1.5c-0.1,1.3,0.2,2.6,0.5,3.8c0.3,1.5,0.9,2.9,1.7,4.2c0.6,1,1.5,1.6,2.6,2
				c1,0.3,2.1,0.2,3.2,0.2c0.3,0,0.7-0.2,0.9-0.4c0.4-0.4,0.8-0.9,1.1-1.4C208.1,402.3,208.7,400,208.6,397.5z"/>
			<path class="st12" d="M170.6,252.8c0.1-0.7,0.3-1.4,0.4-2.1c0.1-0.6,0.1-1.2,0.2-1.8c0-0.4,0-0.7,0-1.1c0.1-0.9,0.8-1.4,1.6-1.2
				c1.9,0.5,3.8,1.1,5.7,1.7c0.5,0.2,0.8,0.6,1.2,1c0.3,0.3,0.6,0.6,0.9,0.8c0.7,0.6,0.7,1.7-0.2,1.9c-1,0.2-1.8,0.9-2.8,1.1
				c-0.8,0.2-1.5,0.6-2.2,1c-0.9,0.5-1.9,0.9-3,0.9c-1.2,0-1.6-0.4-1.7-1.5C170.7,253.4,170.7,253.1,170.6,252.8
				C170.7,252.8,170.6,252.8,170.6,252.8z M173.2,249.1c0.3,1.3-0.6,2.4-0.3,3.7c0.3-0.1,0.6-0.1,0.8-0.2c1.3-0.5,2.5-1.4,4-1.8
				c0.2,0,0.3-0.4,0.5-0.7C176.5,249.9,175.1,249,173.2,249.1z"/>
			<path class="st12" d="M180,262.2c1.4-0.3,2.7,0.5,4,1c1.2,0.5,1.6,2.1,0.8,3.2c-0.9,1.2-1.8,2.3-2.8,3.4c-0.6,0.6-1.3,1-2,1.4
				c-1.1,0.6-2.3,0.2-2.8-0.9c-0.2-0.4-0.3-0.9-0.4-1.3c0-1.6,0-3.2,0-4.8c0-1.3,0.6-1.8,2-1.9C179.2,262.2,179.6,262.2,180,262.2z
				 M178.6,264c-0.2,1.7-0.1,3.3,0,5c0,0.1,0.2,0.3,0.3,0.5c1.9-0.9,3.1-2.5,4.2-4.3C181.8,263.5,180.3,263.9,178.6,264z"/>
			<path class="st12" d="M223.3,225.5c0-1,0.2-1.4,0.7-1.5c0.6-0.2,1,0.1,1.4,0.5c0.3,0.4,0.7,0.8,1,1.2c0.2,0.3,0.3,0.6,0.4,1
				c0.1,0.6-0.2,1-0.7,1.3c-0.4,0.2-0.9,0.2-1.3-0.1C223.8,227.2,223.3,226.3,223.3,225.5z"/>
			<path class="st12" d="M232,224.4c0,0.2,0,0.3,0,0.4c-0.2,0.6-0.4,1.2-0.7,1.8c-0.4,0.7-1.4,1-2.1,0.6c-0.6-0.3-0.9-1.1-0.7-1.6
				c0.3-0.6,0.7-1.2,1.1-1.8c0.5-0.6,1.5-0.6,2-0.1C231.8,223.9,231.9,224.2,232,224.4z"/>
			<path class="st12" d="M254.9,305.4c0,0.6,0,1.3,0,2c0.1,1.6-0.4,3.1-1.1,4.6c-0.1,0.3-0.4,0.5-0.4,0.8c-0.1,1.3-1,2.1-1.9,2.6
				c-1.2,0.7-2.7,1.4-4.1,1.6c-1.5,0.2-3.1,0.3-4.5-0.4c-0.1,0-0.1-0.1-0.2-0.1c-1.7,0.1-3.2-0.8-4.7-1.5c-2.3-1.1-4.5-2.3-6.7-3.6
				c-0.8-0.5-1.6-1.3-2.2-2.1c-2.1-2.5-3.2-5.4-2.7-8.7c0.3-1.7,1-3.3,2.8-4c1.9-0.8,3.8-1.7,5.7-2.3c1.8-0.5,3.6-1.1,5.5-1
				c0.8,0.1,1.7,0.1,2.5,0c1.4-0.2,2.7,0.5,4,0.7c0.2,0,0.4,0.2,0.6,0.3c0.2,0.2,0.4,0.4,0.7,0.5c1.6,0.5,2.6,1.7,3.6,2.7
				c0.3,0.3,0.5,0.5,0.8,0.7c1.4,1.2,2,2.9,2,4.7C254.9,303.9,254.9,304.7,254.9,305.4C254.9,305.4,254.9,305.4,254.9,305.4z
				 M252.6,305.4C252.6,305.4,252.6,305.4,252.6,305.4c0.1-0.7,0.1-1.4,0.1-2.1c0-1.1-0.3-2.2-1-2.9c-1.2-1.3-2.3-2.9-4.2-3.4
				c-0.2,0-0.3-0.2-0.4-0.3c-1.1-0.7-2.2-1.1-3.5-1.1c-3-0.1-5.9,0-8.8,0.9c-0.4,0.1-0.8,0.1-1.2,0.1c-1.9,0.1-3.2,1.1-4.1,2.7
				c-0.9,1.6-0.8,4.7,0.1,6.3c0.3,0.5,0.6,0.9,0.8,1.4c0.8,1.3,1.9,2.4,3.3,3.1c1.1,0.5,2.2,1.1,3.3,1.7c1.9,1.1,3.9,2.2,6.2,2.3
				c0.3,0,0.7,0.2,1,0.3c1,0.2,2.1,0.3,3.1,0c0.8-0.2,1.5-0.6,2.3-0.9c0.5-0.2,1-0.5,1.1-1c0.3-1.3,1.3-2.2,1.4-3.6
				c0.4-0.6,0.4-1.3,0.4-2C252.6,306.4,252.6,305.9,252.6,305.4z"/>
			<path class="st12" d="M219.3,276.8c-0.3-4.3,1.4-7.6,4-10.6c1.2-1.4,2.7-2.3,4.2-3.2c1.9-1.1,4.1-1.1,6.2-0.8
				c2.1,0.4,3.9,1.3,5.5,2.7c2.3,1.9,3.5,4.4,3.6,7.4c0,0.5,0,1.1,0,1.6c0.1,2.1-0.5,4-1.5,5.8c-2,3.6-4.7,6.5-8.5,8.3
				c-2,1-4.1,1.3-6.4,1.3c-0.8,0-1.5-0.4-2.1-0.8c-1.4-1-2.5-2.3-3.4-3.8c-1.1-2.1-1.8-4.2-1.8-6.6
				C219.3,277.6,219.3,277.1,219.3,276.8z M221.3,276.4c0.2,1.3,0.2,2.7,0.5,4c0.5,2.2,1.5,4.2,3.3,5.8c0.7,0.7,1.5,1,2.6,1
				c1.7,0,3.4-0.3,5-1.1c3-1.5,5.2-3.8,6.9-6.6c1.1-1.7,1.8-3.6,1.5-5.7c-0.1-0.5,0-0.9-0.1-1.4c-0.2-2.3-1.1-4.2-2.9-5.7
				c-2.3-2-5-2.9-8-2.5c-1.2,0.2-2.2,0.5-3,1.3c-1.4,1.2-2.7,2.5-3.6,4.1C222.1,271.7,221.1,273.9,221.3,276.4z"/>
			<path class="st12" d="M258.6,295.4c0-0.1,0-0.2,0-0.4c-0.2-2.7,0.9-4.8,2.6-6.7c0.4-0.5,0.8-1,1.1-1.6c0.9-1.4,1.7-2.9,2.9-4
				c0.2-0.2,0.3-0.5,0.5-0.7c0.2-0.2,0.4-0.4,0.7-0.6c1.4-0.7,2.8-0.8,4.3-0.6c0.3,0,0.7,0.2,1,0.3c0.3,0.1,0.7,0.3,1,0.3
				c1,0,1.7,0.4,2.3,1.1c0.9,1,2,1.8,2.7,3c1,1.6,1.7,3.3,1.6,5.3c0,0.1,0,0.1,0,0.2c0.2,2.1-0.1,4.1-1.3,5.9
				c-0.4,0.6-0.5,1.4-0.7,2.2c-0.4,1.5-1.3,2.6-2.6,3.5c-0.3,0.2-0.6,0.3-0.7,0.5c-1,1.1-2.2,1.5-3.5,1.9c-0.4,0.1-0.8,0.2-1.2,0.2
				c-1.2,0-2.5,0-3.7,0c-0.6,0-1.2-0.2-1.7-0.5c-0.5-0.4-1.1-0.7-1.7-1c-0.2-0.2-0.5-0.3-0.7-0.5c-1.7-2-3.2-4.2-2.9-7
				C258.6,295.8,258.6,295.6,258.6,295.4z M260.6,295.3c0,0.4,0,0.7,0,1c-0.1,2.2,1,3.9,2.5,5.3c0.9,0.9,2.2,1.7,3.7,1.4
				c0.4-0.1,0.8,0,1.2,0c1.7,0,3.3-0.4,4.5-1.6c0.2-0.2,0.5-0.4,0.7-0.5c1.2-0.6,1.7-1.5,2.1-2.7c0.2-0.8,0.5-1.7,0.9-2.5
				c0.8-1.3,1.1-2.7,1-4.2c-0.1-0.9,0-1.7-0.3-2.6c-0.6-2.2-1.9-3.8-3.5-5.2c-0.2-0.2-0.4-0.3-0.6-0.4c-1.4-0.4-2.8-0.5-4.2-0.4
				c-0.4,0.1-0.9,0.3-1.3,0.6c-0.7,0.7-1.4,1.5-1.9,2.3c-0.9,1.3-1.7,2.7-2.7,3.9C261.4,291.3,260.4,293.1,260.6,295.3z"/>
			<path class="st12" d="M280.6,301.3c0.1,1.5-0.1,2.5-1.1,3.5c-0.8,0.8-1.7,1.6-2.6,2.3c-0.8,0.7-1.8,0.9-2.8,0.8
				c-0.2,0-0.4-0.2-0.5-0.4c0-0.2,0.1-0.5,0.2-0.6c0.3-0.2,0.6-0.4,0.9-0.6c1.2-0.7,2.2-1.5,3.2-2.5c0.6-0.6,1.3-1.1,1.7-1.9
				C279.8,301.8,280.1,301.6,280.6,301.3z"/>
			<path class="st12" d="M216.7,278.6c0.1,0.1,0.3,0.3,0.4,0.5c0.1,0.5,0.3,1,0.3,1.5c0,1.6,0.7,2.9,1.5,4.3
				c0.3,0.4,0.5,0.8,0.4,1.3c-0.1,0.2-0.2,0.5-0.3,0.6c-0.2,0.1-0.4,0-0.6-0.1c-0.1,0-0.1,0-0.2-0.1c-2-2.3-3.1-4.8-1.7-7.9
				C216.4,278.7,216.5,278.7,216.7,278.6z"/>
			<path class="st12" d="M212.5,280.4c0.1,0.2,0.4,0.5,0.4,0.7c0.1,1.2,0.6,2.2,1.2,3.3c0.7,1.1,1.2,2.4,2.1,3.4
				c-0.1,0.6-0.5,0.6-0.8,0.5c-0.9-0.2-1.4-0.8-1.8-1.5c-0.5-0.9-0.9-1.8-1.4-2.7c-0.6-1.1-0.4-2.3,0-3.4
				C212.2,280.6,212.3,280.6,212.5,280.4z"/>
			<path class="st12" d="M273.9,311.6c0.7-0.4,1.2-0.7,1.7-1c1.4-0.9,2.8-1.7,4-2.9c0.4-0.4,0.8-0.8,1.4-0.9c0.2,0.4,0.1,0.7-0.1,1
				c-0.9,1.1-1.8,2.2-3,2.9c-0.8,0.4-1.5,0.9-2.3,1.3C275,312.3,275,312.2,273.9,311.6z"/>
			<path class="st12" d="M279.9,386.5c0.1,4.3,0.1,4.5-1.4,8.5c-0.2,0.6-0.5,1.2-1,1.6c-0.4,0.4-0.8,0.9-1.3,1.2
				c-0.5,0.4-1,0.8-1.6,1c-1.6,0.6-3.3,1-5,0.4c-0.6-0.2-1.2-0.4-1.9-0.6c-0.6-0.2-1-0.5-1.3-1.1c-0.2-0.3-0.3-0.6-0.6-0.9
				c-1.4-1.4-1.8-3.3-1.8-5.2c0-0.9,0.1-1.8,0.1-2.7c0-1.3,0.4-2.5,1.1-3.7c0.2-0.3,0.4-0.5,0.5-0.7c0.4-1.5,1.4-2.5,2.5-3.5
				c0.6-0.6,1.1-1.6,2.3-1.2c0,0,0.1,0,0.2-0.1c1-1.1,2.5-1,3.7-1.5c0.6-0.2,1.4-0.2,2.1-0.2c0.4,0,0.8,0.2,1.1,0.4
				c1.3,1.1,2.3,2.5,2.3,4.4C279.9,384,279.9,385.2,279.9,386.5z M277.7,386.1C277.7,386.1,277.7,386.1,277.7,386.1
				c0.1-1.1,0.1-2.1,0.1-3.2c0-1.1-0.5-2.1-1.1-2.9c-0.2-0.3-0.6-0.5-0.9-0.5c-0.5-0.1-0.9,0-1.4,0.1c-1.4,0.3-2.9,0.5-3.9,1.8
				c-0.1,0.1-0.2,0.1-0.3,0.2c-1.2,0.8-2.3,1.6-2.7,3.1c-0.2,0.5-0.5,0.9-0.8,1.4c-0.4,0.7-0.8,1.5-0.7,2.3c0,1.1,0.1,2.1,0.1,3.2
				c0.1,1.9,1.3,3.4,2.5,4.7c0.2,0.2,0.4,0.3,0.6,0.3c0.6,0.2,1.1,0.4,1.7,0.4c2.5,0.3,4.7-0.9,5.6-3.3c1.2-3.2,1.2-3.2,1.2-6.7
				C277.7,386.7,277.7,386.4,277.7,386.1z"/>
			<path class="st12" d="M300.6,272.7c-1,0-1.7-0.3-2.1-1.3c-0.1-0.3-0.3-0.5-0.4-0.8c-0.4-1.1-0.2-2,0.8-2.6c1.8-1.1,3-0.6,3.9,1.3
				C303.5,270.7,302.4,272.9,300.6,272.7z"/>
			<path class="st12" d="M306,273.5c0-0.2,0-0.4,0-0.5c0-1.4,1.5-2.4,2.9-1.5c0.5,0.3,0.9,0.7,1.3,1.2c0.9,1.4,0.2,2.7-0.8,3.4
				c-0.2,0.2-0.5,0.2-0.8,0.2c-1.2,0-2.5-1.2-2.6-2.4C305.9,273.8,306,273.6,306,273.5C306,273.5,306,273.5,306,273.5z"/>
			<path class="st12" d="M314.3,280.6c-0.1,0-0.6,0-1-0.2c-0.9-0.4-1-1.3-0.9-2.1c0.1-0.9,0.5-1.5,1.3-1.7c0.6-0.2,1.3-0.2,1.9,0.1
				c1.1,0.4,1.6,1.3,1.4,2.5c-0.2,0.9-0.8,1.4-1.9,1.4C314.9,280.6,314.7,280.6,314.3,280.6z"/>
			<path class="st12" d="M229.2,270.4c0-0.1,0-0.2,0-0.4c0.1-1.5,0.9-2.1,2.3-1.9c0.8,0.1,1.3,0.6,1.4,1.4c0.2,0.7,0.2,1.5,0.3,2.3
				c0,0.8-0.4,1.5-1,1.7c-0.8,0.3-1.5,0.2-2.1-0.5c-0.5-0.5-0.8-1.2-0.8-1.9C229.2,270.9,229.3,270.6,229.2,270.4
				C229.3,270.4,229.2,270.4,229.2,270.4z"/>
			<path class="st12" d="M267.8,288.3c0-0.2,0-0.5,0-0.7c0.1-0.8,0.6-1.3,1.4-1.3c0.9-0.1,1.6,0.3,1.7,1.2c0.1,0.6,0.2,1.2,0.1,1.8
				c-0.1,0.9-0.7,1.4-1.5,1.4c-1,0-1.6-0.5-1.7-1.4C267.8,288.9,267.9,288.6,267.8,288.3C267.9,288.3,267.9,288.3,267.8,288.3z"/>
		</g>
	</g>
	<path class="st13" d="M243.5,243.1c0.5,0.3,1.1,0.7,1.6,1c3.6,2.4,7.1,5,10.4,7.7c3.5,2.9,7.2,5.6,11.1,8c1.5,0.9,3,1.7,4.5,2.4
		c3.3,1.7,6.7,3.2,10,5c2.4,1.3,4.8,2.9,7,4.4c3.9,2.7,8,5.3,12.4,7.2c1.8,0.8,3.6,1.8,5.4,2.7c0.3,0.2,0.7,0.3,0.9,0.5
		c1.4,1.4,3.1,2.3,4.6,3.6c1.2,1,2.2,2.1,3.4,3.2c-0.2,0.4-0.3,0.7-0.4,1c-2.4,4.8-4.3,9.7-6.2,14.7c-1.9,4.8-3.8,9.7-5.7,14.5
		c-0.6,1.5-1.1,3.1-1.6,4.7c-0.5,1.3-1,2.5-1.5,3.8c-0.2,0.6-0.5,1.2-0.6,1.9c-0.1,1.1-0.7,2-1.2,2.9c-2,3.2-4.4,6.2-6.2,9.5
		c-0.2,0.3-0.4,0.6-0.6,0.9c-1,1.1-1.6,2.3-1.9,3.7c-0.2,0.6-0.4,1.2-0.7,1.8c-0.5-0.1-0.4-0.5-0.4-0.7c-0.1-1-0.2-2-0.4-3
		c-0.1-0.4-0.2-0.8-0.4-1.2c-0.4-1-1.2-1.3-2.2-0.9c-0.7,0.3-1.4,0.8-2.1,1.3c-0.4,0.3-0.8,0.7-1.2,1.1c-0.2-0.1-0.5-0.2-0.6-0.3
		c-1.2-0.7-2.4-1.3-3.6-2c-0.5-0.3-1-0.6-1.4-1c-1.2-1.2-2.6-2.2-4.2-3c-1.5-0.7-2.9-1.6-4.1-2.7c-0.7-0.7-1.7-1.1-2.5-1.6
		c-1.1-0.7-2.2-1.4-3.3-2.1c-0.6-0.4-1.3-0.6-1.9-1c-3.2-2-6.3-3.9-9.5-5.9c-3.2-2-6.6-3.7-10.1-5.1c-3.5-1.3-7-2.6-10.5-3.9
		c-2.2-0.8-4.3-1.7-6.4-2.5c-0.4-0.2-0.8-0.4-1.3-0.7c0-0.7,0-1.4-0.1-2.1c-0.1-1.4-0.5-1.8-1.9-1.8c-0.5,0-1,0.2-1.5,0.3
		c-0.9,0.3-1.9,0.6-3,0.6c0.5-1.3,0.9-2.5,1.4-3.7c0.4-0.8,0.4-1.6,0.2-2.4c-0.2-0.8-0.7-1.2-1.6-1.1c-0.3,0-0.6,0.1-0.9,0.2
		c-1.3,0.4-2.6,0.7-3.9,1.1c-0.3-0.5-0.1-1,0.1-1.4c0.1-0.3,0.4-0.6,0.5-0.9c0.4-0.8-0.1-1.6-0.9-1.7c-0.8-0.1-1.5-0.2-2.3,0.1
		c-1.8,0.8-3.6,1.5-5.3,2.4c-0.7,0.4-1.4,0.9-2.1,1.3c-1.1,0.7-2.1,0.8-3.3,0.1c-4.4-2.5-8.7-5-12.7-8c-1.2-0.9-2.3-2-3.5-3.1
		c0.2-0.3,0.3-0.7,0.5-0.9c0.2-0.2,0.4-0.4,0.7-0.6c2-1.1,3.3-2.8,4.5-4.7c2-3.3,4.1-6.7,6-10c0.9-1.5,1.7-3.2,2.2-4.8
		c1.7-5,3.9-9.8,6-14.6c0.8-1.7,1.5-3.5,2.2-5.2c0.7-1.8,1.1-3.6,1.3-5.5c0-0.5,0.1-0.9,0.2-1.4c0.2,0,0.3,0,0.4,0
		c1.6,1.6,3.2,3.1,4.8,4.8c-0.7,0.9-1.3,1.8-2,2.6c-0.3,0.4-0.5,0.8-0.3,1.3c0.1,0.6,0.9,0.8,1.3,0.4c0.6-0.6,1.1-1.2,1.6-1.9
		c0.4-0.6,0.8-1.2,1.4-1.7c0.4,0.2,0.8,0.4,1.3,0.6c1.1,0.5,2.2,0.4,3.1-0.6c0.7-0.7,1.3-1.5,2-2.3c0.4-0.5,0.7-1,1.2-1.4
		c0.4,0.1,0.3,0.4,0.3,0.6c0,0.9-0.1,1.8-0.1,2.7c0.1,2-0.7,3.6-2,5c-1.1,1.2-1.7,2.7-2.1,4.2c-0.2,0.8-0.2,1.5,0.1,2.2
		c0.1,0.2,0.4,0.5,0.7,0.5c0.2,0,0.5-0.3,0.7-0.5c0.1-0.2,0.2-0.4,0.2-0.7c0.4-1.7,1.1-3.3,2.4-4.7c0.7-0.7,1.2-1.6,1.8-2.4
		c0.2-0.4,0.3-0.9,0.4-1.3c0.1-0.6,0-1.3,0.1-2c0.9,0.3,1.7,0.4,2.4,0.9c0.5,0.4,1.3,0.6,1.9,0.9c0.3,0.1,0.6,0,0.8-0.3
		c0.2-0.3,0.1-0.6-0.1-0.8c-1.5-1-2.8-2.3-4.7-2.7c-0.7-1.1-0.4-2.4-0.8-3.7c1.1-1.7,2.9-2.7,4.2-4.2c0.9,0.4,1.3,1,1.8,1.5
		c1.5,1.5,3,3.1,4.5,4.6c0.5,0.5,1.1,0.9,1.6,1.4c1.1,0.9,2.3,1.1,3.7,0.7c0.2-0.1,0.4-0.1,0.7-0.2c0.2,0.2,0.3,0.4,0.4,0.6
		c0.5,1.2,0.9,2.4,1.4,3.6c0.3,0.7,0.5,0.8,1.9,1.5c0.5-0.2,0.7-0.7,0.4-1.1c-0.6-1-0.7-2.1-1.4-3.1c-0.6-0.9-0.9-1.9-1.2-2.9
		c-0.1-0.2,0-0.6,0.1-0.8C239.8,246.3,242.7,243.6,243.5,243.1z M255.4,306C255.4,306,255.4,306,255.4,306c-0.1-0.8-0.1-1.5-0.1-2.3
		c0-1.9-0.6-3.5-2-4.7c-0.3-0.2-0.5-0.5-0.8-0.7c-1.1-1.1-2.1-2.3-3.6-2.7c-0.3-0.1-0.5-0.4-0.7-0.5c-0.2-0.1-0.4-0.3-0.6-0.3
		c-1.3-0.2-2.6-0.9-4-0.7c-0.8,0.1-1.7,0.1-2.5,0c-1.9-0.2-3.8,0.4-5.5,1c-2,0.6-3.8,1.5-5.7,2.3c-1.8,0.7-2.5,2.3-2.8,4
		c-0.5,3.3,0.6,6.2,2.7,8.7c0.6,0.8,1.3,1.6,2.2,2.1c2.2,1.3,4.4,2.5,6.7,3.6c1.5,0.7,2.9,1.6,4.7,1.5c0.1,0,0.1,0,0.2,0.1
		c1.5,0.7,3.1,0.6,4.5,0.4c1.4-0.2,2.8-0.8,4.1-1.6c0.9-0.5,1.8-1.4,1.9-2.6c0-0.3,0.3-0.5,0.4-0.8c0.7-1.5,1.2-3,1.1-4.6
		C255.4,307.3,255.4,306.7,255.4,306z M219.8,277.4c0,0.3,0,0.8,0,1.2c0,2.4,0.7,4.5,1.8,6.6c0.8,1.5,2,2.8,3.4,3.8
		c0.6,0.5,1.3,0.8,2.1,0.8c2.2,0,4.3-0.3,6.4-1.3c3.7-1.9,6.5-4.7,8.5-8.3c1-1.8,1.6-3.7,1.5-5.8c0-0.5,0-1.1,0-1.6
		c0-3-1.3-5.5-3.6-7.4c-1.6-1.4-3.5-2.3-5.5-2.7c-2.1-0.4-4.3-0.4-6.2,0.8c-1.5,0.9-3,1.8-4.2,3.2
		C221.2,269.8,219.5,273.1,219.8,277.4z M259.1,295.9c0,0.2,0,0.5,0,0.7c-0.3,2.9,1.2,5,2.9,7c0.2,0.2,0.5,0.4,0.7,0.5
		c0.5,0.3,1.1,0.7,1.7,1c0.5,0.3,1.1,0.5,1.7,0.5c1.2,0,2.5,0,3.7,0c0.4,0,0.8-0.1,1.2-0.2c1.3-0.4,2.6-0.8,3.5-1.9
		c0.2-0.2,0.5-0.3,0.7-0.5c1.3-0.8,2.2-1.9,2.6-3.5c0.2-0.7,0.3-1.5,0.7-2.2c1.2-1.8,1.5-3.8,1.3-5.9c0-0.1,0-0.1,0-0.2
		c0.1-2-0.6-3.7-1.6-5.3c-0.7-1.2-1.8-2-2.7-3c-0.6-0.7-1.3-1.2-2.3-1.1c-0.3,0-0.7-0.2-1-0.3c-0.3-0.1-0.7-0.3-1-0.3
		c-1.5-0.2-3,0-4.3,0.6c-0.2,0.1-0.5,0.3-0.7,0.6c-0.2,0.2-0.3,0.5-0.5,0.7c-1.2,1.2-2,2.6-2.9,4c-0.3,0.6-0.7,1.1-1.1,1.6
		c-1.7,1.9-2.8,4.1-2.6,6.7C259.1,295.7,259.1,295.8,259.1,295.9z M281.1,301.9c-0.5,0.3-0.8,0.4-0.9,0.7c-0.4,0.8-1.1,1.3-1.7,1.9
		c-1,1-2,1.8-3.2,2.5c-0.3,0.2-0.6,0.3-0.9,0.6c-0.1,0.1-0.3,0.4-0.2,0.6c0,0.2,0.3,0.4,0.5,0.4c1,0.1,2-0.1,2.8-0.8
		c0.9-0.8,1.8-1.5,2.6-2.3C281,304.4,281.2,303.4,281.1,301.9z M217.1,279.2c-0.2,0.1-0.2,0.1-0.3,0.1c-1.4,3-0.3,5.5,1.7,7.9
		c0,0,0.1,0.1,0.2,0.1c0.2,0,0.5,0.2,0.6,0.1c0.2-0.1,0.3-0.4,0.3-0.6c0.1-0.5-0.1-0.9-0.4-1.3c-0.8-1.3-1.5-2.6-1.5-4.3
		c0-0.5-0.2-1-0.3-1.5C217.5,279.5,217.3,279.3,217.1,279.2z M213,281c-0.2,0.1-0.3,0.2-0.4,0.3c-0.4,1.1-0.6,2.3,0,3.4
		c0.5,0.9,0.9,1.8,1.4,2.7c0.4,0.8,1,1.3,1.8,1.5c0.4,0.1,0.7,0,0.8-0.5c-0.9-1-1.4-2.2-2.1-3.4c-0.6-1-1.2-2-1.2-3.3
		C213.4,281.5,213.1,281.3,213,281z M274.4,312.2c1.1,0.6,1.1,0.6,1.6,0.4c0.8-0.4,1.5-0.9,2.3-1.3c1.3-0.7,2.1-1.8,3-2.9
		c0.2-0.3,0.3-0.6,0.1-1c-0.6,0.1-1.1,0.5-1.4,0.9c-1.1,1.3-2.6,2-4,2.9C275.6,311.6,275,311.8,274.4,312.2z"/>
</g>
<g id="DESIGNED_BY_FREEPIK">
</g>
</svg>
