<svg xmlns="http://www.w3.org/2000/svg" viewBox="0 0 426.47 339.36"><defs><style>.cls-1{fill:#7eef06;}.cls-2{fill:#008d85;}.cls-3{fill:#7aed0a;}.cls-4{fill:#28dd57;}.cls-5{fill:#035c58;}.cls-6{fill:#03756f;}.cls-7{fill:#ab1f23;}.cls-8{fill:#d81f26;}.cls-10,.cls-9{fill:none;stroke-linecap:round;stroke-linejoin:round;stroke-width:5px;}.cls-9{stroke:#231f20;}.cls-10{stroke:#093136;}</style></defs><title>Ativo 4</title><g id="Camada_2" data-name="Camada 2"><g id="Layer_1" data-name="Layer 1"><polygon class="cls-1" points="248.96 238.02 133.86 211.32 124 179.44 271.85 213.75 248.96 238.02"/><path class="cls-2" d="M137.06,162.11H266.68a11.08,11.08,0,0,1,11.08,11.08V197a0,0,0,0,1,0,0H126a0,0,0,0,1,0,0V173.19A11.08,11.08,0,0,1,137.06,162.11Z" transform="translate(45.81 -40.98) rotate(13.06)"/><path class="cls-3" d="M156.72,128.08H262.81a11.08,11.08,0,0,1,11.08,11.08V163a0,0,0,0,1,0,0H145.64a0,0,0,0,1,0,0V139.16a11.08,11.08,0,0,1,11.08-11.08Z" transform="translate(38.32 -43.64) rotate(13.06)"/><polygon class="cls-4" points="241.69 236.34 132.96 211.11 124 179.44 263.68 211.85 241.69 236.34"/><path class="cls-5" d="M263.68,211.85,124,179.44l5.8-25a9.25,9.25,0,0,1,11.09-6.91l121.69,28.24a9.23,9.23,0,0,1,6.91,11.08Z"/><path class="cls-4" d="M155.87,127.13h99.62a10.77,10.77,0,0,1,10.77,10.77v24.16a0,0,0,0,1,0,0H145.1a0,0,0,0,1,0,0V137.9a10.77,10.77,0,0,1,10.77-10.77Z" transform="translate(38 -42.74) rotate(13.06)"/><polygon class="cls-3" points="242.59 236.54 140.18 212.78 132.12 181.33 263.68 211.85 242.59 236.54"/><path class="cls-6" d="M144.78,162.11H258.92a10.45,10.45,0,0,1,10.45,10.45V197a0,0,0,0,1,0,0H134.32a0,0,0,0,1,0,0V172.56a10.45,10.45,0,0,1,10.45-10.45Z" transform="translate(45.81 -40.97) rotate(13.06)"/><path class="cls-3" d="M163.14,128.08h93.21a10.45,10.45,0,0,1,10.45,10.45V163a0,0,0,0,1,0,0H152.69a0,0,0,0,1,0,0V138.53A10.45,10.45,0,0,1,163.14,128.08Z" transform="translate(38.32 -43.64) rotate(13.06)"/><path class="cls-5" d="M204.86,109.44h22.07A10.05,10.05,0,0,1,237,119.49v9.29a0,0,0,0,1,0,0H194.81a0,0,0,0,1,0,0v-9.29a10.05,10.05,0,0,1,10.05-10.05Z" transform="translate(32.51 -45.71) rotate(13.06)"/><path class="cls-5" d="M238.85,49.65l-14.28,61.54-13-3,14.28-61.54a23.58,23.58,0,0,0,13,3Z"/><path class="cls-7" d="M260.46,31.43A23.59,23.59,0,0,1,214,28.67a23.28,23.28,0,0,1,.47-7.9,23.59,23.59,0,1,1,46,10.66Z"/><path class="cls-8" d="M256.2,20.3A23.58,23.58,0,0,1,214,28.67a23.28,23.28,0,0,1,.47-7.9,23.58,23.58,0,0,1,42.17-8.39A23.15,23.15,0,0,1,256.2,20.3Z"/><polygon class="cls-9" points="248.96 238.02 133.86 211.32 124 179.44 271.85 213.75 248.96 238.02"/><path class="cls-9" d="M137.06,162.11H266.68a11.08,11.08,0,0,1,11.08,11.08V197a0,0,0,0,1,0,0H126a0,0,0,0,1,0,0V173.19A11.08,11.08,0,0,1,137.06,162.11Z" transform="translate(45.81 -40.98) rotate(13.06)"/><path class="cls-9" d="M156.72,128.08H262.81a11.08,11.08,0,0,1,11.08,11.08V163a0,0,0,0,1,0,0H145.64a0,0,0,0,1,0,0V139.16a11.08,11.08,0,0,1,11.08-11.08Z" transform="translate(38.32 -43.64) rotate(13.06)"/><path class="cls-10" d="M204.86,109.44h22.07A10.05,10.05,0,0,1,237,119.49v9.29a0,0,0,0,1,0,0H194.81a0,0,0,0,1,0,0v-9.29a10.05,10.05,0,0,1,10.05-10.05Z" transform="translate(32.51 -45.71) rotate(13.06)"/><path class="cls-9" d="M238.85,49.65l-14.28,61.54-13-3,14.28-61.54a23.58,23.58,0,0,0,13,3Z"/><circle class="cls-9" cx="237.48" cy="26.1" r="23.59"/><path d="M17.13,338.41a28.75,28.75,0,0,1-6.68-1.16Q6,336.1,2.61,326.44A88.79,88.79,0,0,1,0,305.6a125.82,125.82,0,0,1,1-13,48,48,0,0,1,6.13-18q5.12-9.15,12.09-10.82a11.41,11.41,0,0,1,2.17-.22q14.82,0,23.81,38.48L28,309.67q-6-10.53-10.16-10.53-3.55,0-5.3,4.65a23.59,23.59,0,0,0-1.45,8.42c0,1,.13,2.74.4,5.33a11.51,11.51,0,0,0,4,7.23,5.57,5.57,0,0,0,4,1.59,13.19,13.19,0,0,0,6.39-2.1,2.26,2.26,0,0,0,1.31-1.89,1,1,0,0,0-.36-.8l-9.51-.29,1.59-8.93,25.41,3.42q-.21,5.3-5.34,11.06a38.88,38.88,0,0,1-12.3,9.26A21.93,21.93,0,0,1,17.13,338.41Z"/><path d="M84.21,339.14l-32.89-1.23L49.8,280.27H47l-.29-14.81,22.79-2.25L89,261.39l.14,18.37L69,280.05l-.87,22,15.68-1.81.15,16.41-16.41-1-.58,14.15,17.2.15Z"/><path d="M131,339.14l-32.89-1.23-1.52-57.64H93.79l-.29-14.81,22.79-2.25,19.53-1.82.14,18.37-20.18.29-.87,22,15.68-1.81.15,16.41-16.41-1-.58,14.15,17.2.15Z"/><path d="M173.2,339.36l-11.83-28.6-1.16,26.85L145,337.25l-1.52-54.95h-2.83l-.29-14.88,22.94-2.25-.95,23,16.55-19.89,7.26,7.84-15.68,18.51,21.78,37.89Z"/><path class="cls-3" d="M210.8,338.34l1.53-24.68q-10.76-1.67-21.56-3.19l8.35-42.11,14.08,1.75-6.68,33,6.1.44,3.77-28.09,15,3.77q-3.78,17.49-5.23,25.41l2.54.22-2.39,10.89-2.11-.3L220,338.63Z"/><path d="M251.38,338.41a28.75,28.75,0,0,1-6.68-1.16q-4.42-1.15-7.84-10.81a88.79,88.79,0,0,1-2.61-20.84,125.82,125.82,0,0,1,1-13,48,48,0,0,1,6.13-18q5.11-9.15,12.09-10.82a11.41,11.41,0,0,1,2.17-.22q14.82,0,23.81,38.48l-17.2,7.55q-6-10.53-10.16-10.53-3.56,0-5.3,4.65a23.59,23.59,0,0,0-1.45,8.42c0,1,.13,2.74.4,5.33a11.51,11.51,0,0,0,4,7.23,5.59,5.59,0,0,0,4,1.59,13.19,13.19,0,0,0,6.39-2.1,2.26,2.26,0,0,0,1.31-1.89,1,1,0,0,0-.36-.8l-9.51-.29,1.59-8.93,25.41,3.42q-.21,5.3-5.34,11.06a38.88,38.88,0,0,1-12.3,9.26A21.93,21.93,0,0,1,251.38,338.41Z"/><path d="M318.46,339.14l-32.89-1.23-1.52-57.64h-2.83l-.29-14.81,22.79-2.25,19.53-1.82.14,18.37-20.18.29-.87,22L318,300.23l.15,16.41-16.41-1-.58,14.15,17.2.15Z"/><path d="M365.28,339.14l-32.89-1.23-1.52-57.64H328l-.29-14.81,22.79-2.25,19.53-1.82.14,18.37-20.18.29-.87,22,15.68-1.81.15,16.41-16.41-1L348,329.77l17.2.15Z"/><path d="M407.45,339.36l-11.83-28.6-1.16,26.85-15.25-.36-1.52-54.95h-2.83l-.29-14.88,22.94-2.25-.95,23,16.55-19.89,7.26,7.84-15.68,18.51,21.78,37.89Z"/></g></g></svg>