<svg xmlns="http://www.w3.org/2000/svg" viewBox="0 0 158.53 240.52"><defs><style>.cls-1{fill:#7eef06;}.cls-2{fill:#008d85;}.cls-3{fill:#7aed0a;}.cls-4{fill:#28dd57;}.cls-5{fill:#035c58;}.cls-6{fill:#03756f;}.cls-7{fill:#ab1f23;}.cls-8{fill:#d81f26;}.cls-10,.cls-9{fill:none;stroke-linecap:round;stroke-linejoin:round;stroke-width:5px;}.cls-9{stroke:#231f20;}.cls-10{stroke:#093136;}</style></defs><title>Ativo 5</title><g id="Camada_2" data-name="Camada 2"><g id="Layer_1" data-name="Layer 1"><polygon class="cls-1" points="127.46 238.02 12.36 211.32 2.5 179.44 150.35 213.75 127.46 238.02"/><path class="cls-2" d="M15.56,162.11H145.18a11.08,11.08,0,0,1,11.08,11.08V197a0,0,0,0,1,0,0H4.48a0,0,0,0,1,0,0V173.19A11.08,11.08,0,0,1,15.56,162.11Z" transform="translate(42.67 -13.52) rotate(13.06)"/><path class="cls-3" d="M35.22,128.08H141.31a11.08,11.08,0,0,1,11.08,11.08V163a0,0,0,0,1,0,0H24.14a0,0,0,0,1,0,0V139.16A11.08,11.08,0,0,1,35.22,128.08Z" transform="translate(35.18 -16.18) rotate(13.06)"/><polygon class="cls-4" points="120.2 236.34 11.46 211.11 2.5 179.44 142.18 211.85 120.2 236.34"/><path class="cls-5" d="M142.18,211.85,2.5,179.44l5.81-25a9.23,9.23,0,0,1,11.08-6.91l121.69,28.24A9.23,9.23,0,0,1,148,186.82Z"/><path class="cls-4" d="M34.37,127.13H134a10.77,10.77,0,0,1,10.77,10.77v24.16a0,0,0,0,1,0,0H23.6a0,0,0,0,1,0,0V137.9a10.77,10.77,0,0,1,10.77-10.77Z" transform="translate(34.86 -15.29) rotate(13.06)"/><polygon class="cls-3" points="121.1 236.54 18.68 212.78 10.63 181.33 142.18 211.85 121.1 236.54"/><path class="cls-6" d="M23.28,162.11H137.42a10.45,10.45,0,0,1,10.45,10.45V197a0,0,0,0,1,0,0H12.83a0,0,0,0,1,0,0V172.56a10.45,10.45,0,0,1,10.45-10.45Z" transform="translate(42.67 -13.51) rotate(13.06)"/><path class="cls-3" d="M41.64,128.08h93.21a10.45,10.45,0,0,1,10.45,10.45V163a0,0,0,0,1,0,0H31.19a0,0,0,0,1,0,0V138.53A10.45,10.45,0,0,1,41.64,128.08Z" transform="translate(35.18 -16.18) rotate(13.06)"/><path class="cls-5" d="M83.37,109.44h22.07a10.05,10.05,0,0,1,10.05,10.05v9.29a0,0,0,0,1,0,0H73.31a0,0,0,0,1,0,0v-9.29a10.05,10.05,0,0,1,10.05-10.05Z" transform="translate(29.36 -18.25) rotate(13.06)"/><path class="cls-5" d="M117.36,49.65l-14.28,61.54-13-3,14.28-61.54a23.58,23.58,0,0,0,13,3Z"/><path class="cls-7" d="M139,31.43a23.6,23.6,0,0,1-46.44-2.76,23.28,23.28,0,0,1,.47-7.9,23.59,23.59,0,0,1,46,10.66Z"/><path class="cls-8" d="M134.71,20.3a23.59,23.59,0,0,1-42.18,8.37,23.28,23.28,0,0,1,.47-7.9,23.59,23.59,0,0,1,42.18-8.39A23.4,23.4,0,0,1,134.71,20.3Z"/><polygon class="cls-9" points="127.46 238.02 12.36 211.32 2.5 179.44 150.35 213.75 127.46 238.02"/><path class="cls-9" d="M15.56,162.11H145.18a11.08,11.08,0,0,1,11.08,11.08V197a0,0,0,0,1,0,0H4.48a0,0,0,0,1,0,0V173.19A11.08,11.08,0,0,1,15.56,162.11Z" transform="translate(42.67 -13.52) rotate(13.06)"/><path class="cls-9" d="M35.22,128.08H141.31a11.08,11.08,0,0,1,11.08,11.08V163a0,0,0,0,1,0,0H24.14a0,0,0,0,1,0,0V139.16A11.08,11.08,0,0,1,35.22,128.08Z" transform="translate(35.18 -16.18) rotate(13.06)"/><path class="cls-10" d="M83.37,109.44h22.07a10.05,10.05,0,0,1,10.05,10.05v9.29a0,0,0,0,1,0,0H73.31a0,0,0,0,1,0,0v-9.29a10.05,10.05,0,0,1,10.05-10.05Z" transform="translate(29.36 -18.25) rotate(13.06)"/><path class="cls-9" d="M117.36,49.65l-14.28,61.54-13-3,14.28-61.54a23.58,23.58,0,0,0,13,3Z"/><circle class="cls-9" cx="115.98" cy="26.1" r="23.59"/></g></g></svg>