<svg xmlns="http://www.w3.org/2000/svg" viewBox="0 0 341.41 232.78"><defs><style>.cls-1{isolation:isolate;}.cls-2{fill:#f8981d;}.cls-3{fill:#fffad7;}.cls-4{fill:#7aed0a;}.cls-5{mix-blend-mode:multiply;}.cls-6{fill:#c5c3bc;}.cls-7{fill:#fffef6;}.cls-8{fill:#9aa7c4;}.cls-9{fill:none;stroke:#273248;stroke-linecap:round;stroke-linejoin:round;stroke-width:6px;}</style></defs><title>Ativo 3</title><g class="cls-1"><g id="Camada_2" data-name="Camada 2"><g id="Layer_1" data-name="Layer 1"><path class="cls-2" d="M55,172.81v16H72.42v-16a3.5,3.5,0,0,1,3.49-3.5h16V151.84h-16a3.49,3.49,0,0,1-3.49-3.49v-16H55v16a3.49,3.49,0,0,1-3.49,3.49h-16v17.47h16A3.5,3.5,0,0,1,55,172.81Z"/><rect class="cls-3" x="132.26" y="151.55" width="76.89" height="10.48" rx="4.08" ry="4.08"/><circle class="cls-2" cx="246.53" cy="172.52" r="12.23"/><circle class="cls-2" cx="293.74" cy="172.52" r="12.23"/><path class="cls-3" d="M19.89,226.28H321.53a13.35,13.35,0,0,0,12.69-9.12H7.19A13.36,13.36,0,0,0,19.89,226.28Z"/><rect class="cls-3" x="132.26" y="124.76" width="76.89" height="10.48" rx="4.08" ry="4.08"/><path class="cls-4" d="M6.49,210.18H334.92V111H6.49ZM156.76,189.6h-14a3.5,3.5,0,0,1,0-7h14a3.5,3.5,0,0,1,0,7Zm41.92,0h-14a3.5,3.5,0,1,1,0-7h14a3.5,3.5,0,1,1,0,7Zm95.06-36.3a19.22,19.22,0,1,1-19.21,19.22A19.24,19.24,0,0,1,293.74,153.3Zm-47.21,0a19.22,19.22,0,1,1-19.22,19.22A19.24,19.24,0,0,1,246.53,153.3ZM125.27,128.85a11.08,11.08,0,0,1,11.07-11.07h68.73a11.08,11.08,0,0,1,11.07,11.07v2.31a11.08,11.08,0,0,1-11.07,11.07H136.34a11.08,11.08,0,0,1-11.07-11.07Zm0,26.79a11.08,11.08,0,0,1,11.07-11.07h68.73a11.08,11.08,0,0,1,11.07,11.07V158A11.08,11.08,0,0,1,205.07,169H136.34A11.08,11.08,0,0,1,125.27,158Zm-96.82-7.29a3.5,3.5,0,0,1,3.5-3.49H48v-16a3.5,3.5,0,0,1,3.5-3.49H75.91a3.5,3.5,0,0,1,3.5,3.49v16h16a3.49,3.49,0,0,1,3.49,3.49v24.46a3.49,3.49,0,0,1-3.49,3.49h-16v16a3.5,3.5,0,0,1-3.5,3.49H51.46a3.5,3.5,0,0,1-3.5-3.49v-16H32a3.5,3.5,0,0,1-3.5-3.49Z"/><path class="cls-3" d="M321.53,87.69H19.89a13.41,13.41,0,0,0-13.4,13.39V104H334.92v-2.92A13.41,13.41,0,0,0,321.53,87.69Z"/><g class="cls-5"><path class="cls-6" d="M29.59,226.28h-9.7a13.36,13.36,0,0,1-12.7-9.12h9.7A13.36,13.36,0,0,0,29.59,226.28Z"/><path class="cls-6" d="M6.49,111v99.2H16.2V111Z"/><path class="cls-6" d="M29.59,87.69A13.4,13.4,0,0,0,16.2,101.08V104H6.49v-2.92a13.41,13.41,0,0,1,13.4-13.39Z"/></g><path class="cls-7" d="M311.82,87.69h9.71a13.37,13.37,0,0,1,12.69,9.12h-9.7A13.37,13.37,0,0,0,311.82,87.69Z"/><path class="cls-8" d="M334.92,203V103.8h-9.7V203Z"/><path class="cls-7" d="M311.82,226.28a13.41,13.41,0,0,0,13.4-13.39V210h9.7v2.91a13.41,13.41,0,0,1-13.39,13.39Z"/><path class="cls-9" d="M338.41,101.08V212.89c0,.25,0,.52,0,.78a16.87,16.87,0,0,1-16.86,16.11H19.89A16.87,16.87,0,0,1,3,213.67c0-.26,0-.53,0-.78V101.08A16.89,16.89,0,0,1,19.89,84.2H321.53A16.88,16.88,0,0,1,338.41,101.08Z"/><path class="cls-9" d="M338.41,107.49v105.4c0,.25,0,.52,0,.78H3c0-.26,0-.53,0-.78V107.49Z"/><circle class="cls-9" cx="246.53" cy="172.52" r="15.72" transform="translate(36.89 388.37) rotate(-80.82)"/><circle class="cls-9" cx="293.74" cy="172.52" r="15.72" transform="translate(4.49 352.45) rotate(-62.31)"/><polygon class="cls-9" points="95.42 148.35 75.91 148.35 75.91 128.84 51.45 128.84 51.45 148.35 31.95 148.35 31.95 172.81 51.45 172.81 51.45 192.32 75.91 192.32 75.91 172.81 95.42 172.81 95.42 148.35"/><line class="cls-9" x1="142.73" y1="186.1" x2="156.76" y2="186.1"/><line class="cls-9" x1="184.66" y1="186.1" x2="198.68" y2="186.1"/><rect class="cls-9" x="128.77" y="121.27" width="83.88" height="17.47" rx="6.09" ry="6.09"/><rect class="cls-9" x="128.77" y="148.06" width="83.88" height="17.47" rx="6.09" ry="6.09"/><line class="cls-9" x1="170.71" y1="84.2" x2="170.71" y2="75.27"/><line class="cls-9" x1="170.71" y1="16.59" x2="170.71" y2="3"/><ellipse class="cls-9" cx="170.71" cy="61.29" rx="24.47" ry="10.87"/><ellipse class="cls-9" cx="170.71" cy="50.42" rx="24.47" ry="10.87"/><ellipse class="cls-9" cx="170.71" cy="39.55" rx="24.47" ry="10.87"/><ellipse class="cls-9" cx="170.71" cy="28.68" rx="24.47" ry="10.87"/></g></g></g></svg>