<svg xmlns="http://www.w3.org/2000/svg" viewBox="0 0 498.02 398.73"><defs><style>.cls-1{isolation:isolate;}.cls-2{fill:#f8981d;}.cls-3{fill:#fffad7;}.cls-4{fill:#7aed0a;}.cls-5{mix-blend-mode:multiply;}.cls-6{fill:#c5c3bc;}.cls-7{fill:#fffef6;}.cls-8{fill:#9aa7c4;}.cls-9{fill:none;stroke:#273248;stroke-linecap:round;stroke-linejoin:round;stroke-width:6px;}</style></defs><title>Ativo 1</title><g class="cls-1"><g id="Camada_2" data-name="Camada 2"><g id="Layer_1" data-name="Layer 1"><path class="cls-2" d="M112.34,172.81v16h17.47v-16a3.5,3.5,0,0,1,3.49-3.5h16V151.84h-16a3.49,3.49,0,0,1-3.49-3.49v-16H112.34v16a3.5,3.5,0,0,1-3.5,3.49h-16v17.47h16A3.5,3.5,0,0,1,112.34,172.81Z"/><rect class="cls-3" x="189.65" y="151.55" width="76.89" height="10.48" rx="4.08" ry="4.08"/><circle class="cls-2" cx="303.92" cy="172.52" r="12.23"/><circle class="cls-2" cx="351.13" cy="172.52" r="12.23"/><path class="cls-3" d="M77.27,226.28H378.91a13.36,13.36,0,0,0,12.7-9.12h-327A13.35,13.35,0,0,0,77.27,226.28Z"/><rect class="cls-3" x="189.65" y="124.76" width="76.89" height="10.48" rx="4.08" ry="4.08"/><path class="cls-4" d="M63.88,210.18H392.31V111H63.88ZM214.14,189.6h-14a3.5,3.5,0,1,1,0-7h14a3.5,3.5,0,1,1,0,7Zm41.93,0H242a3.5,3.5,0,0,1,0-7h14a3.5,3.5,0,0,1,0,7Zm95.06-36.3a19.22,19.22,0,1,1-19.22,19.22A19.24,19.24,0,0,1,351.13,153.3Zm-47.21,0a19.22,19.22,0,1,1-19.22,19.22A19.24,19.24,0,0,1,303.92,153.3ZM182.66,128.85a11.08,11.08,0,0,1,11.07-11.07h68.73a11.08,11.08,0,0,1,11.07,11.07v2.31a11.08,11.08,0,0,1-11.07,11.07H193.73a11.08,11.08,0,0,1-11.07-11.07Zm0,26.79a11.08,11.08,0,0,1,11.07-11.07h68.73a11.08,11.08,0,0,1,11.07,11.07V158A11.08,11.08,0,0,1,262.46,169H193.73A11.08,11.08,0,0,1,182.66,158Zm-96.82-7.29a3.49,3.49,0,0,1,3.49-3.49h16v-16a3.49,3.49,0,0,1,3.49-3.49H133.3a3.49,3.49,0,0,1,3.49,3.49v16h16a3.49,3.49,0,0,1,3.49,3.49v24.46a3.49,3.49,0,0,1-3.49,3.49h-16v16a3.49,3.49,0,0,1-3.49,3.49H108.84a3.49,3.49,0,0,1-3.49-3.49v-16h-16a3.49,3.49,0,0,1-3.49-3.49Z"/><path class="cls-3" d="M378.91,87.69H77.27a13.41,13.41,0,0,0-13.39,13.39V104H392.31v-2.92A13.41,13.41,0,0,0,378.91,87.69Z"/><g class="cls-5"><path class="cls-6" d="M87,226.28H77.27a13.35,13.35,0,0,1-12.69-9.12h9.7A13.36,13.36,0,0,0,87,226.28Z"/><path class="cls-6" d="M63.88,111v99.2h9.7V111Z"/><path class="cls-6" d="M87,87.69a13.41,13.41,0,0,0-13.4,13.39V104h-9.7v-2.92A13.41,13.41,0,0,1,77.27,87.69Z"/></g><path class="cls-7" d="M369.21,87.69h9.7a13.37,13.37,0,0,1,12.7,9.12h-9.7A13.38,13.38,0,0,0,369.21,87.69Z"/><path class="cls-8" d="M392.31,203V103.8H382.6V203Z"/><path class="cls-7" d="M369.21,226.28a13.4,13.4,0,0,0,13.39-13.39V210h9.71v2.91a13.41,13.41,0,0,1-13.4,13.39Z"/><path class="cls-9" d="M395.8,101.08V212.89c0,.25,0,.52,0,.78a16.87,16.87,0,0,1-16.87,16.11H77.27a16.87,16.87,0,0,1-16.86-16.11c0-.26,0-.53,0-.78V101.08A16.88,16.88,0,0,1,77.27,84.2H378.91A16.89,16.89,0,0,1,395.8,101.08Z"/><path class="cls-9" d="M395.8,107.49v105.4c0,.25,0,.52,0,.78H60.41c0-.26,0-.53,0-.78V107.49Z"/><circle class="cls-9" cx="303.92" cy="172.52" r="15.72" transform="translate(85.13 445.02) rotate(-80.82)"/><circle class="cls-9" cx="351.13" cy="172.52" r="15.72" transform="translate(35.21 403.27) rotate(-62.31)"/><polygon class="cls-9" points="152.81 148.35 133.3 148.35 133.3 128.84 108.84 128.84 108.84 148.35 89.33 148.35 89.33 172.81 108.84 172.81 108.84 192.32 133.3 192.32 133.3 172.81 152.81 172.81 152.81 148.35"/><line class="cls-9" x1="200.12" y1="186.1" x2="214.14" y2="186.1"/><line class="cls-9" x1="242.04" y1="186.1" x2="256.07" y2="186.1"/><rect class="cls-9" x="186.15" y="121.27" width="83.88" height="17.47" rx="6.09" ry="6.09"/><rect class="cls-9" x="186.15" y="148.06" width="83.88" height="17.47" rx="6.09" ry="6.09"/><line class="cls-9" x1="228.09" y1="84.2" x2="228.09" y2="75.27"/><line class="cls-9" x1="228.09" y1="16.59" x2="228.09" y2="3"/><ellipse class="cls-9" cx="228.09" cy="61.29" rx="24.47" ry="10.87"/><ellipse class="cls-9" cx="228.09" cy="50.42" rx="24.47" ry="10.87"/><ellipse class="cls-9" cx="228.09" cy="39.55" rx="24.47" ry="10.87"/><ellipse class="cls-9" cx="228.09" cy="28.68" rx="24.47" ry="10.87"/><path d="M31.78,398.65a26.81,26.81,0,0,1-9.88-1.26,21.82,21.82,0,0,1-10.48-7.21,17.27,17.27,0,0,1-3.83-9.78,22.34,22.34,0,0,1,0-4.33l12.19,1a14.9,14.9,0,0,0-1,5.95,10.8,10.8,0,0,0,1.52,4,5.86,5.86,0,0,0,4.43,2.77,13.27,13.27,0,0,0,1.41.1A5.29,5.29,0,0,0,30,387.76q1.72-11.58,2.22-16.53a26.3,26.3,0,0,1-5.54,1.31q-7.37.6-14.11-5.8T2.24,347.84A60.57,60.57,0,0,1,.13,336.75a65.29,65.29,0,0,1,1-15.57q1.52-8.93,10-13.36a14.37,14.37,0,0,1,5.45-1.61q7.76-.6,19.55,5.54l.61-3.32L56,311.25q-1.61,35.89-11.09,78.53Q41.76,397.84,31.78,398.65ZM33.69,358l3.23-25.8q-5.85-3.84-9.48-3.83a5,5,0,0,0-2.82.8q-3.74,2.52-3.73,8.77v3.43q0,3.33,3.38,9.33A13.94,13.94,0,0,0,33.69,358Z"/><path d="M78.45,382.72a26,26,0,0,1-10.08-2.62q-5.94-2.61-8.67-12.8A46.16,46.16,0,0,1,58,354.5a95.44,95.44,0,0,1,1.31-13.16,63,63,0,0,1,6.4-18.7q5.08-10.08,12-13.81a10.29,10.29,0,0,1,4.94-1.31q4.64,0,10.73,5.59t12.66,27.27L74,362.46a13.09,13.09,0,0,0,8,7.06,10.58,10.58,0,0,0,2.93.4q4.64,0,11-3.43l.1,11.9Q85.72,382.73,78.45,382.72ZM71.3,351.57l13.5-12.3q-3.72-5.53-6.55-5.54a14.29,14.29,0,0,0-2.22.45c-1.21.31-2.35,2.17-3.42,5.6a28.92,28.92,0,0,0-1.41,9.37Z"/><path d="M128.55,382.72a25.9,25.9,0,0,1-10.07-2.62q-6-2.61-8.67-12.8a45.78,45.78,0,0,1-1.72-12.8,95.44,95.44,0,0,1,1.31-13.16,63,63,0,0,1,6.4-18.7q5.1-10.08,12-13.81a10.29,10.29,0,0,1,4.94-1.31q4.64,0,10.73,5.59t12.66,27.27l-32.06,22.08a13.09,13.09,0,0,0,8,7.06,10.58,10.58,0,0,0,2.93.4q4.63,0,11-3.43l.11,11.9Q135.81,382.73,128.55,382.72Zm-7.15-31.15,13.51-12.3q-3.74-5.53-6.56-5.54a14.26,14.26,0,0,0-2.21.45c-1.21.31-2.36,2.17-3.43,5.6a28.92,28.92,0,0,0-1.41,9.37Z"/><path d="M161.92,303.18H160l-1.82-21.77,27.22-1.21-3.33,54.54L202.45,316l6.35,11.09-14.72,11.59,23.69,35.38-19.26,9.18-15.22-36.09-2,1.61-2.12,34.48-15.12.1Z"/><path class="cls-4" d="M249.32,382.32,251.44,348q-14.92-2.31-29.94-4.43l11.59-58.47,19.56,2.42-9.28,45.87,8.47.6,5.24-39,20.77,5.24q-5.24,24.3-7.26,35.28l3.53.31L270.8,351l-2.93-.4L262,382.72Z"/><path d="M312,398.65a26.78,26.78,0,0,1-9.87-1.26,21.85,21.85,0,0,1-10.49-7.21,17.34,17.34,0,0,1-3.83-9.78,24.05,24.05,0,0,1,0-4.33l12.2,1a14.72,14.72,0,0,0-1,5.95,10.76,10.76,0,0,0,1.51,4,5.88,5.88,0,0,0,4.44,2.77,13.27,13.27,0,0,0,1.41.1,5.33,5.33,0,0,0,3.83-2.12q1.71-11.58,2.22-16.53a26.38,26.38,0,0,1-5.55,1.31q-7.35.6-14.11-5.8t-10.28-18.9a60.61,60.61,0,0,1-2.12-11.09,64.83,64.83,0,0,1,1-15.57q1.51-8.93,10-13.36a14.32,14.32,0,0,1,5.44-1.61q7.77-.6,19.56,5.54l.6-3.32,19.26,2.82q-1.62,35.89-11.09,78.53Q322,397.84,312,398.65ZM313.94,358l3.23-25.8q-5.85-3.84-9.48-3.83a5,5,0,0,0-2.82.8q-3.74,2.52-3.73,8.77v3.43q0,3.33,3.37,9.33A14,14,0,0,0,313.94,358Z"/><path d="M358.7,382.72a25.9,25.9,0,0,1-10.08-2.62q-6-2.61-8.67-12.8a46.16,46.16,0,0,1-1.72-12.8,94.21,94.21,0,0,1,1.32-13.16,62.74,62.74,0,0,1,6.4-18.7q5.08-10.08,12-13.81a10.32,10.32,0,0,1,4.94-1.31q4.63,0,10.74,5.59t12.65,27.27l-32.06,22.08a13.08,13.08,0,0,0,8,7.06,10.5,10.5,0,0,0,2.92.4q4.64,0,11-3.43l.1,11.9Q366,382.73,358.7,382.72Zm-7.16-31.15,13.51-12.3q-3.74-5.53-6.55-5.54a14.29,14.29,0,0,0-2.22.45c-1.21.31-2.35,2.17-3.43,5.6a28.92,28.92,0,0,0-1.41,9.37Z"/><path d="M408.8,382.72a25.9,25.9,0,0,1-10.08-2.62q-6-2.61-8.67-12.8a46.16,46.16,0,0,1-1.71-12.8,93.87,93.87,0,0,1,1.31-13.16,62.74,62.74,0,0,1,6.4-18.7q5.08-10.08,12-13.81a10.32,10.32,0,0,1,4.94-1.31q4.64,0,10.74,5.59t12.65,27.27l-32.06,22.08a13.11,13.11,0,0,0,8,7.06,10.5,10.5,0,0,0,2.92.4q4.63,0,11-3.43l.1,11.9Q416.07,382.73,408.8,382.72Zm-7.16-31.15,13.51-12.3q-3.73-5.53-6.55-5.54a14.29,14.29,0,0,0-2.22.45c-1.21.31-2.35,2.17-3.43,5.6a28.92,28.92,0,0,0-1.41,9.37Z"/><path d="M442.17,303.18h-1.92l-1.81-21.77,27.22-1.21-3.33,54.54L482.69,316,489,327.08l-14.71,11.59L498,374.05l-19.26,9.18-15.22-36.09-2,1.61-2.11,34.48-15.13.1Z"/></g></g></g></svg>