<svg xmlns="http://www.w3.org/2000/svg" viewBox="0 0 393.31 71.9"><defs><style>.cls-1{fill:#fff;}.cls-2{fill:#7aed0a;}</style></defs><title>Ativo 8</title><g id="Camada_2" data-name="Camada 2"><g id="Layer_1" data-name="Layer 1"><path class="cls-1" d="M15.8,71A27,27,0,0,1,9.64,70Q5.56,68.9,2.41,60A81.55,81.55,0,0,1,0,40.77a115.18,115.18,0,0,1,.94-12A44.38,44.38,0,0,1,6.59,12.25q4.73-8.43,11.15-10a9.8,9.8,0,0,1,2-.21q13.65,0,22,35.49l-15.87,7q-5.49-9.71-9.37-9.71-3.28,0-4.89,4.29a21.84,21.84,0,0,0-1.34,7.76c0,.9.13,2.54.37,4.92a10.62,10.62,0,0,0,3.65,6.66,5.11,5.11,0,0,0,3.68,1.48A12.16,12.16,0,0,0,23.83,58,2.09,2.09,0,0,0,25,56.24a.88.88,0,0,0-.34-.74l-8.77-.27L17.41,47l23.43,3.14Q40.63,55,35.92,60.35a35.93,35.93,0,0,1-11.35,8.54A20.22,20.22,0,0,1,15.8,71Z"/><path class="cls-1" d="M77.66,71.7,47.33,70.56l-1.4-53.15H43.32L43.05,3.75l21-2.08L82.08,0l.13,16.94-18.61.27-.8,20.28,14.46-1.67L77.39,51,62.26,50l-.53,13.05,15.86.14Z"/><path class="cls-1" d="M120.84,71.7,90.51,70.56l-1.4-53.15H86.5L86.23,3.75l21-2.08,18-1.67.13,16.94-18.61.27L106,37.49l14.46-1.67L120.57,51,105.44,50l-.53,13.05,15.86.14Z"/><path class="cls-1" d="M159.74,71.9,148.82,45.52l-1.07,24.77L133.69,70l-1.4-50.68h-2.61l-.27-13.72,21.15-2.08-.87,21.22L165,6.36l6.69,7.23L157.19,30.66l20.09,35Z"/><path class="cls-2" d="M194.41,71l1.41-22.76q-9.91-1.53-19.88-2.94l7.7-38.83,13,1.6-6.16,30.46,5.63.41L199.57,13l13.79,3.48q-3.48,16.14-4.82,23.43l2.34.2-2.21,10-1.94-.26-3.88,21.35Z"/><path class="cls-1" d="M231.84,71A26.89,26.89,0,0,1,225.68,70q-4.08-1.06-7.23-10A81.55,81.55,0,0,1,216,40.77a115.18,115.18,0,0,1,.94-12,44.38,44.38,0,0,1,5.65-16.57q4.73-8.43,11.15-10a9.8,9.8,0,0,1,2-.21q13.65,0,22,35.49l-15.87,7q-5.49-9.71-9.37-9.71-3.28,0-4.89,4.29a21.84,21.84,0,0,0-1.34,7.76c0,.9.12,2.54.37,4.92a10.58,10.58,0,0,0,3.65,6.66A5.1,5.1,0,0,0,234,59.92,12.16,12.16,0,0,0,239.87,58a2.09,2.09,0,0,0,1.21-1.74.88.88,0,0,0-.34-.74L232,55.23,233.45,47l23.43,3.14Q256.67,55,252,60.35a35.93,35.93,0,0,1-11.35,8.54A20.26,20.26,0,0,1,231.84,71Z"/><path class="cls-1" d="M293.7,71.7l-30.33-1.14L262,17.41h-2.61l-.26-13.66,21-2.08,18-1.67.13,16.94-18.61.27-.8,20.28,14.46-1.67L293.43,51,278.3,50l-.54,13.05,15.87.14Z"/><path class="cls-1" d="M336.88,71.7l-30.33-1.14-1.4-53.15h-2.62l-.26-13.66,21-2.08L341.3,0l.13,16.94-18.61.27L322,37.49l14.46-1.67L336.61,51,321.48,50l-.54,13.05,15.87.14Z"/><path class="cls-1" d="M375.77,71.9,364.86,45.52l-1.07,24.77L349.73,70l-1.4-50.68h-2.61l-.27-13.72L366.6,3.48l-.87,21.22L381,6.36l6.69,7.23L373.23,30.66l20.08,35Z"/></g></g></svg>