<svg xmlns="http://www.w3.org/2000/svg" viewBox="0 0 498.02 118.53"><defs><style>.cls-1{fill:#7aed0a;}</style></defs><title>Ativo 6</title><g id="Camada_2" data-name="Camada 2"><g id="Layer_1" data-name="Layer 1"><path d="M31.78,118.45a26.81,26.81,0,0,1-9.88-1.26A21.82,21.82,0,0,1,11.42,110a17.3,17.3,0,0,1-3.83-9.78,22.34,22.34,0,0,1,0-4.33l12.19,1a14.88,14.88,0,0,0-1,5.94,10.84,10.84,0,0,0,1.52,4,5.86,5.86,0,0,0,4.43,2.77,13.27,13.27,0,0,0,1.41.1A5.29,5.29,0,0,0,30,107.56Q31.69,96,32.18,91a26.3,26.3,0,0,1-5.54,1.31q-7.37.6-14.11-5.8T2.24,67.64A60.57,60.57,0,0,1,.13,56.55,65.29,65.29,0,0,1,1.13,41q1.52-8.92,10-13.36A14.37,14.37,0,0,1,16.56,26q7.76-.61,19.55,5.54l.61-3.32L56,31.05q-1.61,35.88-11.09,78.53Q41.76,117.64,31.78,118.45Zm1.91-40.63L36.92,52q-5.85-3.84-9.48-3.83a5,5,0,0,0-2.82.8q-3.74,2.52-3.73,8.77v3.43q0,3.33,3.38,9.33A14,14,0,0,0,33.69,77.82Z"/><path d="M78.45,102.52A26,26,0,0,1,68.37,99.9q-5.94-2.62-8.67-12.8A46.16,46.16,0,0,1,58,74.3,95.44,95.44,0,0,1,59.3,61.14a63,63,0,0,1,6.4-18.7q5.08-10.08,12-13.81a10.29,10.29,0,0,1,4.94-1.31q4.64,0,10.73,5.59t12.66,27.27L74,82.26a13.12,13.12,0,0,0,8,7.06,10.58,10.58,0,0,0,2.93.4q4.64,0,11-3.43l.1,11.9Q85.72,102.53,78.45,102.52ZM71.3,71.37l13.5-12.3q-3.72-5.53-6.55-5.54A14.29,14.29,0,0,0,76,54c-1.21.31-2.35,2.17-3.42,5.6A28.92,28.92,0,0,0,71.2,69Z"/><path d="M128.55,102.52a25.9,25.9,0,0,1-10.07-2.62q-6-2.62-8.67-12.8a45.78,45.78,0,0,1-1.72-12.8,95.44,95.44,0,0,1,1.31-13.16,63,63,0,0,1,6.4-18.7q5.1-10.08,12-13.81a10.29,10.29,0,0,1,4.94-1.31q4.64,0,10.73,5.59t12.66,27.27L124.12,82.26a13.12,13.12,0,0,0,8,7.06,10.58,10.58,0,0,0,2.93.4q4.63,0,11-3.43l.11,11.9Q135.81,102.53,128.55,102.52ZM121.4,71.37l13.51-12.3q-3.74-5.53-6.56-5.54a14.26,14.26,0,0,0-2.21.45c-1.21.31-2.36,2.17-3.43,5.6A28.92,28.92,0,0,0,121.3,69Z"/><path d="M161.92,23H160L158.19,1.21,185.41,0l-3.33,54.54,20.37-18.75,6.35,11.09L194.08,58.47l23.69,35.38L198.51,103,183.29,66.94l-2,1.61L179.16,103l-15.12.11Z"/><path class="cls-1" d="M249.32,102.12l2.12-34.28q-14.92-2.31-29.94-4.43L233.09,4.94l19.56,2.42-9.28,45.87,8.47.6,5.24-39,20.77,5.24q-5.24,24.3-7.26,35.28l3.53.31L270.8,70.77l-2.93-.41L262,102.52Z"/><path d="M312,118.45a26.78,26.78,0,0,1-9.87-1.26A21.85,21.85,0,0,1,291.66,110a17.37,17.37,0,0,1-3.83-9.78,24.05,24.05,0,0,1,0-4.33l12.2,1a14.7,14.7,0,0,0-1,5.94,10.8,10.8,0,0,0,1.51,4,5.88,5.88,0,0,0,4.44,2.77,13.27,13.27,0,0,0,1.41.1,5.33,5.33,0,0,0,3.83-2.12Q311.92,96,312.43,91a26.38,26.38,0,0,1-5.55,1.31q-7.35.6-14.11-5.8t-10.28-18.9a60.61,60.61,0,0,1-2.12-11.09,64.83,64.83,0,0,1,1-15.57q1.51-8.92,10-13.36A14.32,14.32,0,0,1,296.8,26q7.77-.61,19.56,5.54l.6-3.32,19.26,2.82q-1.62,35.88-11.09,78.53Q322,117.64,312,118.45Zm1.92-40.63L317.17,52q-5.85-3.84-9.48-3.83a5,5,0,0,0-2.82.8q-3.74,2.52-3.73,8.77v3.43q0,3.33,3.37,9.33A14,14,0,0,0,313.94,77.82Z"/><path d="M358.7,102.52a25.9,25.9,0,0,1-10.08-2.62q-6-2.62-8.67-12.8a46.16,46.16,0,0,1-1.72-12.8,94.21,94.21,0,0,1,1.32-13.16,62.74,62.74,0,0,1,6.4-18.7Q351,32.36,358,28.63a10.32,10.32,0,0,1,4.94-1.31q4.63,0,10.74,5.59t12.65,27.27L354.26,82.26a13.11,13.11,0,0,0,8,7.06,10.5,10.5,0,0,0,2.92.4q4.64,0,11-3.43l.1,11.9Q366,102.53,358.7,102.52Zm-7.16-31.15,13.51-12.3q-3.74-5.53-6.55-5.54a14.29,14.29,0,0,0-2.22.45c-1.21.31-2.35,2.17-3.43,5.6A28.92,28.92,0,0,0,351.44,69Z"/><path d="M408.8,102.52a25.9,25.9,0,0,1-10.08-2.62q-6-2.62-8.67-12.8a46.16,46.16,0,0,1-1.71-12.8,93.87,93.87,0,0,1,1.31-13.16,62.74,62.74,0,0,1,6.4-18.7q5.08-10.08,12-13.81A10.32,10.32,0,0,1,413,27.32q4.64,0,10.74,5.59t12.65,27.27L404.36,82.26a13.14,13.14,0,0,0,8,7.06,10.5,10.5,0,0,0,2.92.4q4.63,0,11-3.43l.1,11.9Q416.07,102.53,408.8,102.52Zm-7.16-31.15,13.51-12.3q-3.73-5.53-6.55-5.54a14.29,14.29,0,0,0-2.22.45c-1.21.31-2.35,2.17-3.43,5.6A28.92,28.92,0,0,0,401.54,69Z"/><path d="M442.17,23h-1.92L438.44,1.21,465.66,0l-3.33,54.54,20.36-18.75L489,46.88,474.33,58.47,498,93.85,478.76,103,463.54,66.94l-2,1.61L459.41,103l-15.13.11Z"/></g></g></svg>